<svg xmlns="http://www.w3.org/2000/svg" class="avatar-controls__entity-preset-icon" viewBox="0 0 420 420" aria-hidden="true"><rect width="420" height="420" rx="34" fill="#7d897c"></rect><defs><filter id="r5p-preview-avatar-shadow" x="-100%" y="-100%" width="300%" height="300%"><feDropShadow dx="-7.070663706551933" dy="8.426488874308758" stdDeviation="9" flood-color="#584b3d" flood-opacity="0.25"></feDropShadow></filter></defs><g filter="url(#r5p-preview-avatar-shadow)" transform="translate(69 108) translate(210 210) rotate(-10.886198107485642) scale(1.78) translate(-210 -210)"><g data-avatar-entity-fragment-root="true" data-avatar-entity-preset="hedgehog" data-avatar-fragment-composition="compiled-owner-partition" data-avatar-fragment-build-count="1" data-avatar-fragment-build-ms="0.000" data-avatar-fragment-compile-count="99" data-avatar-fragment-compile-ms="143.300" data-avatar-fragment-drag-build-max-ms="0.000" data-avatar-fragment-drag-build-mean-ms="0.000" data-avatar-fragment-drag-build-p95-ms="0.000" data-avatar-fragment-drag-build-samples="0" data-avatar-fragment-quality="full" data-avatar-fragment-raster-size="210" data-avatar-fragment-revision="{&quot;groups&quot;:[{&quot;id&quot;:&quot;anatomy-spine-core&quot;,&quot;primitiveIds&quot;:[&quot;spine-core&quot;],&quot;resolution&quot;:20},{&quot;id&quot;:&quot;anatomy-spine-0&quot;,&quot;primitiveIds&quot;:[&quot;spine-0&quot;],&quot;resolution&quot;:20},{&quot;id&quot;:&quot;anatomy-spine-2&quot;,&quot;primitiveIds&quot;:[&quot;spine-2&quot;],&quot;resolution&quot;:20},{&quot;id&quot;:&quot;anatomy-spine-4&quot;,&quot;primitiveIds&quot;:[&quot;spine-4&quot;],&quot;resolution&quot;:20},{&quot;id&quot;:&quot;anatomy-spine-6&quot;,&quot;primitiveIds&quot;:[&quot;spine-6&quot;],&quot;resolution&quot;:20},{&quot;id&quot;:&quot;anatomy-spine-8&quot;,&quot;primitiveIds&quot;:[&quot;spine-8&quot;],&quot;resolution&quot;:20},{&quot;id&quot;:&quot;anatomy-spine-10&quot;,&quot;primitiveIds&quot;:[&quot;spine-10&quot;],&quot;resolution&quot;:20},{&quot;id&quot;:&quot;anatomy-spine-12&quot;,&quot;primitiveIds&quot;:[&quot;spine-12&quot;],&quot;resolution&quot;:20},{&quot;id&quot;:&quot;anatomy-ear-left&quot;,&quot;primitiveIds&quot;:[&quot;ear-left&quot;],&quot;resolution&quot;:20},{&quot;id&quot;:&quot;anatomy-ear-right&quot;,&quot;primitiveIds&quot;:[&quot;ear-right&quot;],&quot;resolution&quot;:20},{&quot;id&quot;:&quot;anatomy-primary&quot;,&quot;primitiveIds&quot;:[&quot;primary&quot;],&quot;resolution&quot;:20}],&quot;id&quot;:&quot;production-hedgehog&quot;,&quot;primitives&quot;:[{&quot;id&quot;:&quot;spine-core&quot;,&quot;materialId&quot;:&quot;spine-core&quot;,&quot;position&quot;:{&quot;x&quot;:0,&quot;y&quot;:-1.9774999999999991,&quot;z&quot;:-31.982771924897317},&quot;productionShape&quot;:&quot;ellipse&quot;,&quot;roundness&quot;:94,&quot;rotation&quot;:{&quot;x&quot;:0,&quot;y&quot;:0,&quot;z&quot;:0},&quot;scale&quot;:{&quot;x&quot;:112.77630000000002,&quot;y&quot;:83.75640000000001,&quot;z&quot;:84.37519999999999},&quot;shape&quot;:&quot;ellipse&quot;},{&quot;id&quot;:&quot;spine-0&quot;,&quot;materialId&quot;:&quot;spine-0&quot;,&quot;position&quot;:{&quot;x&quot;:-82.38599676367488,&quot;y&quot;:-33.610877154361994,&quot;z&quot;:-8.953857212820012},&quot;productionShape&quot;:&quot;cone&quot;,&quot;roundness&quot;:35,&quot;rotation&quot;:{&quot;x&quot;:-0.12217304763960307,&quot;y&quot;:-0.23786714657791883,&quot;z&quot;:-1.34},&quot;scale&quot;:{&quot;x&quot;:18.9735,&quot;y&quot;:46.8013,&quot;z&quot;:18.0544},&quot;shape&quot;:&quot;cone&quot;},{&quot;id&quot;:&quot;spine-2&quot;,&quot;materialId&quot;:&quot;spine-2&quot;,&quot;position&quot;:{&quot;x&quot;:-67.72415808199344,&quot;y&quot;:-67.02116247342765,&quot;z&quot;:-10.465011357242863},&quot;productionShape&quot;:&quot;cone&quot;,&quot;roundness&quot;:35,&quot;rotation&quot;:{&quot;x&quot;:-0.12217304763960307,&quot;y&quot;:-0.19553507719965474,&quot;z&quot;:-0.9276923076923078},&quot;scale&quot;:{&quot;x&quot;:18.9735,&quot;y&quot;:46.8013,&quot;z&quot;:18.0544},&quot;shape&quot;:&quot;cone&quot;},{&quot;id&quot;:&quot;spine-4&quot;,&quot;materialId&quot;:&quot;spine-4&quot;,&quot;position&quot;:{&quot;x&quot;:-41.711549218259584,&quot;y&quot;:-91.37846334194194,&quot;z&quot;:-13.14605720320452},&quot;productionShape&quot;:&quot;cone&quot;,&quot;roundness&quot;:35,&quot;rotation&quot;:{&quot;x&quot;:-0.12217304763960307,&quot;y&quot;:-0.12043074771981745,&quot;z&quot;:-0.5153846153846154},&quot;scale&quot;:{&quot;x&quot;:18.9735,&quot;y&quot;:46.8013,&quot;z&quot;:18.0544},&quot;shape&quot;:&quot;cone&quot;},{&quot;id&quot;:&quot;spine-6&quot;,&quot;materialId&quot;:&quot;spine-6&quot;,&quot;position&quot;:{&quot;x&quot;:-8.707960731853758,&quot;y&quot;:-102.6004237403751,&quot;z&quot;:-16.54764349840572},&quot;productionShape&quot;:&quot;cone&quot;,&quot;roundness&quot;:35,&quot;rotation&quot;:{&quot;x&quot;:-0.12217304763960307,&quot;y&quot;:-0.02514186698184005,&quot;z&quot;:-0.10307692307692307},&quot;scale&quot;:{&quot;x&quot;:18.9735,&quot;y&quot;:46.8013,&quot;z&quot;:18.0544},&quot;shape&quot;:&quot;cone&quot;},{&quot;id&quot;:&quot;spine-8&quot;,&quot;materialId&quot;:&quot;spine-8&quot;,&quot;position&quot;:{&quot;x&quot;:25.7551078547246,&quot;y&quot;:-98.80620975240893,&quot;z&quot;:-14.790642375654448},&quot;productionShape&quot;:&quot;cone&quot;,&quot;roundness&quot;:35,&quot;rotation&quot;:{&quot;x&quot;:-0.12217304763960307,&quot;y&quot;:0.07436086538812202,&quot;z&quot;:0.3092307692307692},&quot;scale&quot;:{&quot;x&quot;:18.9735,&quot;y&quot;:46.8013,&quot;z&quot;:18.0544},&quot;shape&quot;:&quot;cone&quot;},{&quot;id&quot;:&quot;spine-10&quot;,&quot;materialId&quot;:&quot;spine-10&quot;,&quot;position&quot;:{&quot;x&quot;:55.90154381636852,&quot;y&quot;:-80.63174291946429,&quot;z&quot;:-11.683534690727184},&quot;productionShape&quot;:&quot;cone&quot;,&quot;roundness&quot;:35,&quot;rotation&quot;:{&quot;x&quot;:-0.12217304763960307,&quot;y&quot;:0.16140049570612192,&quot;z&quot;:0.7215384615384617},&quot;scale&quot;:{&quot;x&quot;:18.9735,&quot;y&quot;:46.8013,&quot;z&quot;:18.0544},&quot;shape&quot;:&quot;cone&quot;},{&quot;id&quot;:&quot;spine-12&quot;,&quot;materialId&quot;:&quot;spine-12&quot;,&quot;position&quot;:{&quot;x&quot;:76.67871488566318,&quot;y&quot;:-51.12311790029396,&quot;z&quot;:-9.542090574991866},&quot;productionShape&quot;:&quot;cone&quot;,&quot;roundness&quot;:35,&quot;rotation&quot;:{&quot;x&quot;:-0.12217304763960307,&quot;y&quot;:0.22138892323454254,&quot;z&quot;:1.133846153846154},&quot;scale&quot;:{&quot;x&quot;:18.9735,&quot;y&quot;:46.8013,&quot;z&quot;:18.0544},&quot;shape&quot;:&quot;cone&quot;},{&quot;id&quot;:&quot;ear-left&quot;,&quot;materialId&quot;:&quot;ear-left&quot;,&quot;position&quot;:{&quot;x&quot;:-60.45,&quot;y&quot;:-36.57,&quot;z&quot;:-7.753399254520562},&quot;productionShape&quot;:&quot;ellipse&quot;,&quot;roundness&quot;:100,&quot;rotation&quot;:{&quot;x&quot;:-0.06981317007977318,&quot;y&quot;:-0.15707963267948966,&quot;z&quot;:-0.15707963267948966},&quot;scale&quot;:{&quot;x&quot;:28.611000000000004,&quot;y&quot;:25.252000000000002,&quot;z&quot;:17.735900794715782},&quot;shape&quot;:&quot;ellipse&quot;},{&quot;id&quot;:&quot;ear-right&quot;,&quot;materialId&quot;:&quot;ear-right&quot;,&quot;position&quot;:{&quot;x&quot;:60.45,&quot;y&quot;:-36.57,&quot;z&quot;:-7.753399254520562},&quot;productionShape&quot;:&quot;ellipse&quot;,&quot;roundness&quot;:100,&quot;rotation&quot;:{&quot;x&quot;:-0.06981317007977318,&quot;y&quot;:0.15707963267948966,&quot;z&quot;:0.15707963267948966},&quot;scale&quot;:{&quot;x&quot;:28.611000000000004,&quot;y&quot;:25.252000000000002,&quot;z&quot;:17.735900794715782},&quot;shape&quot;:&quot;ellipse&quot;},{&quot;bottomTaper&quot;:36,&quot;id&quot;:&quot;primary&quot;,&quot;materialId&quot;:&quot;primary&quot;,&quot;position&quot;:{&quot;x&quot;:0,&quot;y&quot;:21,&quot;z&quot;:0},&quot;productionShape&quot;:&quot;ellipse&quot;,&quot;roundness&quot;:92,&quot;rotation&quot;:{&quot;x&quot;:0,&quot;y&quot;:0,&quot;z&quot;:0},&quot;scale&quot;:{&quot;x&quot;:95.33430000000001,&quot;y&quot;:79.85060000000001,&quot;z&quot;:83.94993042832138},&quot;shape&quot;:&quot;ellipse&quot;}],&quot;resolution&quot;:20,&quot;smoothUnionPairs&quot;:[],&quot;smoothUnionRadius&quot;:0}:210:-0.220000:-0.150000" data-avatar-fragment-release-build-ms="0.000" data-avatar-fragment-settle-build-ms="0.000" data-avatar-fragment-path-characters="14105" data-avatar-fragment-path-serialization-ms="0.000" data-avatar-fragment-candidate-tests="96984" data-avatar-fragment-contour-ms="2.900" data-avatar-fragment-curve-segments="469" data-avatar-fragment-contour-segments="469" data-avatar-fragment-depth-owner-ms="2.000" data-avatar-fragment-line-segments="0" data-avatar-fragment-max-curve-error="0.123" data-avatar-fragment-shared-curve-reuse="144" data-avatar-fragment-null-owner-pixels="0" data-avatar-fragment-transform-ms="0.000"><defs><filter id="r5p-preview-entity-face-shadow" x="-50%" y="-50%" width="200%" height="200%"><feGaussianBlur stdDeviation="0"></feGaussianBlur></filter><filter id="r5p-preview-entity-outline" x="-30%" y="-30%" width="160%" height="160%"><feMorphology in="SourceAlpha" operator="dilate" radius="2" result="expanded"></feMorphology><feFlood flood-color="#352a24" flood-opacity="0.86"></feFlood><feComposite in2="expanded" operator="in"></feComposite><feMerge><feMergeNode></feMergeNode><feMergeNode in="SourceGraphic"></feMergeNode></feMerge></filter><clipPath id="r5p-preview-compiled-owner-0" clipPathUnits="userSpaceOnUse"><path d="M109.69 60.02Q109.72 60.49 110.04 60.83Q110.45 61.21 111.00 61.29Q111.49 61.45 112.00 61.43Q112.78 61.46 113.56 61.50Q115.78 61.85 118.00 62.15Q118.48 62.35 119.00 62.26Q120.00 62.24 121.00 62.26Q122.13 62.07 123.17 61.56C123.40 61.65 123.63 61.74 123.87 61.83Q123.68 62.41 123.81 63.00Q123.90 63.43 124.26 63.68Q124.93 64.12 125.67 64.43Q126.32 64.69 127.00 64.88Q129.00 65.45 131.00 66.00Q131.99 66.22 133.00 66.34Q134.03 66.47 135.06 66.56Q135.41 66.67 135.76 66.56Q136.08 66.51 136.26 66.25Q136.67 65.97 137.17 66.00C137.27 66.19 137.27 66.48 137.47 66.58C138.54 67.13 139.73 67.43 140.85 67.88C141.17 68.01 141.50 68.12 141.80 68.30C144.04 69.62 142.85 69.53 144.17 69.52Q143.58 69.56 143.00 69.60Q142.44 69.69 142.02 70.07Q141.64 70.33 141.52 70.77Q141.51 71.02 141.47 71.27Q141.47 71.42 141.47 71.56Q142.02 72.43 142.72 73.19Q142.89 73.53 143.22 73.73Q143.53 74.01 143.89 74.23Q144.97 75.04 146.16 75.70Q146.55 75.96 147.00 76.12Q147.60 76.41 148.26 76.56Q148.68 76.61 149.00 76.90Q149.43 77.03 149.84 76.84Q150.47 76.49 150.97 75.97Q151.35 75.70 151.47 75.25Q151.83 75.13 152.17 75.33C151.97 77.34 152.00 75.53 155.15 78.86C155.54 79.27 155.86 79.76 156.20 80.22C159.29 84.45 160.49 85.63 162.32 90.59C162.98 92.40 163.47 94.28 163.81 96.18C164.10 97.77 164.08 99.41 164.19 101.02C164.35 103.30 164.12 105.66 163.52 107.86C163.06 109.54 162.57 111.21 162.07 112.88C161.97 113.21 161.86 113.54 161.71 113.85C160.90 115.53 160.04 117.19 159.19 118.85C159.03 119.16 158.88 119.48 158.67 119.76C154.99 124.79 153.42 127.15 148.24 131.10C145.74 133.01 142.95 134.50 140.28 136.17C139.81 136.47 139.32 136.74 138.81 136.98C138.61 137.08 138.37 137.11 138.15 137.17Q138.46 136.89 138.48 136.48Q141.34 133.83 143.96 130.96Q145.04 130.03 145.89 128.89Q146.20 128.50 146.22 128.00Q146.12 127.62 146.34 127.29Q146.98 126.96 147.43 126.39Q147.78 126.25 147.89 125.89Q148.25 125.51 148.32 125.00Q148.34 124.60 148.43 124.22Q148.44 123.89 148.72 123.72Q148.73 122.83 149.06 122.00Q149.12 121.62 149.43 121.38Q149.77 121.23 149.87 120.88Q150.15 120.48 150.12 120.00Q149.95 119.50 150.10 119.00Q150.17 118.52 150.35 118.08Q150.39 117.77 150.63 117.58Q150.66 117.29 150.68 117.00Q150.54 116.50 150.65 116.00Q150.77 115.00 150.78 114.00Q150.80 112.50 150.73 111.00Q150.67 110.15 150.53 109.31Q149.97 107.14 149.34 104.98Q148.32 102.42 147.33 99.85Q146.74 98.93 146.18 98.00Q145.27 96.36 144.35 94.74Q142.30 92.24 140.39 89.64Q138.34 87.67 136.28 85.72Q135.49 85.04 134.70 84.35Q132.04 82.47 129.37 80.59Q128.12 79.98 126.89 79.31Q124.45 78.14 122.00 76.98Q121.60 76.79 121.19 76.62Q119.41 76.13 117.69 75.46Q115.14 74.97 112.60 74.48Q110.80 74.22 109.00 73.98Q108.00 73.83 107.00 73.77Q105.50 73.68 104.00 73.60Q103.00 73.55 102.00 73.59Q100.50 73.63 99.00 73.71Q96.50 74.02 94.00 74.34Q91.28 74.96 88.55 75.51Q87.80 75.86 87.00 76.04Q86.15 76.33 85.26 76.46Q84.18 77.02 83.00 77.35Q82.71 77.49 82.38 77.49Q80.42 78.46 78.49 79.50Q76.08 81.14 73.50 82.50Q73.07 83.10 72.43 83.47Q71.71 84.23 70.81 84.77Q69.26 86.25 67.63 87.63Q67.34 88.31 66.82 88.84Q66.42 89.43 65.93 89.96Q65.45 90.47 64.96 90.98Q64.69 91.37 64.24 91.48Q63.89 91.64 63.79 92.00Q63.59 92.26 63.55 92.58Q63.20 92.72 63.08 93.08Q62.58 93.59 62.21 94.21Q61.85 94.53 61.77 95.00Q61.61 95.28 61.56 95.60Q61.21 95.74 61.10 96.10Q60.73 96.48 60.65 97.00Q60.62 97.30 60.55 97.59Q60.20 97.73 60.09 98.09Q59.72 98.48 59.65 99.00Q59.60 99.78 59.54 100.55Q59.18 100.69 59.05 101.05Q58.68 101.46 58.60 102.00Q58.59 102.82 58.53 103.65Q58.26 103.83 58.15 104.15Q57.77 104.50 57.69 105.00Q57.54 105.49 57.58 106.00Q57.53 111.50 57.54 117.00Q57.64 117.56 58.02 117.98Q58.16 118.34 58.52 118.48Q58.55 119.24 58.54 120.00Q58.49 120.65 58.76 121.24C56.67 120.04 55.56 116.39 54.93 114.82C52.82 109.64 52.26 103.65 53.16 98.16C53.47 96.24 54.01 94.37 54.62 92.53C55.00 91.40 55.77 90.43 56.10 89.29C56.20 88.97 55.92 88.65 55.83 88.33Q56.64 87.80 57.58 87.56Q57.84 87.33 57.97 87.00Q59.22 84.83 60.73 82.83Q60.96 82.44 60.88 82.00Q60.75 81.41 60.94 80.83C61.94 80.34 61.21 80.80 62.01 80.01C63.84 78.18 65.66 76.33 67.56 74.56C68.98 73.24 68.56 74.45 68.83 73.00Q69.44 73.06 70.00 72.81Q70.32 72.60 70.70 72.56Q70.96 72.39 71.20 72.20Q71.55 71.91 72.00 71.92Q72.45 71.97 72.82 71.72Q73.20 71.53 73.32 71.13Q73.58 70.80 74.00 70.76Q74.37 70.81 74.69 70.62Q75.26 70.13 75.96 69.81Q76.32 69.69 76.46 69.33Q76.98 68.85 77.66 68.65Q77.80 68.27 78.16 68.09Q78.47 67.71 78.94 67.59Q79.33 67.30 79.46 66.84C79.72 66.92 79.97 67.15 80.23 67.09C82.27 66.60 82.58 66.33 83.83 65.52Q84.22 65.57 84.62 65.52Q84.78 65.23 85.12 65.15Q85.49 64.80 86.00 64.74Q86.99 64.92 88.00 64.81Q88.66 64.66 89.31 64.46Q90.53 64.03 91.74 63.58Q92.04 63.47 92.24 63.22Q92.57 62.93 93.00 62.94Q93.52 62.98 93.96 62.72Q94.48 62.35 95.00 62.00Q95.45 61.67 96.00 61.65Q96.50 61.61 97.00 61.56Q98.50 61.54 100.00 61.59Q100.78 61.59 101.56 61.51Q101.78 61.33 102.06 61.28Q102.48 60.98 103.00 60.97Q103.50 60.87 104.00 60.84Q106.42 60.64 108.85 60.59Q109.30 60.35 109.69 60.02ZM58.76 121.24Q59.09 121.51 59.51 121.48Q59.54 121.74 59.53 122.00Q59.49 122.65 59.76 123.24C59.42 122.52 58.84 122.05 58.76 121.24ZM59.76 123.24Q60.09 123.52 60.51 123.48Q60.53 123.83 60.51 124.17C60.22 123.52 60.43 123.86 59.76 123.24Z" transform="scale(2)"></path></clipPath><clipPath id="r5p-preview-compiled-owner-1" clipPathUnits="userSpaceOnUse"><path d="M60.94 80.83Q60.75 81.41 60.88 82.00Q60.96 82.44 60.73 82.83Q59.22 84.83 57.97 87.00Q57.84 87.33 57.58 87.56Q56.64 87.80 55.83 88.33C54.79 87.16 55.64 87.91 54.57 87.33C53.80 86.91 53.05 86.44 52.28 86.01C51.92 85.81 51.57 85.60 51.18 85.45C50.50 85.18 49.78 85.01 49.10 84.75C48.21 84.40 47.94 83.50 47.21 82.88C46.85 82.58 46.43 82.31 45.97 82.23C45.33 82.11 44.67 82.33 44.02 82.27C43.94 82.26 43.92 82.06 44.00 82.04C48.11 81.40 53.04 81.71 57.00 81.61C60.20 81.52 59.26 81.92 60.94 80.83Z" transform="scale(2)"></path></clipPath><clipPath id="r5p-preview-compiled-owner-2" clipPathUnits="userSpaceOnUse"><path d="M79.46 66.84Q79.33 67.30 78.94 67.59Q78.47 67.71 78.16 68.09Q77.80 68.27 77.66 68.65Q76.98 68.85 76.46 69.33Q76.32 69.69 75.96 69.81Q75.26 70.13 74.69 70.62Q74.37 70.81 74.00 70.76Q73.58 70.80 73.32 71.13Q73.20 71.53 72.82 71.72Q72.45 71.97 72.00 71.92Q71.55 71.91 71.20 72.20Q70.96 72.39 70.70 72.56Q70.32 72.60 70.00 72.81Q69.44 73.06 68.83 73.00C68.74 72.82 68.68 72.61 68.54 72.46C67.29 71.06 65.94 69.73 64.68 68.34C63.88 67.45 63.17 66.50 62.36 65.63C61.01 64.16 58.72 62.13 57.45 60.58C56.81 59.79 56.14 59.00 55.74 58.07C55.62 57.81 55.71 57.28 55.99 57.25C56.65 57.19 57.25 57.64 57.86 57.89C58.41 58.11 58.92 58.43 59.46 58.66C59.61 58.73 59.79 58.72 59.94 58.77C60.21 58.86 60.48 58.98 60.74 59.09C61.76 59.52 62.78 59.94 63.80 60.39C64.48 60.69 65.14 61.06 65.84 61.34C67.03 61.81 68.25 62.20 69.44 62.65C70.23 62.94 71.00 63.25 71.77 63.57C74.34 64.64 76.90 65.75 79.46 66.84Z" transform="scale(2)"></path></clipPath><clipPath id="r5p-preview-compiled-owner-3" clipPathUnits="userSpaceOnUse"><path d="M96.67 60.83Q96.97 61.14 97.00 61.56Q96.50 61.61 96.00 61.65Q95.45 61.67 95.00 62.00Q94.48 62.35 93.96 62.72Q93.52 62.98 93.00 62.94Q92.57 62.93 92.24 63.22Q92.04 63.47 91.74 63.58Q90.53 64.03 89.31 64.46Q88.66 64.66 88.00 64.81Q86.99 64.92 86.00 64.74Q85.49 64.80 85.12 65.15Q84.78 65.23 84.62 65.52Q84.22 65.57 83.83 65.52C82.88 65.02 83.79 65.53 82.77 62.89C80.85 57.87 78.79 52.91 77.13 47.80C76.70 46.46 75.71 43.45 75.66 41.97C75.65 41.72 75.87 41.48 76.08 41.36C77.65 40.47 78.91 42.34 79.83 43.23C80.67 44.04 81.47 44.87 82.25 45.73C84.00 47.65 85.65 49.66 87.41 51.58C88.52 52.80 89.75 53.91 90.87 55.12C96.37 61.00 93.49 61.01 96.67 60.83Z" transform="scale(2)"></path></clipPath><clipPath id="r5p-preview-compiled-owner-4" clipPathUnits="userSpaceOnUse"><path d="M110.33 58.83Q110.02 59.43 109.69 60.02Q109.30 60.35 108.85 60.59Q106.42 60.64 104.00 60.84Q103.50 60.87 103.00 60.97Q102.48 60.98 102.06 61.28Q101.78 61.33 101.56 61.51Q100.78 61.59 100.00 61.59Q98.50 61.54 97.00 61.56Q96.97 61.14 96.67 60.83C97.51 58.85 97.07 60.13 97.29 56.03C97.58 50.87 97.71 45.31 98.18 40.07C98.34 38.39 98.51 36.71 98.73 35.03C98.81 34.38 98.75 33.66 99.10 33.09C99.21 32.91 100.92 33.04 100.97 33.04C101.17 33.07 101.44 33.01 101.55 33.17C101.78 33.53 102.90 36.85 103.00 37.17C103.53 38.82 103.96 40.50 104.53 42.14C105.25 44.19 106.13 46.18 106.86 48.22C107.38 49.66 107.83 51.11 108.29 52.57C110.22 58.71 109.07 56.40 110.33 58.83Z" transform="scale(2)"></path></clipPath><clipPath id="r5p-preview-compiled-owner-5" clipPathUnits="userSpaceOnUse"><path d="M123.17 61.56Q122.13 62.07 121.00 62.26Q120.00 62.24 119.00 62.26Q118.48 62.35 118.00 62.15Q115.78 61.85 113.56 61.50Q112.78 61.46 112.00 61.43Q111.49 61.45 111.00 61.29Q110.45 61.21 110.04 60.83Q109.72 60.49 109.69 60.02Q110.02 59.43 110.33 58.83C111.26 58.07 112.15 55.64 112.37 55.19C113.03 53.86 113.64 52.50 114.29 51.16C116.11 47.43 117.72 44.32 119.70 40.62C120.30 39.51 120.86 38.38 121.53 37.31C121.67 37.09 121.91 36.94 122.12 36.79C122.25 36.70 122.48 36.74 122.55 36.61C122.76 36.20 122.70 35.70 122.90 35.29C123.27 34.53 123.74 33.82 124.26 33.15C124.30 33.09 124.39 33.23 124.43 33.30C125.15 34.59 125.52 34.81 125.52 35.96C125.51 39.49 125.27 37.70 124.88 42.92C124.67 45.77 124.76 48.65 124.49 51.50C124.25 53.97 123.89 56.42 123.64 58.89C123.55 59.79 124.32 61.30 123.17 61.56Z" transform="scale(2)"></path></clipPath><clipPath id="r5p-preview-compiled-owner-6" clipPathUnits="userSpaceOnUse"><path d="M145.03 46.66C145.13 46.19 145.01 46.49 145.93 46.31C145.92 46.52 146.09 46.87 145.89 46.95C145.61 47.06 145.32 46.76 145.03 46.66ZM137.17 66.00Q136.67 65.97 136.26 66.25Q136.08 66.51 135.76 66.56Q135.41 66.67 135.06 66.56Q134.03 66.47 133.00 66.34Q131.99 66.22 131.00 66.00Q129.00 65.45 127.00 64.88Q126.32 64.69 125.67 64.43Q124.93 64.12 124.26 63.68Q123.90 63.43 123.81 63.00Q123.68 62.41 123.87 61.83C127.05 61.42 124.36 61.92 130.17 57.21C133.17 54.77 135.48 53.00 138.66 50.72C139.11 50.40 139.64 50.19 140.06 49.83C140.24 49.68 140.25 49.40 140.40 49.23C140.59 49.03 140.82 48.86 141.07 48.75C141.40 48.60 141.80 48.64 142.12 48.47C142.45 48.30 142.72 48.03 142.96 47.76C143.12 47.59 143.13 47.32 143.30 47.17C143.37 47.11 143.51 47.16 143.56 47.23C144.02 47.83 144.44 48.47 144.81 49.13C145.11 49.68 144.56 50.47 144.44 50.87C144.33 51.21 144.33 51.59 144.19 51.92C143.96 52.44 143.59 52.89 143.33 53.40C143.10 53.86 142.96 54.38 142.71 54.84C141.46 57.17 140.08 59.44 138.82 61.77C138.66 62.07 138.60 62.40 138.45 62.70C137.04 65.67 137.10 64.29 137.17 66.00Z" transform="scale(2)"></path></clipPath><clipPath id="r5p-preview-compiled-owner-7" clipPathUnits="userSpaceOnUse"><path d="M160.99 65.86C161.02 65.74 160.96 65.54 161.08 65.49C161.51 65.33 161.71 65.55 161.96 65.75C161.64 65.79 161.31 65.83 160.99 65.86ZM152.17 75.33Q151.83 75.13 151.47 75.25Q151.35 75.70 150.97 75.97Q150.47 76.49 149.84 76.84Q149.43 77.03 149.00 76.90Q148.68 76.61 148.26 76.56Q147.60 76.41 147.00 76.12Q146.55 75.96 146.16 75.70Q144.97 75.04 143.89 74.23Q143.53 74.01 143.22 73.73Q142.89 73.53 142.72 73.19Q142.02 72.43 141.47 71.56Q141.47 71.42 141.47 71.27Q141.51 71.02 141.52 70.77Q141.64 70.33 142.02 70.07Q142.44 69.69 143.00 69.60Q143.58 69.56 144.17 69.52C147.57 70.15 150.73 67.80 154.03 67.28C154.36 67.23 154.70 67.30 155.03 67.24C155.63 67.13 156.14 66.68 156.77 66.93C157.54 67.24 158.29 67.61 159.02 68.01C159.38 68.20 158.92 68.53 158.79 68.64C158.59 68.80 158.33 68.88 158.13 69.04C157.10 69.85 157.83 69.39 157.11 70.24C157.01 70.36 156.84 70.40 156.76 70.52C156.59 70.77 156.58 71.13 156.36 71.34C155.18 72.47 153.79 73.36 152.60 74.49C152.37 74.71 152.31 75.05 152.17 75.33Z" transform="scale(2)"></path></clipPath><clipPath id="r5p-preview-compiled-owner-10" clipPathUnits="userSpaceOnUse"><path d="M138.15 137.17C137.88 137.20 137.56 137.12 137.32 137.26C136.70 137.59 136.19 138.09 135.64 138.53C134.69 139.27 133.78 140.05 132.83 140.79C132.66 140.92 132.48 141.04 132.30 141.15C131.14 141.83 129.95 142.47 128.80 143.17C127.77 143.80 126.81 144.55 125.77 145.15C124.09 146.12 122.20 146.52 120.39 147.16C119.82 147.36 119.29 147.66 118.72 147.84C117.98 148.08 117.20 148.13 116.48 148.40C115.23 148.87 114.07 149.53 112.84 150.05C112.25 150.31 109.95 150.79 109.84 150.82C109.48 150.92 109.14 151.07 108.80 151.23C108.68 151.29 108.61 151.46 108.48 151.47C106.98 151.61 105.47 151.73 103.97 151.66C103.50 151.64 103.09 151.26 102.61 151.21C102.60 151.21 99.95 151.41 99.18 151.11C97.51 150.45 95.90 149.61 94.21 148.99C93.21 148.62 92.15 148.48 91.14 148.14C89.13 147.47 87.16 146.73 85.19 145.97C84.88 145.85 84.59 145.67 84.30 145.50C82.03 144.17 79.69 142.95 77.53 141.45C73.53 138.70 69.53 135.37 66.27 131.72C65.02 130.32 63.89 128.80 62.81 127.26C62.26 126.48 61.96 125.55 61.39 124.78C61.18 124.50 60.80 124.37 60.51 124.17Q60.53 123.83 60.51 123.48Q60.09 123.52 59.76 123.24Q59.49 122.65 59.53 122.00Q59.54 121.74 59.51 121.48Q59.09 121.51 58.76 121.24Q58.49 120.65 58.54 120.00Q58.55 119.24 58.52 118.48Q58.16 118.34 58.02 117.98Q57.64 117.56 57.54 117.00Q57.53 111.50 57.58 106.00Q57.54 105.49 57.69 105.00Q57.77 104.50 58.15 104.15Q58.26 103.83 58.53 103.65Q58.59 102.82 58.60 102.00Q58.68 101.46 59.05 101.05Q59.18 100.69 59.54 100.55Q59.60 99.78 59.65 99.00Q59.72 98.48 60.09 98.09Q60.20 97.73 60.55 97.59Q60.62 97.30 60.65 97.00Q60.73 96.48 61.10 96.10Q61.21 95.74 61.56 95.60Q61.61 95.28 61.77 95.00Q61.85 94.53 62.21 94.21Q62.58 93.59 63.08 93.08Q63.20 92.72 63.55 92.58Q63.59 92.26 63.79 92.00Q63.89 91.64 64.24 91.48Q64.69 91.37 64.96 90.98Q65.45 90.47 65.93 89.96Q66.42 89.43 66.82 88.84Q67.34 88.31 67.63 87.63Q69.26 86.25 70.81 84.77Q71.71 84.23 72.43 83.47Q73.07 83.10 73.50 82.50Q76.08 81.14 78.49 79.50Q79.51 79.12 80.40 78.48Q81.46 78.13 82.38 77.49Q82.71 77.49 83.00 77.35Q84.18 77.02 85.26 76.46Q86.15 76.33 87.00 76.04Q87.80 75.86 88.55 75.51Q90.95 75.04 93.33 74.46Q96.16 74.03 99.00 73.71Q100.50 73.63 102.00 73.59Q103.00 73.55 104.00 73.60Q106.00 73.70 108.00 73.85Q110.30 74.14 112.60 74.48Q115.14 74.97 117.69 75.46Q119.41 76.13 121.19 76.62Q121.60 76.79 122.00 76.98Q124.45 78.14 126.89 79.31Q128.12 79.98 129.37 80.59Q132.04 82.47 134.70 84.35Q135.49 85.04 136.28 85.72Q137.55 86.95 138.85 88.16Q139.61 88.91 140.39 89.64Q140.57 89.90 140.79 90.14Q141.49 91.02 142.13 91.94Q143.23 93.35 144.35 94.74Q145.27 96.36 146.18 98.00Q146.74 98.93 147.33 99.85Q147.45 100.10 147.56 100.35Q148.56 102.90 149.51 105.48Q149.94 107.15 150.41 108.81Q150.57 109.40 150.63 110.00Q150.73 110.50 150.73 111.00Q150.78 112.00 150.78 113.00Q150.80 114.00 150.74 115.00Q150.71 115.50 150.65 116.00Q150.54 116.50 150.68 117.00Q150.66 117.29 150.63 117.58Q150.39 117.77 150.35 118.08Q150.17 118.52 150.10 119.00Q149.95 119.50 150.12 120.00Q150.15 120.48 149.87 120.88Q149.77 121.23 149.43 121.38Q149.12 121.62 149.06 122.00Q148.73 122.83 148.72 123.72Q148.44 123.89 148.43 124.22Q148.34 124.60 148.32 125.00Q148.25 125.51 147.89 125.89Q147.78 126.25 147.43 126.39Q146.98 126.96 146.34 127.29Q146.12 127.62 146.22 128.00Q146.20 128.50 145.89 128.89Q145.04 130.03 143.96 130.96Q141.34 133.83 138.48 136.48Q138.46 136.89 138.15 137.17Z" transform="scale(2)"></path></clipPath><clipPath id="r5p-preview-entity-eye-0-highlight-clip"><path d="M 170.578 174.433 L 171.942 174.304 L 173.276 174.476 L 174.528 174.944 L 175.651 175.689 L 176.603 176.685 L 177.347 177.892 L 177.857 179.266 L 178.112 180.753 L 178.291 182.862 L 178.484 184.980 L 178.691 187.108 L 178.912 189.245 L 179.148 191.392 L 179.403 193.552 L 179.678 195.725 L 179.974 197.912 L 180.064 199.522 L 179.892 201.129 L 179.463 202.673 L 178.792 204.091 L 177.905 205.330 L 176.832 206.340 L 175.615 207.082 L 174.298 207.525 L 174.298 207.525 L 174.298 207.525 L 174.298 207.525 L 174.298 207.525 L 174.298 207.525 L 174.298 207.525 L 174.298 207.525 L 174.298 207.525 L 172.932 207.653 L 171.567 207.460 L 170.258 206.954 L 169.055 206.155 L 168.007 205.095 L 167.155 203.816 L 166.534 202.368 L 166.168 200.807 L 165.860 198.612 L 165.572 196.430 L 165.305 194.262 L 165.059 192.109 L 164.833 189.968 L 164.622 187.838 L 164.426 185.717 L 164.244 183.606 L 164.253 182.063 L 164.531 180.526 L 165.067 179.054 L 165.840 177.704 L 166.819 176.526 L 167.965 175.566 L 169.235 174.859 L 170.578 174.433 L 170.578 174.433 L 170.578 174.433 L 170.578 174.433 L 170.578 174.433 L 170.578 174.433 L 170.578 174.433 L 170.578 174.433 Z"></path></clipPath><clipPath id="r5p-preview-entity-eye-1-highlight-clip"><path d="M 214.416 172.968 L 215.865 173.301 L 217.212 173.920 L 218.405 174.802 L 219.400 175.914 L 220.159 177.213 L 220.654 178.650 L 220.867 180.171 L 220.789 181.717 L 220.489 183.844 L 220.204 185.980 L 219.933 188.127 L 219.678 190.283 L 219.442 192.453 L 219.228 194.637 L 219.034 196.835 L 218.860 199.046 L 218.600 200.628 L 218.063 202.115 L 217.269 203.449 L 216.247 204.578 L 215.033 205.458 L 213.674 206.053 L 212.220 206.340 L 210.726 206.308 L 210.726 206.308 L 210.726 206.308 L 210.726 206.308 L 210.726 206.308 L 210.726 206.308 L 210.726 206.308 L 210.726 206.308 L 210.726 206.308 L 209.252 205.958 L 207.853 205.304 L 206.585 204.372 L 205.499 203.199 L 204.637 201.831 L 204.035 200.323 L 203.717 198.731 L 203.695 197.119 L 203.881 194.916 L 204.088 192.727 L 204.314 190.551 L 204.560 188.388 L 204.821 186.234 L 205.095 184.091 L 205.384 181.956 L 205.687 179.831 L 206.057 178.323 L 206.705 176.911 L 207.607 175.649 L 208.726 174.584 L 210.019 173.758 L 211.436 173.201 L 212.921 172.934 L 214.416 172.968 L 214.416 172.968 L 214.416 172.968 L 214.416 172.968 L 214.416 172.968 L 214.416 172.968 L 214.416 172.968 L 214.416 172.968 Z"></path></clipPath></defs><g filter="url(#r5p-preview-entity-outline)"><g data-avatar-entity-part="spine-core" data-avatar-fragment-interaction-area="8136" data-avatar-fragment-interaction-ratio="1" data-avatar-fragment-raw-visible-area="8136" data-avatar-fragment-visible-area="8136"><g data-avatar-compiled-base-layer="spine-core"><path data-avatar-compiled-base="spine-core" d="M109.69 60.02Q109.72 60.49 110.04 60.83Q110.45 61.21 111.00 61.29Q111.49 61.45 112.00 61.43Q112.78 61.46 113.56 61.50Q115.78 61.85 118.00 62.15Q118.48 62.35 119.00 62.26Q120.00 62.24 121.00 62.26Q122.13 62.07 123.17 61.56C123.40 61.65 123.63 61.74 123.87 61.83Q123.68 62.41 123.81 63.00Q123.90 63.43 124.26 63.68Q124.93 64.12 125.67 64.43Q126.32 64.69 127.00 64.88Q129.00 65.45 131.00 66.00Q131.99 66.22 133.00 66.34Q134.03 66.47 135.06 66.56Q135.41 66.67 135.76 66.56Q136.08 66.51 136.26 66.25Q136.67 65.97 137.17 66.00C137.27 66.19 137.27 66.48 137.47 66.58C138.54 67.13 139.73 67.43 140.85 67.88C141.17 68.01 141.50 68.12 141.80 68.30C144.04 69.62 142.85 69.53 144.17 69.52Q143.58 69.56 143.00 69.60Q142.44 69.69 142.02 70.07Q141.64 70.33 141.52 70.77Q141.51 71.02 141.47 71.27Q141.47 71.42 141.47 71.56Q142.02 72.43 142.72 73.19Q142.89 73.53 143.22 73.73Q143.53 74.01 143.89 74.23Q144.97 75.04 146.16 75.70Q146.55 75.96 147.00 76.12Q147.60 76.41 148.26 76.56Q148.68 76.61 149.00 76.90Q149.43 77.03 149.84 76.84Q150.47 76.49 150.97 75.97Q151.35 75.70 151.47 75.25Q151.83 75.13 152.17 75.33C151.97 77.34 152.00 75.53 155.15 78.86C155.54 79.27 155.86 79.76 156.20 80.22C159.29 84.45 160.49 85.63 162.32 90.59C162.98 92.40 163.47 94.28 163.81 96.18C164.10 97.77 164.08 99.41 164.19 101.02C164.35 103.30 164.12 105.66 163.52 107.86C163.06 109.54 162.57 111.21 162.07 112.88C161.97 113.21 161.86 113.54 161.71 113.85C160.90 115.53 160.04 117.19 159.19 118.85C159.03 119.16 158.88 119.48 158.67 119.76C154.99 124.79 153.42 127.15 148.24 131.10C145.74 133.01 142.95 134.50 140.28 136.17C139.81 136.47 139.32 136.74 138.81 136.98C138.61 137.08 138.37 137.11 138.15 137.17Q138.46 136.89 138.48 136.48Q141.34 133.83 143.96 130.96Q145.04 130.03 145.89 128.89Q146.20 128.50 146.22 128.00Q146.12 127.62 146.34 127.29Q146.98 126.96 147.43 126.39Q147.78 126.25 147.89 125.89Q148.25 125.51 148.32 125.00Q148.34 124.60 148.43 124.22Q148.44 123.89 148.72 123.72Q148.73 122.83 149.06 122.00Q149.12 121.62 149.43 121.38Q149.77 121.23 149.87 120.88Q150.15 120.48 150.12 120.00Q149.95 119.50 150.10 119.00Q150.17 118.52 150.35 118.08Q150.39 117.77 150.63 117.58Q150.66 117.29 150.68 117.00Q150.54 116.50 150.65 116.00Q150.77 115.00 150.78 114.00Q150.80 112.50 150.73 111.00Q150.67 110.15 150.53 109.31Q149.97 107.14 149.34 104.98Q148.32 102.42 147.33 99.85Q146.74 98.93 146.18 98.00Q145.27 96.36 144.35 94.74Q142.30 92.24 140.39 89.64Q138.34 87.67 136.28 85.72Q135.49 85.04 134.70 84.35Q132.04 82.47 129.37 80.59Q128.12 79.98 126.89 79.31Q124.45 78.14 122.00 76.98Q121.60 76.79 121.19 76.62Q119.41 76.13 117.69 75.46Q115.14 74.97 112.60 74.48Q110.80 74.22 109.00 73.98Q108.00 73.83 107.00 73.77Q105.50 73.68 104.00 73.60Q103.00 73.55 102.00 73.59Q100.50 73.63 99.00 73.71Q96.50 74.02 94.00 74.34Q91.28 74.96 88.55 75.51Q87.80 75.86 87.00 76.04Q86.15 76.33 85.26 76.46Q84.18 77.02 83.00 77.35Q82.71 77.49 82.38 77.49Q80.42 78.46 78.49 79.50Q76.08 81.14 73.50 82.50Q73.07 83.10 72.43 83.47Q71.71 84.23 70.81 84.77Q69.26 86.25 67.63 87.63Q67.34 88.31 66.82 88.84Q66.42 89.43 65.93 89.96Q65.45 90.47 64.96 90.98Q64.69 91.37 64.24 91.48Q63.89 91.64 63.79 92.00Q63.59 92.26 63.55 92.58Q63.20 92.72 63.08 93.08Q62.58 93.59 62.21 94.21Q61.85 94.53 61.77 95.00Q61.61 95.28 61.56 95.60Q61.21 95.74 61.10 96.10Q60.73 96.48 60.65 97.00Q60.62 97.30 60.55 97.59Q60.20 97.73 60.09 98.09Q59.72 98.48 59.65 99.00Q59.60 99.78 59.54 100.55Q59.18 100.69 59.05 101.05Q58.68 101.46 58.60 102.00Q58.59 102.82 58.53 103.65Q58.26 103.83 58.15 104.15Q57.77 104.50 57.69 105.00Q57.54 105.49 57.58 106.00Q57.53 111.50 57.54 117.00Q57.64 117.56 58.02 117.98Q58.16 118.34 58.52 118.48Q58.55 119.24 58.54 120.00Q58.49 120.65 58.76 121.24C56.67 120.04 55.56 116.39 54.93 114.82C52.82 109.64 52.26 103.65 53.16 98.16C53.47 96.24 54.01 94.37 54.62 92.53C55.00 91.40 55.77 90.43 56.10 89.29C56.20 88.97 55.92 88.65 55.83 88.33Q56.64 87.80 57.58 87.56Q57.84 87.33 57.97 87.00Q59.22 84.83 60.73 82.83Q60.96 82.44 60.88 82.00Q60.75 81.41 60.94 80.83C61.94 80.34 61.21 80.80 62.01 80.01C63.84 78.18 65.66 76.33 67.56 74.56C68.98 73.24 68.56 74.45 68.83 73.00Q69.44 73.06 70.00 72.81Q70.32 72.60 70.70 72.56Q70.96 72.39 71.20 72.20Q71.55 71.91 72.00 71.92Q72.45 71.97 72.82 71.72Q73.20 71.53 73.32 71.13Q73.58 70.80 74.00 70.76Q74.37 70.81 74.69 70.62Q75.26 70.13 75.96 69.81Q76.32 69.69 76.46 69.33Q76.98 68.85 77.66 68.65Q77.80 68.27 78.16 68.09Q78.47 67.71 78.94 67.59Q79.33 67.30 79.46 66.84C79.72 66.92 79.97 67.15 80.23 67.09C82.27 66.60 82.58 66.33 83.83 65.52Q84.22 65.57 84.62 65.52Q84.78 65.23 85.12 65.15Q85.49 64.80 86.00 64.74Q86.99 64.92 88.00 64.81Q88.66 64.66 89.31 64.46Q90.53 64.03 91.74 63.58Q92.04 63.47 92.24 63.22Q92.57 62.93 93.00 62.94Q93.52 62.98 93.96 62.72Q94.48 62.35 95.00 62.00Q95.45 61.67 96.00 61.65Q96.50 61.61 97.00 61.56Q98.50 61.54 100.00 61.59Q100.78 61.59 101.56 61.51Q101.78 61.33 102.06 61.28Q102.48 60.98 103.00 60.97Q103.50 60.87 104.00 60.84Q106.42 60.64 108.85 60.59Q109.30 60.35 109.69 60.02ZM58.76 121.24Q59.09 121.51 59.51 121.48Q59.54 121.74 59.53 122.00Q59.49 122.65 59.76 123.24C59.42 122.52 58.84 122.05 58.76 121.24ZM59.76 123.24Q60.09 123.52 60.51 123.48Q60.53 123.83 60.51 124.17C60.22 123.52 60.43 123.86 59.76 123.24Z" fill="#d1c3b0" transform="scale(2)"></path></g><g data-avatar-compiled-surface-layer="spine-core" clip-path="url(#r5p-preview-compiled-owner-0)"><g transform="translate(6.979588262251751 2.708954068823668)"><defs><clipPath id="r5p-preview-entity-hedgehog-0"><path d="M 98.42 203.49 L 99.12 194.20 L 101.21 185.02 L 104.68 176.05 L 105.16 174.99 L 109.93 166.40 L 115.95 158.25 L 123.16 150.65 L 131.46 143.70 L 132.42 142.91 L 141.59 136.78 L 151.63 131.48 L 152.79 130.88 L 163.35 126.58 L 164.65 126.10 L 175.48 122.85 L 176.74 122.50 L 178.25 122.15 L 188.61 120.13 L 189.79 119.90 L 191.12 119.69 L 192.60 119.49 L 194.21 119.30 L 195.94 119.12 L 197.77 118.97 L 199.70 118.83 L 204.82 118.48 L 205.83 118.42 L 206.87 118.37 L 207.94 118.33 L 209.02 118.30 L 210.11 118.28 L 211.20 118.27 L 212.28 118.27 L 213.34 118.28 L 214.38 118.31 L 215.38 118.34 L 220.69 118.55 L 222.60 118.64 L 224.42 118.75 L 226.13 118.87 L 227.71 119.02 L 229.16 119.18 L 230.46 119.36 L 240.37 121.01 L 242.08 121.30 L 243.54 121.61 L 244.74 121.93 L 255.64 124.89 L 256.87 125.33 L 267.48 129.36 L 277.36 134.30 L 278.62 134.96 L 287.82 140.84 L 296.05 147.49 L 296.97 148.34 L 304.19 155.75 L 310.23 163.73 L 315.00 172.20 L 318.45 181.05 L 318.79 182.12 L 320.88 191.25 L 321.58 200.51 L 320.88 209.80 L 318.79 218.98 L 315.32 227.95 L 314.84 229.01 L 310.07 237.60 L 304.05 245.75 L 296.84 253.35 L 288.54 260.30 L 287.58 261.09 L 278.41 267.22 L 268.37 272.52 L 267.21 273.12 L 256.65 277.42 L 255.35 277.90 L 244.52 281.15 L 243.26 281.50 L 241.75 281.85 L 231.39 283.87 L 230.21 284.10 L 228.88 284.31 L 227.40 284.51 L 225.79 284.70 L 224.06 284.88 L 222.23 285.03 L 220.30 285.17 L 215.18 285.52 L 214.17 285.58 L 213.13 285.63 L 212.06 285.67 L 210.98 285.70 L 209.89 285.72 L 208.80 285.73 L 207.72 285.73 L 206.66 285.72 L 205.62 285.69 L 204.62 285.66 L 199.31 285.45 L 197.40 285.36 L 195.58 285.25 L 193.87 285.13 L 192.29 284.98 L 190.84 284.82 L 189.54 284.64 L 179.63 282.99 L 177.92 282.70 L 176.46 282.39 L 175.26 282.07 L 164.36 279.11 L 163.13 278.67 L 152.52 274.64 L 142.64 269.70 L 141.38 269.04 L 132.18 263.16 L 123.95 256.51 L 123.03 255.66 L 115.81 248.25 L 109.77 240.27 L 105.00 231.80 L 101.55 222.95 L 101.21 221.88 L 99.12 212.75 Z"></path></clipPath></defs><g clip-path="url(#r5p-preview-entity-hedgehog-0)"></g><g clip-path="url(#r5p-preview-entity-hedgehog-0)"></g></g></g></g><g data-avatar-entity-part="spine-0" data-avatar-fragment-interaction-area="236" data-avatar-fragment-interaction-ratio="1" data-avatar-fragment-raw-visible-area="236" data-avatar-fragment-visible-area="236"><g data-avatar-compiled-base-layer="spine-0"><path data-avatar-compiled-base="spine-0" d="M60.94 80.83Q60.75 81.41 60.88 82.00Q60.96 82.44 60.73 82.83Q59.22 84.83 57.97 87.00Q57.84 87.33 57.58 87.56Q56.64 87.80 55.83 88.33C54.79 87.16 55.64 87.91 54.57 87.33C53.80 86.91 53.05 86.44 52.28 86.01C51.92 85.81 51.57 85.60 51.18 85.45C50.50 85.18 49.78 85.01 49.10 84.75C48.21 84.40 47.94 83.50 47.21 82.88C46.85 82.58 46.43 82.31 45.97 82.23C45.33 82.11 44.67 82.33 44.02 82.27C43.94 82.26 43.92 82.06 44.00 82.04C48.11 81.40 53.04 81.71 57.00 81.61C60.20 81.52 59.26 81.92 60.94 80.83Z" fill="#d1c3b0" transform="scale(2)"></path></g><g data-avatar-compiled-surface-layer="spine-0" clip-path="url(#r5p-preview-compiled-owner-1)"><g transform="translate(-78.4462872175562 -29.24090799612883)"><defs><clipPath id="r5p-preview-entity-hedgehog-1"><path d="M 192.08 205.95 Q 164.36 193.46 194.72 191.83 L 194.99 191.82 L 198.37 191.76 L 201.74 191.71 L 205.12 191.68 L 208.50 191.65 L 211.87 191.63 L 215.24 191.62 L 218.61 191.61 L 221.98 191.61 L 225.35 191.61 L 228.72 191.62 L 232.09 191.64 L 235.45 191.65 L 238.82 191.68 L 242.19 191.71 L 245.55 191.74 L 248.91 191.77 L 252.28 191.81 L 255.64 191.85 L 259.00 191.90 L 259.19 191.94 L 259.36 192.12 L 259.50 192.44 L 259.61 192.90 L 259.69 193.49 L 259.73 194.21 L 259.75 195.06 L 259.74 196.03 L 259.69 197.10 L 259.62 198.28 L 259.51 199.55 L 259.37 200.90 L 259.21 202.33 L 259.02 203.82 L 258.80 205.36 L 258.56 206.94 L 258.29 208.55 L 258.01 210.18 L 257.71 211.80 L 257.39 213.42 L 257.06 215.01 L 256.72 216.57 L 256.37 218.09 L 256.01 219.54 L 255.65 220.93 L 255.30 222.24 L 254.94 223.46 L 254.59 224.58 L 254.25 225.60 L 253.92 226.50 L 253.60 227.28 L 253.29 227.93 L 253.01 228.45 L 252.74 228.83 L 252.50 229.08 L 252.28 229.18 L 252.09 229.14 L 248.93 227.96 L 245.78 226.79 L 242.63 225.61 L 239.48 224.42 L 236.33 223.24 L 233.18 222.05 L 230.03 220.85 L 226.89 219.65 L 223.74 218.45 L 220.59 217.24 L 217.45 216.02 L 214.31 214.81 L 211.16 213.58 L 208.02 212.35 L 204.88 211.11 L 201.74 209.86 L 198.61 208.61 L 195.47 207.35 L 192.34 206.07 Z"></path></clipPath></defs><g clip-path="url(#r5p-preview-entity-hedgehog-1)"></g><g clip-path="url(#r5p-preview-entity-hedgehog-1)"></g></g></g></g><g data-avatar-entity-part="spine-2" data-avatar-fragment-interaction-area="568" data-avatar-fragment-interaction-ratio="1" data-avatar-fragment-raw-visible-area="568" data-avatar-fragment-visible-area="568"><g data-avatar-compiled-base-layer="spine-2"><path data-avatar-compiled-base="spine-2" d="M79.46 66.84Q79.33 67.30 78.94 67.59Q78.47 67.71 78.16 68.09Q77.80 68.27 77.66 68.65Q76.98 68.85 76.46 69.33Q76.32 69.69 75.96 69.81Q75.26 70.13 74.69 70.62Q74.37 70.81 74.00 70.76Q73.58 70.80 73.32 71.13Q73.20 71.53 72.82 71.72Q72.45 71.97 72.00 71.92Q71.55 71.91 71.20 72.20Q70.96 72.39 70.70 72.56Q70.32 72.60 70.00 72.81Q69.44 73.06 68.83 73.00C68.74 72.82 68.68 72.61 68.54 72.46C67.29 71.06 65.94 69.73 64.68 68.34C63.88 67.45 63.17 66.50 62.36 65.63C61.01 64.16 58.72 62.13 57.45 60.58C56.81 59.79 56.14 59.00 55.74 58.07C55.62 57.81 55.71 57.28 55.99 57.25C56.65 57.19 57.25 57.64 57.86 57.89C58.41 58.11 58.92 58.43 59.46 58.66C59.61 58.73 59.79 58.72 59.94 58.77C60.21 58.86 60.48 58.98 60.74 59.09C61.76 59.52 62.78 59.94 63.80 60.39C64.48 60.69 65.14 61.06 65.84 61.34C67.03 61.81 68.25 62.20 69.44 62.65C70.23 62.94 71.00 63.25 71.77 63.57C74.34 64.64 76.90 65.75 79.46 66.84Z" fill="#d1c3b0" transform="scale(2)"></path></g><g data-avatar-compiled-surface-layer="spine-2" clip-path="url(#r5p-preview-compiled-owner-2)"><g transform="translate(-63.80805764625198 -62.533800059008776)"><defs><clipPath id="r5p-preview-entity-hedgehog-2"><path d="M 192.11 198.42 Q 171.85 175.75 200.27 186.56 L 200.46 186.63 L 203.56 187.95 L 206.66 189.27 L 209.75 190.61 L 212.84 191.95 L 215.93 193.29 L 219.01 194.64 L 222.09 196.00 L 225.16 197.36 L 228.23 198.73 L 231.30 200.10 L 234.36 201.47 L 237.43 202.85 L 240.49 204.24 L 243.55 205.62 L 246.60 207.01 L 249.65 208.40 L 252.71 209.80 L 255.76 211.20 L 258.80 212.60 L 258.97 212.76 L 259.05 213.05 L 259.05 213.45 L 258.96 213.96 L 258.79 214.58 L 258.55 215.31 L 258.22 216.13 L 257.81 217.05 L 257.34 218.05 L 256.79 219.13 L 256.18 220.28 L 255.50 221.49 L 254.77 222.75 L 253.99 224.05 L 253.17 225.39 L 252.30 226.74 L 251.41 228.11 L 250.49 229.48 L 249.55 230.84 L 248.60 232.18 L 247.65 233.49 L 246.70 234.76 L 245.76 235.98 L 244.85 237.14 L 243.95 238.23 L 243.09 239.25 L 242.27 240.19 L 241.49 241.03 L 240.76 241.78 L 240.09 242.42 L 239.48 242.95 L 238.93 243.38 L 238.46 243.69 L 238.06 243.88 L 237.74 243.95 L 237.49 243.90 L 235.09 241.55 L 232.69 239.20 L 230.29 236.85 L 227.89 234.49 L 225.50 232.13 L 223.11 229.76 L 220.72 227.40 L 218.33 225.02 L 215.95 222.65 L 213.57 220.27 L 211.19 217.89 L 208.81 215.50 L 206.44 213.11 L 204.07 210.71 L 201.71 208.30 L 201.62 208.22 L 199.27 205.81 L 196.92 203.40 L 194.57 200.98 L 192.23 198.55 Z"></path></clipPath></defs><g clip-path="url(#r5p-preview-entity-hedgehog-2)"></g><g clip-path="url(#r5p-preview-entity-hedgehog-2)"></g></g></g></g><g data-avatar-entity-part="spine-4" data-avatar-fragment-interaction-area="852" data-avatar-fragment-interaction-ratio="1" data-avatar-fragment-raw-visible-area="852" data-avatar-fragment-visible-area="852"><g data-avatar-compiled-base-layer="spine-4"><path data-avatar-compiled-base="spine-4" d="M96.67 60.83Q96.97 61.14 97.00 61.56Q96.50 61.61 96.00 61.65Q95.45 61.67 95.00 62.00Q94.48 62.35 93.96 62.72Q93.52 62.98 93.00 62.94Q92.57 62.93 92.24 63.22Q92.04 63.47 91.74 63.58Q90.53 64.03 89.31 64.46Q88.66 64.66 88.00 64.81Q86.99 64.92 86.00 64.74Q85.49 64.80 85.12 65.15Q84.78 65.23 84.62 65.52Q84.22 65.57 83.83 65.52C82.88 65.02 83.79 65.53 82.77 62.89C80.85 57.87 78.79 52.91 77.13 47.80C76.70 46.46 75.71 43.45 75.66 41.97C75.65 41.72 75.87 41.48 76.08 41.36C77.65 40.47 78.91 42.34 79.83 43.23C80.67 44.04 81.47 44.87 82.25 45.73C84.00 47.65 85.65 49.66 87.41 51.58C88.52 52.80 89.75 53.91 90.87 55.12C96.37 61.00 93.49 61.01 96.67 60.83Z" fill="#d1c3b0" transform="scale(2)"></path></g><g data-avatar-compiled-surface-layer="spine-4" clip-path="url(#r5p-preview-compiled-owner-3)"><g transform="translate(-37.83733538127267 -87.07491961718503)"><defs><clipPath id="r5p-preview-entity-hedgehog-3"><path d="M 195.08 191.27 Q 185.84 162.31 207.33 183.82 L 207.52 184.01 L 209.82 186.49 L 212.11 188.98 L 214.40 191.47 L 216.67 193.96 L 218.94 196.46 L 221.20 198.96 L 223.46 201.47 L 225.71 203.98 L 227.96 206.49 L 230.20 209.00 L 232.44 211.52 L 234.68 214.04 L 236.91 216.56 L 239.14 219.08 L 241.36 221.61 L 243.58 224.14 L 245.80 226.67 L 248.02 229.20 L 250.23 231.73 L 250.33 231.89 L 250.31 232.12 L 250.17 232.43 L 249.91 232.80 L 249.52 233.25 L 249.02 233.75 L 248.41 234.32 L 247.69 234.95 L 246.86 235.62 L 245.94 236.34 L 244.93 237.11 L 243.83 237.90 L 242.67 238.73 L 241.43 239.58 L 240.15 240.44 L 238.81 241.32 L 237.44 242.19 L 236.05 243.07 L 234.64 243.93 L 233.23 244.78 L 231.83 245.60 L 230.44 246.39 L 229.08 247.15 L 227.76 247.86 L 226.49 248.53 L 225.28 249.15 L 224.13 249.71 L 223.07 250.20 L 222.08 250.64 L 221.19 251.00 L 220.40 251.30 L 219.71 251.52 L 219.13 251.67 L 218.66 251.74 L 218.32 251.73 L 218.09 251.65 L 217.99 251.49 L 216.75 248.36 L 215.52 245.23 L 214.29 242.09 L 213.06 238.95 L 211.84 235.81 L 210.62 232.67 L 209.40 229.53 L 208.19 226.38 L 206.98 223.23 L 205.77 220.08 L 204.57 216.93 L 203.38 213.77 L 202.19 210.62 L 201.00 207.45 L 199.82 204.29 L 198.65 201.12 L 197.49 197.94 L 196.33 194.76 L 195.18 191.58 Z"></path></clipPath></defs><g clip-path="url(#r5p-preview-entity-hedgehog-3)"></g><g clip-path="url(#r5p-preview-entity-hedgehog-3)"></g></g></g></g><g data-avatar-entity-part="spine-6" data-avatar-fragment-interaction-area="964" data-avatar-fragment-interaction-ratio="1" data-avatar-fragment-raw-visible-area="964" data-avatar-fragment-visible-area="964"><g data-avatar-compiled-base-layer="spine-6"><path data-avatar-compiled-base="spine-6" d="M110.33 58.83Q110.02 59.43 109.69 60.02Q109.30 60.35 108.85 60.59Q106.42 60.64 104.00 60.84Q103.50 60.87 103.00 60.97Q102.48 60.98 102.06 61.28Q101.78 61.33 101.56 61.51Q100.78 61.59 100.00 61.59Q98.50 61.54 97.00 61.56Q96.97 61.14 96.67 60.83C97.51 58.85 97.07 60.13 97.29 56.03C97.58 50.87 97.71 45.31 98.18 40.07C98.34 38.39 98.51 36.71 98.73 35.03C98.81 34.38 98.75 33.66 99.10 33.09C99.21 32.91 100.92 33.04 100.97 33.04C101.17 33.07 101.44 33.01 101.55 33.17C101.78 33.53 102.90 36.85 103.00 37.17C103.53 38.82 103.96 40.50 104.53 42.14C105.25 44.19 106.13 46.18 106.86 48.22C107.38 49.66 107.83 51.11 108.29 52.57C110.22 58.71 109.07 56.40 110.33 58.83Z" fill="#d1c3b0" transform="scale(2)"></path></g><g data-avatar-compiled-surface-layer="spine-6" clip-path="url(#r5p-preview-compiled-owner-4)"><g transform="translate(-4.886890663553476 -98.75110209240066)"><defs><clipPath id="r5p-preview-entity-hedgehog-4"><path d="M 200.71 185.88 Q 203.95 155.66 214.84 184.04 L 215.02 184.49 L 216.12 187.71 L 217.21 190.93 L 218.29 194.16 L 219.36 197.38 L 220.43 200.61 L 221.49 203.83 L 222.54 207.06 L 223.59 210.29 L 224.63 213.52 L 225.66 216.75 L 226.69 219.98 L 227.72 223.21 L 228.74 226.44 L 229.76 229.67 L 230.77 232.90 L 231.78 236.14 L 232.79 239.37 L 233.79 242.60 L 234.79 245.84 L 234.80 245.92 L 234.66 246.02 L 234.38 246.14 L 233.97 246.28 L 233.41 246.43 L 232.72 246.59 L 231.91 246.77 L 230.98 246.97 L 229.93 247.17 L 228.78 247.38 L 227.52 247.60 L 226.19 247.82 L 224.77 248.05 L 223.29 248.28 L 221.75 248.51 L 220.17 248.74 L 218.56 248.97 L 216.93 249.19 L 215.29 249.40 L 213.66 249.61 L 212.05 249.81 L 210.47 249.99 L 208.93 250.17 L 207.44 250.33 L 206.02 250.47 L 204.68 250.60 L 203.42 250.71 L 202.26 250.81 L 201.20 250.88 L 200.26 250.94 L 199.43 250.97 L 198.73 250.99 L 198.17 250.98 L 197.74 250.96 L 197.45 250.91 L 197.30 250.85 L 197.30 250.77 L 197.43 247.38 L 197.57 244.00 L 197.71 240.61 L 197.86 237.23 L 198.01 233.84 L 198.16 230.46 L 198.32 227.07 L 198.49 223.68 L 198.65 220.30 L 198.82 216.91 L 199.00 213.52 L 199.18 210.13 L 199.37 206.74 L 199.57 203.35 L 199.77 199.96 L 199.98 196.56 L 200.20 193.17 L 200.42 189.77 L 200.66 186.38 Z"></path></clipPath></defs><g clip-path="url(#r5p-preview-entity-hedgehog-4)"></g><g clip-path="url(#r5p-preview-entity-hedgehog-4)"></g></g></g></g><g data-avatar-entity-part="spine-8" data-avatar-fragment-interaction-area="940" data-avatar-fragment-interaction-ratio="1" data-avatar-fragment-raw-visible-area="940" data-avatar-fragment-visible-area="940"><g data-avatar-compiled-base-layer="spine-8"><path data-avatar-compiled-base="spine-8" d="M123.17 61.56Q122.13 62.07 121.00 62.26Q120.00 62.24 119.00 62.26Q118.48 62.35 118.00 62.15Q115.78 61.85 113.56 61.50Q112.78 61.46 112.00 61.43Q111.49 61.45 111.00 61.29Q110.45 61.21 110.04 60.83Q109.72 60.49 109.69 60.02Q110.02 59.43 110.33 58.83C111.26 58.07 112.15 55.64 112.37 55.19C113.03 53.86 113.64 52.50 114.29 51.16C116.11 47.43 117.72 44.32 119.70 40.62C120.30 39.51 120.86 38.38 121.53 37.31C121.67 37.09 121.91 36.94 122.12 36.79C122.25 36.70 122.48 36.74 122.55 36.61C122.76 36.20 122.70 35.70 122.90 35.29C123.27 34.53 123.74 33.82 124.26 33.15C124.30 33.09 124.39 33.23 124.43 33.30C125.15 34.59 125.52 34.81 125.52 35.96C125.51 39.49 125.27 37.70 124.88 42.92C124.67 45.77 124.76 48.65 124.49 51.50C124.25 53.97 123.89 56.42 123.64 58.89C123.55 59.79 124.32 61.30 123.17 61.56Z" fill="#d1c3b0" transform="scale(2)"></path></g><g data-avatar-compiled-surface-layer="spine-8" clip-path="url(#r5p-preview-compiled-owner-5)"><g transform="translate(28.36210037342338 -96.37963120872006)"><defs><clipPath id="r5p-preview-entity-hedgehog-5"><path d="M 207.91 183.49 Q 222.95 157.07 221.62 187.44 L 221.59 187.97 L 221.32 191.36 L 221.03 194.76 L 220.74 198.15 L 220.44 201.54 L 220.13 204.92 L 219.81 208.31 L 219.49 211.69 L 219.16 215.07 L 218.82 218.45 L 218.49 221.83 L 218.14 225.21 L 217.79 228.59 L 217.44 231.96 L 217.09 235.33 L 216.73 238.71 L 216.36 242.08 L 216.00 245.45 L 215.63 248.82 L 215.25 252.19 L 215.17 252.23 L 214.95 252.24 L 214.59 252.21 L 214.10 252.13 L 213.48 252.02 L 212.73 251.87 L 211.87 251.68 L 210.89 251.45 L 209.81 251.19 L 208.63 250.90 L 207.36 250.58 L 206.02 250.23 L 204.60 249.85 L 203.13 249.45 L 201.61 249.03 L 200.06 248.60 L 198.48 248.16 L 196.89 247.70 L 195.31 247.24 L 193.74 246.78 L 192.19 246.31 L 190.68 245.86 L 189.22 245.41 L 187.81 244.97 L 186.48 244.55 L 185.23 244.14 L 184.07 243.76 L 183.01 243.40 L 182.05 243.06 L 181.21 242.76 L 180.49 242.49 L 179.89 242.25 L 179.43 242.05 L 179.10 241.89 L 178.91 241.76 L 178.85 241.67 L 180.33 238.62 L 181.81 235.57 L 183.29 232.52 L 184.78 229.48 L 186.27 226.43 L 187.76 223.39 L 189.26 220.34 L 190.76 217.30 L 192.27 214.26 L 193.78 211.22 L 195.29 208.18 L 196.81 205.14 L 198.34 202.11 L 199.87 199.08 L 201.41 196.04 L 202.96 193.01 L 204.52 189.99 L 206.08 186.96 L 207.66 183.94 Z"></path></clipPath></defs><g clip-path="url(#r5p-preview-entity-hedgehog-5)"></g><g clip-path="url(#r5p-preview-entity-hedgehog-5)"></g></g></g></g><g data-avatar-entity-part="spine-10" data-avatar-fragment-interaction-area="720" data-avatar-fragment-interaction-ratio="1" data-avatar-fragment-raw-visible-area="720" data-avatar-fragment-visible-area="720"><g data-avatar-compiled-base-layer="spine-10"><path data-avatar-compiled-base="spine-10" d="M145.03 46.66C145.13 46.19 145.01 46.49 145.93 46.31C145.92 46.52 146.09 46.87 145.89 46.95C145.61 47.06 145.32 46.76 145.03 46.66ZM137.17 66.00Q136.67 65.97 136.26 66.25Q136.08 66.51 135.76 66.56Q135.41 66.67 135.06 66.56Q134.03 66.47 133.00 66.34Q131.99 66.22 131.00 66.00Q129.00 65.45 127.00 64.88Q126.32 64.69 125.67 64.43Q124.93 64.12 124.26 63.68Q123.90 63.43 123.81 63.00Q123.68 62.41 123.87 61.83C127.05 61.42 124.36 61.92 130.17 57.21C133.17 54.77 135.48 53.00 138.66 50.72C139.11 50.40 139.64 50.19 140.06 49.83C140.24 49.68 140.25 49.40 140.40 49.23C140.59 49.03 140.82 48.86 141.07 48.75C141.40 48.60 141.80 48.64 142.12 48.47C142.45 48.30 142.72 48.03 142.96 47.76C143.12 47.59 143.13 47.32 143.30 47.17C143.37 47.11 143.51 47.16 143.56 47.23C144.02 47.83 144.44 48.47 144.81 49.13C145.11 49.68 144.56 50.47 144.44 50.87C144.33 51.21 144.33 51.59 144.19 51.92C143.96 52.44 143.59 52.89 143.33 53.40C143.10 53.86 142.96 54.38 142.71 54.84C141.46 57.17 140.08 59.44 138.82 61.77C138.66 62.07 138.60 62.40 138.45 62.70C137.04 65.67 137.10 64.29 137.17 66.00Z" fill="#d1c3b0" transform="scale(2)"></path></g><g data-avatar-compiled-surface-layer="spine-10" clip-path="url(#r5p-preview-compiled-owner-6)"><g transform="translate(57.10386739584678 -79.84550347598956)"><defs><clipPath id="r5p-preview-entity-hedgehog-6"><path d="M 215.06 184.50 Q 239.39 166.27 226.19 193.66 L 226.09 193.87 L 224.51 196.85 L 222.92 199.83 L 221.33 202.80 L 219.73 205.77 L 218.13 208.73 L 216.52 211.68 L 214.90 214.64 L 213.28 217.58 L 211.66 220.53 L 210.03 223.47 L 208.39 226.41 L 206.76 229.34 L 205.12 232.28 L 203.48 235.21 L 201.83 238.13 L 200.18 241.06 L 198.53 243.98 L 196.88 246.90 L 195.22 249.82 L 195.00 249.95 L 194.67 249.98 L 194.23 249.92 L 193.69 249.77 L 193.05 249.52 L 192.31 249.19 L 191.49 248.77 L 190.58 248.26 L 189.60 247.67 L 188.55 247.01 L 187.43 246.28 L 186.27 245.48 L 185.06 244.63 L 183.82 243.72 L 182.56 242.77 L 181.28 241.77 L 179.99 240.75 L 178.71 239.70 L 177.44 238.64 L 176.20 237.57 L 174.99 236.51 L 173.83 235.45 L 172.72 234.41 L 171.66 233.39 L 170.68 232.41 L 169.77 231.47 L 168.94 230.58 L 168.20 229.74 L 167.56 228.96 L 167.01 228.25 L 166.57 227.61 L 166.24 227.04 L 166.01 226.56 L 165.90 226.17 L 165.89 225.86 L 166.00 225.64 L 168.55 223.45 L 171.09 221.27 L 173.64 219.09 L 176.19 216.91 L 178.74 214.73 L 181.30 212.56 L 183.85 210.39 L 186.42 208.22 L 188.98 206.05 L 191.55 203.89 L 194.13 201.73 L 196.70 199.57 L 199.29 197.42 L 201.87 195.27 L 204.47 193.13 L 207.07 190.99 L 209.67 188.86 L 212.28 186.73 L 214.90 184.61 Z"></path></clipPath></defs><g clip-path="url(#r5p-preview-entity-hedgehog-6)"></g><g clip-path="url(#r5p-preview-entity-hedgehog-6)"></g></g></g></g><g data-avatar-entity-part="spine-12" data-avatar-fragment-interaction-area="400" data-avatar-fragment-interaction-ratio="1" data-avatar-fragment-raw-visible-area="400" data-avatar-fragment-visible-area="400"><g data-avatar-compiled-base-layer="spine-12"><path data-avatar-compiled-base="spine-12" d="M160.99 65.86C161.02 65.74 160.96 65.54 161.08 65.49C161.51 65.33 161.71 65.55 161.96 65.75C161.64 65.79 161.31 65.83 160.99 65.86ZM152.17 75.33Q151.83 75.13 151.47 75.25Q151.35 75.70 150.97 75.97Q150.47 76.49 149.84 76.84Q149.43 77.03 149.00 76.90Q148.68 76.61 148.26 76.56Q147.60 76.41 147.00 76.12Q146.55 75.96 146.16 75.70Q144.97 75.04 143.89 74.23Q143.53 74.01 143.22 73.73Q142.89 73.53 142.72 73.19Q142.02 72.43 141.47 71.56Q141.47 71.42 141.47 71.27Q141.51 71.02 141.52 70.77Q141.64 70.33 142.02 70.07Q142.44 69.69 143.00 69.60Q143.58 69.56 144.17 69.52C147.57 70.15 150.73 67.80 154.03 67.28C154.36 67.23 154.70 67.30 155.03 67.24C155.63 67.13 156.14 66.68 156.77 66.93C157.54 67.24 158.29 67.61 159.02 68.01C159.38 68.20 158.92 68.53 158.79 68.64C158.59 68.80 158.33 68.88 158.13 69.04C157.10 69.85 157.83 69.39 157.11 70.24C157.01 70.36 156.84 70.40 156.76 70.52C156.59 70.77 156.58 71.13 156.36 71.34C155.18 72.47 153.79 73.36 152.60 74.49C152.37 74.71 152.31 75.05 152.17 75.33Z" fill="#d1c3b0" transform="scale(2)"></path></g><g data-avatar-compiled-surface-layer="spine-12" clip-path="url(#r5p-preview-compiled-owner-7)"><g transform="translate(76.91292910445142 -51.65811029259512)"><defs><clipPath id="r5p-preview-entity-hedgehog-7"><path d="M 220.77 188.39 Q 250.38 181.48 227.35 201.33 L 225.25 203.13 L 222.68 205.18 L 220.10 207.23 L 217.52 209.26 L 214.94 211.29 L 212.35 213.32 L 209.76 215.34 L 207.17 217.35 L 204.58 219.36 L 201.98 221.36 L 199.38 223.36 L 196.77 225.35 L 194.17 227.35 L 191.56 229.33 L 188.96 231.32 L 186.35 233.30 L 183.73 235.27 L 181.12 237.25 L 178.50 239.22 L 178.18 239.45 L 177.78 239.55 L 177.33 239.53 L 176.82 239.37 L 176.25 239.08 L 175.63 238.67 L 174.96 238.14 L 174.26 237.48 L 173.52 236.72 L 172.75 235.84 L 171.95 234.86 L 171.14 233.79 L 170.32 232.64 L 169.49 231.40 L 168.66 230.10 L 167.84 228.74 L 167.04 227.34 L 166.25 225.89 L 165.49 224.42 L 164.76 222.94 L 164.07 221.45 L 163.41 219.98 L 162.81 218.52 L 162.26 217.09 L 161.77 215.70 L 161.33 214.36 L 160.96 213.09 L 160.65 211.89 L 160.41 210.77 L 160.24 209.74 L 160.15 208.80 L 160.12 207.97 L 160.17 207.25 L 160.29 206.65 L 160.48 206.17 L 160.74 205.81 L 161.07 205.58 L 164.21 204.63 L 167.36 203.68 L 170.50 202.73 L 173.65 201.79 L 176.80 200.85 L 179.95 199.91 L 183.11 198.98 L 186.26 198.05 L 189.42 197.13 L 192.58 196.21 L 195.74 195.29 L 198.90 194.38 L 202.07 193.48 L 205.24 192.58 L 208.41 191.69 L 211.59 190.80 L 214.77 189.92 L 217.96 189.05 Z"></path></clipPath></defs><g clip-path="url(#r5p-preview-entity-hedgehog-7)"></g><g clip-path="url(#r5p-preview-entity-hedgehog-7)"></g></g></g></g><g data-avatar-entity-part="ear-left" data-avatar-fragment-interaction-area="0" data-avatar-fragment-interaction-ratio="0" data-avatar-fragment-raw-visible-area="0" data-avatar-fragment-visible-area="0"><g data-avatar-compiled-hidden-part="ear-left" transform="translate(-57.30097941512559 -33.05724635830088)"></g></g><g data-avatar-entity-part="ear-right" data-avatar-fragment-interaction-area="0" data-avatar-fragment-interaction-ratio="0" data-avatar-fragment-raw-visible-area="0" data-avatar-fragment-visible-area="0"><g data-avatar-compiled-hidden-part="ear-right" transform="translate(60.68502220894462 -37.00001628172685)"></g></g><g data-avatar-entity-part="primary" data-avatar-fragment-interaction-area="21972" data-avatar-fragment-interaction-ratio="1" data-avatar-fragment-raw-visible-area="21972" data-avatar-fragment-visible-area="21972"><g data-avatar-compiled-base-layer="primary"><path data-avatar-compiled-base="primary" d="M138.15 137.17C137.88 137.20 137.56 137.12 137.32 137.26C136.70 137.59 136.19 138.09 135.64 138.53C134.69 139.27 133.78 140.05 132.83 140.79C132.66 140.92 132.48 141.04 132.30 141.15C131.14 141.83 129.95 142.47 128.80 143.17C127.77 143.80 126.81 144.55 125.77 145.15C124.09 146.12 122.20 146.52 120.39 147.16C119.82 147.36 119.29 147.66 118.72 147.84C117.98 148.08 117.20 148.13 116.48 148.40C115.23 148.87 114.07 149.53 112.84 150.05C112.25 150.31 109.95 150.79 109.84 150.82C109.48 150.92 109.14 151.07 108.80 151.23C108.68 151.29 108.61 151.46 108.48 151.47C106.98 151.61 105.47 151.73 103.97 151.66C103.50 151.64 103.09 151.26 102.61 151.21C102.60 151.21 99.95 151.41 99.18 151.11C97.51 150.45 95.90 149.61 94.21 148.99C93.21 148.62 92.15 148.48 91.14 148.14C89.13 147.47 87.16 146.73 85.19 145.97C84.88 145.85 84.59 145.67 84.30 145.50C82.03 144.17 79.69 142.95 77.53 141.45C73.53 138.70 69.53 135.37 66.27 131.72C65.02 130.32 63.89 128.80 62.81 127.26C62.26 126.48 61.96 125.55 61.39 124.78C61.18 124.50 60.80 124.37 60.51 124.17Q60.53 123.83 60.51 123.48Q60.09 123.52 59.76 123.24Q59.49 122.65 59.53 122.00Q59.54 121.74 59.51 121.48Q59.09 121.51 58.76 121.24Q58.49 120.65 58.54 120.00Q58.55 119.24 58.52 118.48Q58.16 118.34 58.02 117.98Q57.64 117.56 57.54 117.00Q57.53 111.50 57.58 106.00Q57.54 105.49 57.69 105.00Q57.77 104.50 58.15 104.15Q58.26 103.83 58.53 103.65Q58.59 102.82 58.60 102.00Q58.68 101.46 59.05 101.05Q59.18 100.69 59.54 100.55Q59.60 99.78 59.65 99.00Q59.72 98.48 60.09 98.09Q60.20 97.73 60.55 97.59Q60.62 97.30 60.65 97.00Q60.73 96.48 61.10 96.10Q61.21 95.74 61.56 95.60Q61.61 95.28 61.77 95.00Q61.85 94.53 62.21 94.21Q62.58 93.59 63.08 93.08Q63.20 92.72 63.55 92.58Q63.59 92.26 63.79 92.00Q63.89 91.64 64.24 91.48Q64.69 91.37 64.96 90.98Q65.45 90.47 65.93 89.96Q66.42 89.43 66.82 88.84Q67.34 88.31 67.63 87.63Q69.26 86.25 70.81 84.77Q71.71 84.23 72.43 83.47Q73.07 83.10 73.50 82.50Q76.08 81.14 78.49 79.50Q79.51 79.12 80.40 78.48Q81.46 78.13 82.38 77.49Q82.71 77.49 83.00 77.35Q84.18 77.02 85.26 76.46Q86.15 76.33 87.00 76.04Q87.80 75.86 88.55 75.51Q90.95 75.04 93.33 74.46Q96.16 74.03 99.00 73.71Q100.50 73.63 102.00 73.59Q103.00 73.55 104.00 73.60Q106.00 73.70 108.00 73.85Q110.30 74.14 112.60 74.48Q115.14 74.97 117.69 75.46Q119.41 76.13 121.19 76.62Q121.60 76.79 122.00 76.98Q124.45 78.14 126.89 79.31Q128.12 79.98 129.37 80.59Q132.04 82.47 134.70 84.35Q135.49 85.04 136.28 85.72Q137.55 86.95 138.85 88.16Q139.61 88.91 140.39 89.64Q140.57 89.90 140.79 90.14Q141.49 91.02 142.13 91.94Q143.23 93.35 144.35 94.74Q145.27 96.36 146.18 98.00Q146.74 98.93 147.33 99.85Q147.45 100.10 147.56 100.35Q148.56 102.90 149.51 105.48Q149.94 107.15 150.41 108.81Q150.57 109.40 150.63 110.00Q150.73 110.50 150.73 111.00Q150.78 112.00 150.78 113.00Q150.80 114.00 150.74 115.00Q150.71 115.50 150.65 116.00Q150.54 116.50 150.68 117.00Q150.66 117.29 150.63 117.58Q150.39 117.77 150.35 118.08Q150.17 118.52 150.10 119.00Q149.95 119.50 150.12 120.00Q150.15 120.48 149.87 120.88Q149.77 121.23 149.43 121.38Q149.12 121.62 149.06 122.00Q148.73 122.83 148.72 123.72Q148.44 123.89 148.43 124.22Q148.34 124.60 148.32 125.00Q148.25 125.51 147.89 125.89Q147.78 126.25 147.43 126.39Q146.98 126.96 146.34 127.29Q146.12 127.62 146.22 128.00Q146.20 128.50 145.89 128.89Q145.04 130.03 143.96 130.96Q141.34 133.83 138.48 136.48Q138.46 136.89 138.15 137.17Z" fill="#eee1d5" transform="scale(2)"></path></g><g data-avatar-compiled-surface-layer="primary" clip-path="url(#r5p-preview-compiled-owner-10)"><g transform="translate(0 20.764192636656887)"><defs><clipPath id="r5p-preview-entity-hedgehog-10"><path d="M 115.20 202.94 L 115.79 194.09 L 115.99 193.00 L 117.76 184.27 L 120.70 175.77 L 124.76 167.59 L 129.89 159.85 L 130.67 158.92 L 136.75 151.78 L 143.75 145.28 L 151.58 139.48 L 152.60 138.80 L 161.02 133.89 L 162.26 133.32 L 171.07 129.38 L 172.37 128.92 L 181.36 126.00 L 182.57 125.66 L 183.99 125.34 L 192.48 123.59 L 193.57 123.38 L 194.79 123.19 L 196.12 123.01 L 197.56 122.85 L 199.09 122.70 L 200.70 122.57 L 202.39 122.46 L 206.17 122.25 L 207.05 122.21 L 207.95 122.17 L 208.86 122.15 L 209.79 122.13 L 210.71 122.13 L 211.64 122.14 L 212.54 122.15 L 213.43 122.18 L 216.82 122.32 L 218.54 122.40 L 220.18 122.49 L 221.76 122.61 L 223.24 122.74 L 224.62 122.90 L 225.89 123.06 L 227.04 123.25 L 235.29 124.84 L 236.81 125.13 L 238.11 125.44 L 239.21 125.76 L 248.37 128.61 L 249.52 129.06 L 258.46 132.93 L 259.50 133.49 L 268.01 138.33 L 275.79 143.97 L 276.67 144.74 L 283.71 151.19 L 289.83 158.27 L 294.94 165.91 L 298.99 174.01 L 299.48 175.04 L 302.43 183.52 L 304.21 192.23 L 304.80 201.06 L 303.94 209.91 L 303.75 211.00 L 301.22 219.73 L 297.12 228.23 L 291.66 236.40 L 290.87 237.35 L 284.32 245.01 L 276.90 252.13 L 268.86 258.62 L 260.45 264.41 L 259.57 265.00 L 251.14 269.91 L 242.71 273.97 L 241.88 274.35 L 233.74 277.43 L 232.95 277.71 L 231.97 277.98 L 224.56 279.94 L 223.80 280.11 L 222.94 280.27 L 221.99 280.42 L 220.94 280.56 L 215.45 281.25 L 214.88 281.31 L 214.28 281.37 L 213.65 281.42 L 212.99 281.46 L 212.30 281.50 L 211.60 281.53 L 210.89 281.55 L 210.16 281.56 L 209.44 281.56 L 208.73 281.55 L 208.02 281.54 L 207.32 281.52 L 206.65 281.49 L 206.00 281.45 L 205.39 281.41 L 204.81 281.35 L 204.26 281.29 L 198.48 280.65 L 197.48 280.52 L 196.57 280.38 L 195.77 280.22 L 195.08 280.06 L 187.48 278.16 L 186.60 277.90 L 178.58 274.98 L 177.64 274.61 L 169.29 270.71 L 168.42 270.24 L 159.91 265.40 L 151.56 259.78 L 143.57 253.45 L 142.69 252.68 L 135.21 245.62 L 128.63 238.01 L 123.18 229.95 L 119.10 221.53 L 118.59 220.47 L 116.06 211.77 Z"></path></clipPath></defs><g clip-path="url(#r5p-preview-entity-hedgehog-10)"></g><g clip-path="url(#r5p-preview-entity-hedgehog-10)"><path data-avatar-surface-decal="hedgehog-face-mask" d="M 191.663 181.382 L 197.197 181.808 L 202.558 183.438 L 207.546 186.217 L 211.983 190.045 L 215.730 194.796 L 218.681 200.313 L 220.746 206.401 L 221.862 212.836 L 221.880 213.015 L 221.897 213.194 L 221.915 213.373 L 221.932 213.552 L 221.950 213.731 L 221.968 213.910 L 221.986 214.089 L 222.004 214.269 L 222.170 220.831 L 221.329 227.235 L 219.494 233.221 L 216.706 238.540 L 213.046 242.970 L 208.634 246.327 L 203.626 248.473 L 198.210 249.322 L 198.210 249.322 L 198.210 249.322 L 198.210 249.322 L 198.210 249.322 L 198.210 249.322 L 198.210 249.322 L 198.210 249.322 L 198.210 249.322 L 192.593 248.841 L 186.992 247.050 L 181.628 244.020 L 176.718 239.876 L 172.473 234.792 L 169.083 228.981 L 166.705 222.684 L 165.452 216.159 L 165.434 215.979 L 165.416 215.800 L 165.398 215.621 L 165.381 215.442 L 165.363 215.262 L 165.345 215.083 L 165.328 214.905 L 165.311 214.726 L 165.281 208.255 L 166.434 202.059 L 168.709 196.367 L 171.995 191.381 L 176.128 187.267 L 180.916 184.162 L 186.164 182.176 L 191.663 181.382 L 191.663 181.382 L 191.663 181.382 L 191.663 181.382 L 191.663 181.382 L 191.663 181.382 L 191.663 181.382 L 191.663 181.382 Z" fill="#fff7ed" fill-opacity="1"></path><g data-avatar-face-surface-layer="primary"><path data-avatar-face-feature="eye-0" d="M 170.578 174.433 L 171.942 174.304 L 173.276 174.476 L 174.528 174.944 L 175.651 175.689 L 176.603 176.685 L 177.347 177.892 L 177.857 179.266 L 178.112 180.753 L 178.291 182.862 L 178.484 184.980 L 178.691 187.108 L 178.912 189.245 L 179.148 191.392 L 179.403 193.552 L 179.678 195.725 L 179.974 197.912 L 180.064 199.522 L 179.892 201.129 L 179.463 202.673 L 178.792 204.091 L 177.905 205.330 L 176.832 206.340 L 175.615 207.082 L 174.298 207.525 L 174.298 207.525 L 174.298 207.525 L 174.298 207.525 L 174.298 207.525 L 174.298 207.525 L 174.298 207.525 L 174.298 207.525 L 174.298 207.525 L 172.932 207.653 L 171.567 207.460 L 170.258 206.954 L 169.055 206.155 L 168.007 205.095 L 167.155 203.816 L 166.534 202.368 L 166.168 200.807 L 165.860 198.612 L 165.572 196.430 L 165.305 194.262 L 165.059 192.109 L 164.833 189.968 L 164.622 187.838 L 164.426 185.717 L 164.244 183.606 L 164.253 182.063 L 164.531 180.526 L 165.067 179.054 L 165.840 177.704 L 166.819 176.526 L 167.965 175.566 L 169.235 174.859 L 170.578 174.433 L 170.578 174.433 L 170.578 174.433 L 170.578 174.433 L 170.578 174.433 L 170.578 174.433 L 170.578 174.433 L 170.578 174.433 Z" fill="#87564f"></path><path data-avatar-face-feature="eye-1" d="M 214.416 172.968 L 215.865 173.301 L 217.212 173.920 L 218.405 174.802 L 219.400 175.914 L 220.159 177.213 L 220.654 178.650 L 220.867 180.171 L 220.789 181.717 L 220.489 183.844 L 220.204 185.980 L 219.933 188.127 L 219.678 190.283 L 219.442 192.453 L 219.228 194.637 L 219.034 196.835 L 218.860 199.046 L 218.600 200.628 L 218.063 202.115 L 217.269 203.449 L 216.247 204.578 L 215.033 205.458 L 213.674 206.053 L 212.220 206.340 L 210.726 206.308 L 210.726 206.308 L 210.726 206.308 L 210.726 206.308 L 210.726 206.308 L 210.726 206.308 L 210.726 206.308 L 210.726 206.308 L 210.726 206.308 L 209.252 205.958 L 207.853 205.304 L 206.585 204.372 L 205.499 203.199 L 204.637 201.831 L 204.035 200.323 L 203.717 198.731 L 203.695 197.119 L 203.881 194.916 L 204.088 192.727 L 204.314 190.551 L 204.560 188.388 L 204.821 186.234 L 205.095 184.091 L 205.384 181.956 L 205.687 179.831 L 206.057 178.323 L 206.705 176.911 L 207.607 175.649 L 208.726 174.584 L 210.019 173.758 L 211.436 173.201 L 212.921 172.934 L 214.416 172.968 L 214.416 172.968 L 214.416 172.968 L 214.416 172.968 L 214.416 172.968 L 214.416 172.968 L 214.416 172.968 L 214.416 172.968 Z" fill="#87564f"></path><path data-avatar-face-feature="nose" d="M 187.939 211.213 L 188.234 210.526 L 188.912 209.975 L 189.881 209.564 L 191.050 209.297 L 192.327 209.179 L 193.619 209.211 L 194.832 209.398 L 195.873 209.742 L 196.647 210.245 L 197.060 210.908 L 197.030 211.535 L 196.855 212.185 L 196.563 212.841 L 196.183 213.483 L 195.743 214.093 L 195.268 214.650 L 194.787 215.136 L 194.326 215.530 L 193.912 215.813 L 193.572 215.966 L 193.492 216.119 L 193.387 216.238 L 193.263 216.326 L 193.123 216.380 L 192.976 216.402 L 192.824 216.390 L 192.675 216.345 L 192.534 216.267 L 192.405 216.155 L 192.295 216.009 L 191.928 215.880 L 191.463 215.626 L 190.931 215.265 L 190.363 214.814 L 189.791 214.292 L 189.245 213.715 L 188.757 213.102 L 188.357 212.469 L 188.074 211.834 L 187.939 211.213 Z" fill="#87564f"></path></g></g></g></g></g></g></g></g></svg>
