<svg xmlns="http://www.w3.org/2000/svg" class="avatar-controls__entity-preset-icon" viewBox="0 0 420 420" aria-hidden="true"><rect width="420" height="420" rx="34" fill="#174f49"></rect><defs><filter id="r8f-preview-avatar-shadow" x="-100%" y="-100%" width="300%" height="300%"><feDropShadow dx="-6.772276228582241" dy="8.668118289673941" stdDeviation="9" flood-color="#7d2b29" flood-opacity="0.24"></feDropShadow></filter></defs><g filter="url(#r8f-preview-avatar-shadow)" transform="translate(-75 88) translate(210 210) rotate(11.459155902616464) scale(1.67) translate(-210 -210)"><g data-avatar-entity-fragment-root="true" data-avatar-entity-preset="parrot" data-avatar-fragment-composition="compiled-owner-partition" data-avatar-fragment-build-count="1" data-avatar-fragment-build-ms="0.000" data-avatar-fragment-compile-count="153" data-avatar-fragment-compile-ms="310.500" data-avatar-fragment-drag-build-max-ms="0.000" data-avatar-fragment-drag-build-mean-ms="0.000" data-avatar-fragment-drag-build-p95-ms="0.000" data-avatar-fragment-drag-build-samples="0" data-avatar-fragment-quality="full" data-avatar-fragment-raster-size="210" data-avatar-fragment-revision="{&quot;groups&quot;:[{&quot;id&quot;:&quot;anatomy-beak&quot;,&quot;primitiveIds&quot;:[&quot;beak&quot;],&quot;resolution&quot;:20},{&quot;id&quot;:&quot;anatomy-primary&quot;,&quot;primitiveIds&quot;:[&quot;primary&quot;],&quot;resolution&quot;:20}],&quot;id&quot;:&quot;production-parrot&quot;,&quot;primitives&quot;:[{&quot;id&quot;:&quot;beak&quot;,&quot;materialId&quot;:&quot;beak&quot;,&quot;position&quot;:{&quot;x&quot;:0,&quot;y&quot;:41.56,&quot;z&quot;:89.86074114984808},&quot;productionShape&quot;:&quot;cone&quot;,&quot;roundness&quot;:72,&quot;rotation&quot;:{&quot;x&quot;:0.29670597283903605,&quot;y&quot;:0,&quot;z&quot;:0},&quot;scale&quot;:{&quot;x&quot;:43.5348,&quot;y&quot;:24.186,&quot;z&quot;:31.644799999999996},&quot;shape&quot;:&quot;cone&quot;},{&quot;bottomTaper&quot;:10,&quot;id&quot;:&quot;primary&quot;,&quot;materialId&quot;:&quot;primary&quot;,&quot;position&quot;:{&quot;x&quot;:0,&quot;y&quot;:14,&quot;z&quot;:0},&quot;productionShape&quot;:&quot;ellipse&quot;,&quot;roundness&quot;:98,&quot;rotation&quot;:{&quot;x&quot;:0,&quot;y&quot;:0,&quot;z&quot;:0},&quot;scale&quot;:{&quot;x&quot;:113.46480000000001,&quot;y&quot;:100.06400000000001,&quot;z&quot;:96.88241766760366},&quot;shape&quot;:&quot;ellipse&quot;}],&quot;resolution&quot;:20,&quot;smoothUnionPairs&quot;:[],&quot;smoothUnionRadius&quot;:0}:210:0.310000:-0.130000" data-avatar-fragment-release-build-ms="0.000" data-avatar-fragment-settle-build-ms="0.000" data-avatar-fragment-path-characters="5658" data-avatar-fragment-path-serialization-ms="0.000" data-avatar-fragment-candidate-tests="46847" data-avatar-fragment-contour-ms="5.700" data-avatar-fragment-curve-segments="180" data-avatar-fragment-contour-segments="180" data-avatar-fragment-depth-owner-ms="1.100" data-avatar-fragment-line-segments="0" data-avatar-fragment-max-curve-error="0.124" data-avatar-fragment-shared-curve-reuse="65" data-avatar-fragment-null-owner-pixels="0" data-avatar-fragment-transform-ms="0.100"><defs><filter id="r8f-preview-entity-face-shadow" x="-50%" y="-50%" width="200%" height="200%"><feGaussianBlur stdDeviation="0"></feGaussianBlur></filter><filter id="r8f-preview-entity-outline" x="-30%" y="-30%" width="160%" height="160%"><feMorphology in="SourceAlpha" operator="dilate" radius="2" result="expanded"></feMorphology><feFlood flood-color="#2e2923" flood-opacity="0.85"></feFlood><feComposite in2="expanded" operator="in"></feComposite><feMerge><feMergeNode></feMergeNode><feMergeNode in="SourceGraphic"></feMergeNode></feMerge></filter><clipPath id="r8f-preview-compiled-owner-0" clipPathUnits="userSpaceOnUse"><path d="M100.04 128.96Q99.67 128.55 99.59 128.00Q99.60 127.23 99.53 126.47Q99.16 126.34 99.03 125.97Q98.87 125.50 99.03 125.03Q99.66 124.16 100.52 123.52Q100.56 123.26 100.55 123.00Q100.65 122.44 101.03 122.03Q101.16 121.66 101.53 121.53Q101.57 121.27 101.57 121.00Q101.66 120.45 102.04 120.04Q102.68 119.18 103.54 118.54Q103.59 118.27 103.62 118.00Q103.71 117.47 104.08 117.08Q105.21 115.71 106.56 114.56Q107.43 113.44 108.35 112.35Q110.29 110.77 112.42 109.45Q113.16 109.08 113.86 108.66Q114.92 108.25 116.00 107.90Q117.14 107.63 118.30 107.47Q118.65 107.43 119.00 107.44Q119.77 107.45 120.54 107.49Q121.28 107.63 122.00 107.83Q122.48 108.03 123.00 107.98Q123.38 107.96 123.63 108.24Q123.78 108.59 124.13 108.70Q124.53 108.96 125.00 108.90Q125.46 108.90 125.80 109.20Q126.06 109.38 126.30 109.59Q126.71 109.72 126.91 110.09Q128.04 110.95 128.95 112.05Q133.48 116.52 137.98 121.02Q138.37 121.44 138.47 122.00Q138.47 122.26 138.49 122.51Q139.35 123.15 139.99 124.01Q140.37 124.44 140.47 125.00Q140.47 126.00 140.47 127.00Q140.37 127.56 139.98 127.98Q139.56 128.37 139.00 128.46Q138.74 128.46 138.48 128.48Q138.34 128.84 137.98 128.98Q137.56 129.36 137.00 129.45Q136.73 129.44 136.47 129.48Q135.83 130.33 134.96 130.96Q134.55 131.33 134.00 131.41Q132.50 131.40 131.00 131.39Q130.69 131.36 130.39 131.44Q130.24 131.78 129.89 131.89Q129.50 132.22 129.00 132.26Q128.50 132.24 128.00 132.23Q127.00 132.09 126.00 131.90Q123.00 131.60 120.00 131.29Q117.50 131.15 115.00 131.02Q111.50 130.96 108.00 130.95Q107.50 130.98 107.00 130.97Q106.00 131.10 105.00 131.15Q104.54 131.12 104.21 130.79Q103.97 130.60 103.71 130.44Q102.86 130.35 102.00 130.38Q101.46 130.30 101.06 129.94Q100.55 129.45 100.04 128.96ZM101.48 125.48Q101.48 125.50 101.48 125.53Q101.74 125.54 102.00 125.55Q102.26 125.54 102.52 125.53Q102.52 125.50 102.52 125.48Q102.00 125.48 101.48 125.48Z" transform="scale(2)"></path></clipPath><clipPath id="r8f-preview-compiled-owner-1" clipPathUnits="userSpaceOnUse"><path d="M100.22 157.88C99.65 157.69 99.09 157.47 98.51 157.31C98.07 157.19 97.60 157.24 97.17 157.10C95.80 156.66 96.42 156.66 95.04 156.36C93.63 156.06 94.43 156.41 93.16 156.01C91.61 155.51 90.07 154.96 88.51 154.46C85.76 153.58 82.99 152.76 80.24 151.86C79.91 151.75 79.59 151.61 79.29 151.44C76.23 149.58 73.07 147.87 70.18 145.77C64.93 141.96 62.80 139.14 58.68 134.35C56.08 131.33 53.53 126.49 52.06 122.78C49.21 115.59 48.32 107.64 49.61 100.01C49.89 98.34 50.38 96.71 50.77 95.06C51.33 92.69 52.21 90.35 53.36 88.20C55.46 84.29 57.61 79.99 60.80 76.80C66.06 71.53 67.60 69.79 74.61 65.66C76.34 64.65 78.28 64.07 80.13 63.31C80.46 63.17 80.79 63.06 81.13 62.96C81.79 62.76 82.48 62.66 83.11 62.39C84.16 61.96 85.12 61.35 86.15 60.87C86.27 60.82 86.42 60.86 86.54 60.82C88.88 59.97 90.03 59.42 93.08 58.96C94.87 58.69 96.70 58.72 98.51 58.59C99.00 58.55 99.47 58.34 99.97 58.29C100.30 58.26 100.63 58.35 100.97 58.34C101.41 58.32 101.86 58.31 102.29 58.22C102.58 58.16 102.81 57.90 103.10 57.90C107.06 57.90 110.25 58.32 113.98 58.47C116.60 58.85 114.91 58.59 120.82 60.18C121.52 60.37 122.23 60.53 122.90 60.81C126.89 62.48 130.82 64.26 134.78 66.00C135.10 66.15 135.44 66.27 135.73 66.48C144.38 72.55 142.31 70.78 148.71 77.28C149.03 77.60 149.35 77.92 149.62 78.28C150.94 80.00 152.32 81.68 153.49 83.51C159.03 92.20 161.74 102.58 160.74 112.87C159.94 121.10 156.27 128.84 151.29 135.37C149.87 137.24 148.20 138.92 146.63 140.68C146.49 140.84 146.34 140.98 146.18 141.12C144.20 142.81 142.35 144.67 140.21 146.16C137.24 148.25 134.01 149.95 130.89 151.82C130.59 152.00 130.28 152.20 129.94 152.31C127.94 152.97 125.92 153.58 123.89 154.13C122.33 154.55 120.45 154.58 118.92 154.88C118.56 154.95 118.26 155.18 117.91 155.27C116.98 155.50 117.20 155.21 116.49 155.47C116.01 155.63 115.50 155.76 115.07 156.03C114.68 156.28 113.70 157.55 112.98 157.64C110.98 157.89 108.97 157.85 106.97 158.04C106.64 158.07 106.34 158.29 106.01 158.29C101.75 158.32 102.47 158.44 100.22 157.88ZM100.04 128.96Q100.55 129.45 101.06 129.94Q101.46 130.30 102.00 130.38Q102.86 130.35 103.71 130.44Q103.97 130.60 104.21 130.79Q104.54 131.12 105.00 131.15Q106.00 131.10 107.00 130.97Q107.50 130.98 108.00 130.95Q111.50 130.96 115.00 131.02Q117.50 131.15 120.00 131.29Q123.00 131.60 126.00 131.90Q127.00 132.09 128.00 132.23Q128.50 132.24 129.00 132.26Q129.50 132.22 129.89 131.89Q130.24 131.78 130.39 131.44Q130.69 131.36 131.00 131.39Q132.50 131.40 134.00 131.41Q134.55 131.33 134.96 130.96Q135.83 130.33 136.47 129.48Q136.73 129.44 137.00 129.45Q137.56 129.36 137.98 128.98Q138.34 128.84 138.48 128.48Q138.74 128.46 139.00 128.46Q139.56 128.37 139.98 127.98Q140.37 127.56 140.47 127.00Q140.47 126.00 140.47 125.00Q140.37 124.44 139.99 124.01Q139.35 123.15 138.49 122.51Q138.47 122.26 138.47 122.00Q138.37 121.44 137.98 121.02Q133.48 116.52 128.95 112.05Q128.04 110.95 126.91 110.09Q126.71 109.72 126.30 109.59Q126.06 109.38 125.80 109.20Q125.46 108.90 125.00 108.90Q124.53 108.96 124.13 108.70Q123.78 108.59 123.63 108.24Q123.38 107.96 123.00 107.98Q122.48 108.03 122.00 107.83Q121.28 107.63 120.54 107.49Q119.77 107.45 119.00 107.44Q118.65 107.43 118.30 107.47Q117.14 107.63 116.00 107.90Q114.92 108.25 113.86 108.66Q113.16 109.08 112.42 109.45Q110.29 110.77 108.35 112.35Q107.43 113.44 106.56 114.56Q105.21 115.71 104.08 117.08Q103.71 117.47 103.62 118.00Q103.59 118.27 103.54 118.54Q102.68 119.18 102.04 120.04Q101.66 120.45 101.57 121.00Q101.57 121.27 101.53 121.53Q101.16 121.66 101.03 122.03Q100.65 122.44 100.55 123.00Q100.56 123.26 100.52 123.52Q99.66 124.16 99.03 125.03Q98.87 125.50 99.03 125.97Q99.16 126.34 99.53 126.47Q99.60 127.23 99.59 128.00Q99.67 128.55 100.04 128.96ZM101.48 125.48Q102.00 125.48 102.52 125.48Q102.52 125.50 102.52 125.53Q102.26 125.54 102.00 125.55Q101.74 125.54 101.48 125.53Q101.48 125.50 101.48 125.48Z" transform="scale(2)"></path></clipPath><clipPath id="r8f-preview-entity-eye-0-highlight-clip"><path d="M 212.040 173.907 L 213.739 173.917 L 215.419 174.293 L 217.013 175.020 L 218.461 176.070 L 219.705 177.404 L 220.696 178.971 L 221.395 180.710 L 221.775 182.557 L 221.937 184.012 L 222.093 185.470 L 222.242 186.931 L 222.385 188.394 L 222.521 189.860 L 222.650 191.329 L 222.771 192.801 L 222.885 194.276 L 222.859 196.187 L 222.496 198.061 L 221.813 199.826 L 220.836 201.413 L 219.605 202.762 L 218.167 203.819 L 216.580 204.543 L 214.907 204.907 L 214.907 204.907 L 214.907 204.907 L 214.907 204.907 L 214.907 204.907 L 214.907 204.907 L 214.907 204.907 L 214.907 204.907 L 214.907 204.907 L 213.211 204.895 L 211.559 204.508 L 210.013 203.762 L 208.632 202.684 L 207.467 201.319 L 206.562 199.717 L 205.950 197.942 L 205.653 196.063 L 205.544 194.585 L 205.428 193.111 L 205.304 191.640 L 205.172 190.173 L 205.033 188.708 L 204.887 187.246 L 204.734 185.787 L 204.574 184.330 L 204.528 182.449 L 204.810 180.607 L 205.410 178.876 L 206.306 177.321 L 207.464 176.003 L 208.841 174.970 L 210.386 174.262 L 212.040 173.907 L 212.040 173.907 L 212.040 173.907 L 212.040 173.907 L 212.040 173.907 L 212.040 173.907 L 212.040 173.907 L 212.040 173.907 Z"></path></clipPath><clipPath id="r8f-preview-entity-eye-1-highlight-clip"><path d="M 264.915 176.103 L 266.380 176.588 L 267.770 177.417 L 269.028 178.559 L 270.107 179.971 L 270.963 181.598 L 271.563 183.379 L 271.881 185.246 L 271.907 187.126 L 271.808 188.572 L 271.703 190.020 L 271.590 191.472 L 271.471 192.926 L 271.344 194.383 L 271.210 195.843 L 271.068 197.306 L 270.918 198.773 L 270.573 200.626 L 269.948 202.349 L 269.066 203.876 L 267.965 205.148 L 266.686 206.115 L 265.282 206.739 L 263.808 206.996 L 262.319 206.875 L 262.319 206.875 L 262.319 206.875 L 262.319 206.875 L 262.319 206.875 L 262.319 206.875 L 262.319 206.875 L 262.319 206.875 L 262.319 206.875 L 260.874 206.382 L 259.527 205.536 L 258.328 204.370 L 257.323 202.928 L 256.548 201.268 L 256.032 199.453 L 255.793 197.554 L 255.841 195.644 L 255.985 194.180 L 256.122 192.719 L 256.251 191.261 L 256.374 189.805 L 256.490 188.353 L 256.599 186.903 L 256.701 185.455 L 256.797 184.011 L 257.060 182.191 L 257.598 180.503 L 258.393 179.010 L 259.416 177.771 L 260.627 176.831 L 261.983 176.227 L 263.430 175.981 L 264.915 176.103 L 264.915 176.103 L 264.915 176.103 L 264.915 176.103 L 264.915 176.103 L 264.915 176.103 L 264.915 176.103 L 264.915 176.103 Z"></path></clipPath></defs><g filter="url(#r8f-preview-entity-outline)"><g data-avatar-entity-part="beak" data-avatar-fragment-interaction-area="2776" data-avatar-fragment-interaction-ratio="1" data-avatar-fragment-raw-visible-area="2776" data-avatar-fragment-visible-area="2776"><g data-avatar-compiled-base-layer="beak"><path data-avatar-compiled-base="beak" d="M100.04 128.96Q99.67 128.55 99.59 128.00Q99.60 127.23 99.53 126.47Q99.16 126.34 99.03 125.97Q98.87 125.50 99.03 125.03Q99.66 124.16 100.52 123.52Q100.56 123.26 100.55 123.00Q100.65 122.44 101.03 122.03Q101.16 121.66 101.53 121.53Q101.57 121.27 101.57 121.00Q101.66 120.45 102.04 120.04Q102.68 119.18 103.54 118.54Q103.59 118.27 103.62 118.00Q103.71 117.47 104.08 117.08Q105.21 115.71 106.56 114.56Q107.43 113.44 108.35 112.35Q110.29 110.77 112.42 109.45Q113.16 109.08 113.86 108.66Q114.92 108.25 116.00 107.90Q117.14 107.63 118.30 107.47Q118.65 107.43 119.00 107.44Q119.77 107.45 120.54 107.49Q121.28 107.63 122.00 107.83Q122.48 108.03 123.00 107.98Q123.38 107.96 123.63 108.24Q123.78 108.59 124.13 108.70Q124.53 108.96 125.00 108.90Q125.46 108.90 125.80 109.20Q126.06 109.38 126.30 109.59Q126.71 109.72 126.91 110.09Q128.04 110.95 128.95 112.05Q133.48 116.52 137.98 121.02Q138.37 121.44 138.47 122.00Q138.47 122.26 138.49 122.51Q139.35 123.15 139.99 124.01Q140.37 124.44 140.47 125.00Q140.47 126.00 140.47 127.00Q140.37 127.56 139.98 127.98Q139.56 128.37 139.00 128.46Q138.74 128.46 138.48 128.48Q138.34 128.84 137.98 128.98Q137.56 129.36 137.00 129.45Q136.73 129.44 136.47 129.48Q135.83 130.33 134.96 130.96Q134.55 131.33 134.00 131.41Q132.50 131.40 131.00 131.39Q130.69 131.36 130.39 131.44Q130.24 131.78 129.89 131.89Q129.50 132.22 129.00 132.26Q128.50 132.24 128.00 132.23Q127.00 132.09 126.00 131.90Q123.00 131.60 120.00 131.29Q117.50 131.15 115.00 131.02Q111.50 130.96 108.00 130.95Q107.50 130.98 107.00 130.97Q106.00 131.10 105.00 131.15Q104.54 131.12 104.21 130.79Q103.97 130.60 103.71 130.44Q102.86 130.35 102.00 130.38Q101.46 130.30 101.06 129.94Q100.55 129.45 100.04 128.96ZM101.48 125.48Q101.48 125.50 101.48 125.53Q101.74 125.54 102.00 125.55Q102.26 125.54 102.52 125.53Q102.52 125.50 102.52 125.48Q102.00 125.48 101.48 125.48Z" fill="#235e97" transform="scale(2)"></path></g><g data-avatar-compiled-surface-layer="beak" clip-path="url(#r8f-preview-compiled-owner-0)"><g transform="translate(27.41279516496989 30.115559372779174)"><defs><clipPath id="r8f-preview-entity-parrot-0"><path d="M 171.86 220.31 Q 207.84 179.94 249.10 214.90 L 250.08 215.73 L 251.28 217.21 L 252.46 218.69 L 253.63 220.17 L 254.27 221.26 L 254.59 222.38 L 254.59 223.51 L 254.26 224.65 L 253.62 225.78 L 252.65 226.90 L 251.38 228.00 L 249.81 229.07 L 247.96 230.09 L 245.83 231.08 L 243.45 232.01 L 240.82 232.88 L 237.98 233.68 L 234.95 234.41 L 231.74 235.06 L 228.38 235.62 L 224.89 236.10 L 221.31 236.49 L 217.66 236.78 L 213.97 236.98 L 210.27 237.07 L 206.57 237.07 L 202.93 236.97 L 199.35 236.77 L 195.87 236.48 L 192.51 236.09 L 189.30 235.60 L 186.27 235.03 L 183.43 234.38 L 180.81 233.65 L 178.44 232.84 L 176.31 231.97 L 174.46 231.04 L 172.90 230.06 L 171.64 229.03 L 170.68 227.96 L 170.04 226.86 L 169.72 225.74 L 169.72 224.61 L 170.05 223.47 L 170.93 221.91 L 171.82 220.35 Z"></path></clipPath></defs><g clip-path="url(#r8f-preview-entity-parrot-0)"></g><g clip-path="url(#r8f-preview-entity-parrot-0)"><path data-avatar-surface-decal="parrot-beak-seam" d="M 216.229 195.340 L 217.462 197.069 L 218.594 198.323 L 219.591 199.328 L 220.405 200.159 L 220.968 200.836 L 221.170 201.351 L 220.800 201.668 L 219.312 201.666 L 214.874 200.774 L 205.700 195.519 L 210.924 189.915 L 214.855 189.290 L 216.401 189.467 L 217.016 189.831 L 217.176 190.309 L 217.077 190.897 L 216.827 191.617 L 216.512 192.505 L 216.242 193.656 L 216.220 195.314 L 216.946 196.440 L 219.119 198.125 L 220.960 199.338 L 222.629 200.309 L 224.187 201.124 L 225.678 201.811 L 227.171 202.383 L 228.817 202.844 L 231.010 203.192 L 234.842 203.284 L 237.756 201.084 L 230.026 193.461 L 226.011 191.024 L 223.960 190.375 L 222.570 190.235 L 221.418 190.349 L 220.349 190.650 L 219.301 191.128 L 218.251 191.806 L 217.201 192.767 L 216.162 194.248 Z" fill="#312e2c" fill-opacity="1"></path><path data-avatar-surface-decal="parrot-nostril-left" d="M 211.723 192.165 L 211.737 192.267 L 211.701 192.366 L 211.615 192.460 L 211.482 192.548 L 211.304 192.627 L 211.087 192.696 L 210.834 192.753 L 210.552 192.797 L 210.249 192.827 L 209.930 192.842 L 209.604 192.843 L 209.280 192.830 L 208.964 192.802 L 208.665 192.760 L 208.391 192.705 L 208.148 192.638 L 207.942 192.560 L 207.779 192.474 L 207.663 192.380 L 207.597 192.282 L 207.583 192.181 L 207.621 192.079 L 207.709 191.980 L 207.847 191.886 L 208.030 191.800 L 208.253 191.723 L 208.512 191.659 L 208.798 191.609 L 209.105 191.574 L 209.426 191.555 L 209.752 191.554 L 210.075 191.570 L 210.388 191.603 L 210.682 191.651 L 210.951 191.713 L 211.189 191.788 L 211.389 191.873 L 211.547 191.966 L 211.659 192.064 Z" fill="#312e2c" fill-opacity="1"></path><path data-avatar-surface-decal="parrot-nostril-right" d="M 222.394 192.896 L 222.411 192.993 L 222.382 193.080 L 222.308 193.157 L 222.192 193.221 L 222.034 193.271 L 221.840 193.307 L 221.613 193.327 L 221.360 193.331 L 221.085 193.320 L 220.797 193.294 L 220.502 193.252 L 220.207 193.197 L 219.920 193.130 L 219.647 193.051 L 219.397 192.963 L 219.175 192.868 L 218.987 192.766 L 218.837 192.662 L 218.730 192.557 L 218.668 192.454 L 218.653 192.355 L 218.685 192.262 L 218.763 192.179 L 218.885 192.108 L 219.048 192.050 L 219.248 192.007 L 219.479 191.980 L 219.736 191.971 L 220.012 191.980 L 220.300 192.007 L 220.594 192.051 L 220.886 192.111 L 221.168 192.185 L 221.435 192.271 L 221.680 192.367 L 221.897 192.470 L 222.081 192.577 L 222.227 192.686 L 222.332 192.793 Z" fill="#171615" fill-opacity="1"></path></g></g></g></g><g data-avatar-entity-part="primary" data-avatar-fragment-interaction-area="31936" data-avatar-fragment-interaction-ratio="1" data-avatar-fragment-raw-visible-area="31936" data-avatar-fragment-visible-area="31936"><g data-avatar-compiled-base-layer="primary"><path data-avatar-compiled-base="primary" d="M100.22 157.88C99.65 157.69 99.09 157.47 98.51 157.31C98.07 157.19 97.60 157.24 97.17 157.10C95.80 156.66 96.42 156.66 95.04 156.36C93.63 156.06 94.43 156.41 93.16 156.01C91.61 155.51 90.07 154.96 88.51 154.46C85.76 153.58 82.99 152.76 80.24 151.86C79.91 151.75 79.59 151.61 79.29 151.44C76.23 149.58 73.07 147.87 70.18 145.77C64.93 141.96 62.80 139.14 58.68 134.35C56.08 131.33 53.53 126.49 52.06 122.78C49.21 115.59 48.32 107.64 49.61 100.01C49.89 98.34 50.38 96.71 50.77 95.06C51.33 92.69 52.21 90.35 53.36 88.20C55.46 84.29 57.61 79.99 60.80 76.80C66.06 71.53 67.60 69.79 74.61 65.66C76.34 64.65 78.28 64.07 80.13 63.31C80.46 63.17 80.79 63.06 81.13 62.96C81.79 62.76 82.48 62.66 83.11 62.39C84.16 61.96 85.12 61.35 86.15 60.87C86.27 60.82 86.42 60.86 86.54 60.82C88.88 59.97 90.03 59.42 93.08 58.96C94.87 58.69 96.70 58.72 98.51 58.59C99.00 58.55 99.47 58.34 99.97 58.29C100.30 58.26 100.63 58.35 100.97 58.34C101.41 58.32 101.86 58.31 102.29 58.22C102.58 58.16 102.81 57.90 103.10 57.90C107.06 57.90 110.25 58.32 113.98 58.47C116.60 58.85 114.91 58.59 120.82 60.18C121.52 60.37 122.23 60.53 122.90 60.81C126.89 62.48 130.82 64.26 134.78 66.00C135.10 66.15 135.44 66.27 135.73 66.48C144.38 72.55 142.31 70.78 148.71 77.28C149.03 77.60 149.35 77.92 149.62 78.28C150.94 80.00 152.32 81.68 153.49 83.51C159.03 92.20 161.74 102.58 160.74 112.87C159.94 121.10 156.27 128.84 151.29 135.37C149.87 137.24 148.20 138.92 146.63 140.68C146.49 140.84 146.34 140.98 146.18 141.12C144.20 142.81 142.35 144.67 140.21 146.16C137.24 148.25 134.01 149.95 130.89 151.82C130.59 152.00 130.28 152.20 129.94 152.31C127.94 152.97 125.92 153.58 123.89 154.13C122.33 154.55 120.45 154.58 118.92 154.88C118.56 154.95 118.26 155.18 117.91 155.27C116.98 155.50 117.20 155.21 116.49 155.47C116.01 155.63 115.50 155.76 115.07 156.03C114.68 156.28 113.70 157.55 112.98 157.64C110.98 157.89 108.97 157.85 106.97 158.04C106.64 158.07 106.34 158.29 106.01 158.29C101.75 158.32 102.47 158.44 100.22 157.88ZM100.04 128.96Q100.55 129.45 101.06 129.94Q101.46 130.30 102.00 130.38Q102.86 130.35 103.71 130.44Q103.97 130.60 104.21 130.79Q104.54 131.12 105.00 131.15Q106.00 131.10 107.00 130.97Q107.50 130.98 108.00 130.95Q111.50 130.96 115.00 131.02Q117.50 131.15 120.00 131.29Q123.00 131.60 126.00 131.90Q127.00 132.09 128.00 132.23Q128.50 132.24 129.00 132.26Q129.50 132.22 129.89 131.89Q130.24 131.78 130.39 131.44Q130.69 131.36 131.00 131.39Q132.50 131.40 134.00 131.41Q134.55 131.33 134.96 130.96Q135.83 130.33 136.47 129.48Q136.73 129.44 137.00 129.45Q137.56 129.36 137.98 128.98Q138.34 128.84 138.48 128.48Q138.74 128.46 139.00 128.46Q139.56 128.37 139.98 127.98Q140.37 127.56 140.47 127.00Q140.47 126.00 140.47 125.00Q140.37 124.44 139.99 124.01Q139.35 123.15 138.49 122.51Q138.47 122.26 138.47 122.00Q138.37 121.44 137.98 121.02Q133.48 116.52 128.95 112.05Q128.04 110.95 126.91 110.09Q126.71 109.72 126.30 109.59Q126.06 109.38 125.80 109.20Q125.46 108.90 125.00 108.90Q124.53 108.96 124.13 108.70Q123.78 108.59 123.63 108.24Q123.38 107.96 123.00 107.98Q122.48 108.03 122.00 107.83Q121.28 107.63 120.54 107.49Q119.77 107.45 119.00 107.44Q118.65 107.43 118.30 107.47Q117.14 107.63 116.00 107.90Q114.92 108.25 113.86 108.66Q113.16 109.08 112.42 109.45Q110.29 110.77 108.35 112.35Q107.43 113.44 106.56 114.56Q105.21 115.71 104.08 117.08Q103.71 117.47 103.62 118.00Q103.59 118.27 103.54 118.54Q102.68 119.18 102.04 120.04Q101.66 120.45 101.57 121.00Q101.57 121.27 101.53 121.53Q101.16 121.66 101.03 122.03Q100.65 122.44 100.55 123.00Q100.56 123.26 100.52 123.52Q99.66 124.16 99.03 125.03Q98.87 125.50 99.03 125.97Q99.16 126.34 99.53 126.47Q99.60 127.23 99.59 128.00Q99.67 128.55 100.04 128.96ZM101.48 125.48Q102.00 125.48 102.52 125.48Q102.52 125.50 102.52 125.53Q102.26 125.54 102.00 125.55Q101.74 125.54 101.48 125.53Q101.48 125.50 101.48 125.48Z" fill="#235e97" transform="scale(2)"></path></g><g data-avatar-compiled-surface-layer="primary" clip-path="url(#r8f-preview-compiled-owner-1)"><g transform="translate(0 13.881866512007033)"><defs><clipPath id="r8f-preview-entity-parrot-1"><path d="M 97.98 200.76 L 98.68 189.66 L 100.78 178.71 L 104.26 168.06 L 104.71 167.02 L 109.50 156.84 L 115.55 147.23 L 122.79 138.31 L 131.12 130.19 L 132.06 129.42 L 141.28 122.29 L 151.36 116.16 L 152.51 115.60 L 163.12 110.66 L 164.41 110.21 L 175.30 106.53 L 176.55 106.20 L 187.46 103.82 L 188.48 103.61 L 189.65 103.42 L 190.99 103.24 L 192.46 103.07 L 194.08 102.92 L 201.99 102.22 L 202.86 102.16 L 203.78 102.10 L 204.76 102.06 L 205.77 102.02 L 206.82 101.99 L 207.89 101.98 L 208.97 101.97 L 210.07 101.98 L 211.16 102.00 L 212.24 102.03 L 213.31 102.07 L 214.35 102.11 L 215.36 102.17 L 216.33 102.24 L 217.25 102.32 L 218.11 102.40 L 226.12 103.28 L 227.72 103.46 L 229.18 103.66 L 230.49 103.87 L 231.65 104.09 L 232.65 104.32 L 243.61 106.94 L 244.83 107.30 L 255.76 111.22 L 257.01 111.70 L 267.65 116.87 L 268.75 117.46 L 278.85 123.81 L 288.08 131.14 L 288.95 131.93 L 297.29 140.24 L 304.54 149.32 L 310.59 159.06 L 315.38 169.35 L 315.74 170.40 L 319.22 181.13 L 321.32 192.12 L 322.02 203.24 L 321.23 214.34 L 318.88 225.28 L 315.02 235.93 L 314.58 236.97 L 309.33 247.14 L 302.79 256.74 L 295.11 265.65 L 286.43 273.76 L 285.52 274.51 L 276.12 281.63 L 266.03 287.75 L 264.93 288.29 L 254.52 293.24 L 243.72 297.05 L 242.79 297.37 L 241.60 297.68 L 231.21 300.09 L 230.25 300.29 L 229.15 300.47 L 227.89 300.64 L 226.50 300.80 L 218.28 301.63 L 217.52 301.70 L 216.70 301.77 L 215.83 301.82 L 214.92 301.86 L 213.97 301.90 L 212.99 301.92 L 211.98 301.93 L 210.97 301.94 L 209.94 301.93 L 208.91 301.92 L 207.90 301.89 L 206.89 301.85 L 205.92 301.81 L 204.97 301.75 L 204.06 301.69 L 203.20 301.62 L 202.38 301.54 L 201.63 301.45 L 193.33 300.43 L 191.95 300.24 L 190.71 300.05 L 189.62 299.84 L 188.69 299.62 L 178.24 296.98 L 177.09 296.65 L 166.54 292.71 L 165.35 292.26 L 154.91 287.08 L 153.86 286.51 L 143.76 280.17 L 134.34 272.84 L 133.50 272.07 L 124.81 263.77 L 117.12 254.68 L 110.58 244.94 L 105.33 234.65 L 101.49 223.96 L 101.12 222.87 L 98.77 211.88 Z"></path></clipPath></defs><g clip-path="url(#r8f-preview-entity-parrot-1)"></g><g clip-path="url(#r8f-preview-entity-parrot-1)"><path data-avatar-surface-decal="parrot-face-patch" d="M 238.419 161.070 L 246.070 162.282 L 253.429 165.241 L 260.197 169.838 L 266.088 175.908 L 270.844 183.230 L 274.252 191.535 L 276.139 200.521 L 276.391 209.860 L 276.301 211.262 L 276.204 212.668 L 276.100 214.077 L 275.989 215.488 L 275.870 216.902 L 275.744 218.320 L 275.611 219.740 L 275.470 221.163 L 273.669 230.660 L 270.266 239.797 L 265.412 248.213 L 259.331 255.571 L 252.307 261.566 L 244.667 265.947 L 236.755 268.523 L 228.915 269.180 L 228.915 269.180 L 228.915 269.180 L 228.915 269.180 L 228.915 269.180 L 228.915 269.180 L 228.915 269.180 L 228.915 269.180 L 228.915 269.180 L 221.461 267.888 L 214.667 264.701 L 208.754 259.758 L 203.898 253.269 L 200.229 245.506 L 197.839 236.789 L 196.782 227.468 L 197.076 217.908 L 197.217 216.485 L 197.350 215.064 L 197.476 213.647 L 197.595 212.233 L 197.706 210.821 L 197.810 209.413 L 197.907 208.007 L 197.997 206.604 L 199.252 197.329 L 201.826 188.528 L 205.662 180.523 L 210.655 173.606 L 216.644 168.029 L 223.429 163.995 L 230.776 161.647 L 238.419 161.070 L 238.419 161.070 L 238.419 161.070 L 238.419 161.070 L 238.419 161.070 L 238.419 161.070 L 238.419 161.070 L 238.419 161.070 Z" fill="#e6ded0" fill-opacity="1"></path><g data-avatar-face-surface-layer="primary"><path data-avatar-face-feature="eye-0" d="M 212.040 173.907 L 213.739 173.917 L 215.419 174.293 L 217.013 175.020 L 218.461 176.070 L 219.705 177.404 L 220.696 178.971 L 221.395 180.710 L 221.775 182.557 L 221.937 184.012 L 222.093 185.470 L 222.242 186.931 L 222.385 188.394 L 222.521 189.860 L 222.650 191.329 L 222.771 192.801 L 222.885 194.276 L 222.859 196.187 L 222.496 198.061 L 221.813 199.826 L 220.836 201.413 L 219.605 202.762 L 218.167 203.819 L 216.580 204.543 L 214.907 204.907 L 214.907 204.907 L 214.907 204.907 L 214.907 204.907 L 214.907 204.907 L 214.907 204.907 L 214.907 204.907 L 214.907 204.907 L 214.907 204.907 L 213.211 204.895 L 211.559 204.508 L 210.013 203.762 L 208.632 202.684 L 207.467 201.319 L 206.562 199.717 L 205.950 197.942 L 205.653 196.063 L 205.544 194.585 L 205.428 193.111 L 205.304 191.640 L 205.172 190.173 L 205.033 188.708 L 204.887 187.246 L 204.734 185.787 L 204.574 184.330 L 204.528 182.449 L 204.810 180.607 L 205.410 178.876 L 206.306 177.321 L 207.464 176.003 L 208.841 174.970 L 210.386 174.262 L 212.040 173.907 L 212.040 173.907 L 212.040 173.907 L 212.040 173.907 L 212.040 173.907 L 212.040 173.907 L 212.040 173.907 L 212.040 173.907 Z" fill="#26231f"></path><path data-avatar-face-feature="eye-1" d="M 264.915 176.103 L 266.380 176.588 L 267.770 177.417 L 269.028 178.559 L 270.107 179.971 L 270.963 181.598 L 271.563 183.379 L 271.881 185.246 L 271.907 187.126 L 271.808 188.572 L 271.703 190.020 L 271.590 191.472 L 271.471 192.926 L 271.344 194.383 L 271.210 195.843 L 271.068 197.306 L 270.918 198.773 L 270.573 200.626 L 269.948 202.349 L 269.066 203.876 L 267.965 205.148 L 266.686 206.115 L 265.282 206.739 L 263.808 206.996 L 262.319 206.875 L 262.319 206.875 L 262.319 206.875 L 262.319 206.875 L 262.319 206.875 L 262.319 206.875 L 262.319 206.875 L 262.319 206.875 L 262.319 206.875 L 260.874 206.382 L 259.527 205.536 L 258.328 204.370 L 257.323 202.928 L 256.548 201.268 L 256.032 199.453 L 255.793 197.554 L 255.841 195.644 L 255.985 194.180 L 256.122 192.719 L 256.251 191.261 L 256.374 189.805 L 256.490 188.353 L 256.599 186.903 L 256.701 185.455 L 256.797 184.011 L 257.060 182.191 L 257.598 180.503 L 258.393 179.010 L 259.416 177.771 L 260.627 176.831 L 261.983 176.227 L 263.430 175.981 L 264.915 176.103 L 264.915 176.103 L 264.915 176.103 L 264.915 176.103 L 264.915 176.103 L 264.915 176.103 L 264.915 176.103 L 264.915 176.103 Z" fill="#26231f"></path></g></g></g></g></g></g></g></g></svg>
