<svg xmlns="http://www.w3.org/2000/svg" class="interactive-avatar__canvas" viewBox="0 0 420 420" aria-hidden="true" focusable="false"><defs><clipPath id="R0-clip"><path d=""></path></clipPath><filter id="R0-face-shadow-blur" x="-50%" y="-50%" width="200%" height="200%"><feGaussianBlur stdDeviation="0"></feGaussianBlur></filter><filter id="R0-avatar-shadow" x="-100%" y="-100%" width="300%" height="300%"><feDropShadow dx="0" dy="0" stdDeviation="0" flood-color="#a86a1a" flood-opacity="0"></feDropShadow></filter></defs><g transform="translate(0 38.94195011337869) translate(210 210) rotate(0) scale(1.46) translate(-210 -210)"><g data-avatar-entity-fragment-root="true" data-avatar-entity-preset="bear" data-avatar-fragment-composition="compiled-owner-partition" data-avatar-fragment-build-count="1" data-avatar-fragment-compile-count="1" data-avatar-fragment-drag-build-samples="0" data-avatar-fragment-quality="full" data-avatar-fragment-raster-size="420" data-avatar-fragment-revision="{&quot;groups&quot;:[{&quot;id&quot;:&quot;anatomy-ear-left&quot;,&quot;primitiveIds&quot;:[&quot;ear-left&quot;],&quot;resolution&quot;:28},{&quot;id&quot;:&quot;anatomy-ear-right&quot;,&quot;primitiveIds&quot;:[&quot;ear-right&quot;],&quot;resolution&quot;:28},{&quot;id&quot;:&quot;anatomy-primary&quot;,&quot;primitiveIds&quot;:[&quot;primary&quot;],&quot;resolution&quot;:28}],&quot;id&quot;:&quot;production-bear&quot;,&quot;primitives&quot;:[{&quot;id&quot;:&quot;ear-left&quot;,&quot;materialId&quot;:&quot;ear-left&quot;,&quot;position&quot;:{&quot;x&quot;:-58,&quot;y&quot;:-72,&quot;z&quot;:-18},&quot;productionShape&quot;:&quot;ellipse&quot;,&quot;rotation&quot;:{&quot;x&quot;:-0.06981317007977318,&quot;y&quot;:-0.12217304763960307,&quot;z&quot;:0.13962634015954636},&quot;scale&quot;:{&quot;x&quot;:30.6,&quot;y&quot;:40.120000000000005,&quot;z&quot;:24.400000000000002},&quot;shape&quot;:&quot;ellipse&quot;},{&quot;id&quot;:&quot;ear-right&quot;,&quot;materialId&quot;:&quot;ear-right&quot;,&quot;position&quot;:{&quot;x&quot;:58,&quot;y&quot;:-70,&quot;z&quot;:-20},&quot;productionShape&quot;:&quot;ellipse&quot;,&quot;rotation&quot;:{&quot;x&quot;:-0.05235987755982988,&quot;y&quot;:0.13962634015954636,&quot;z&quot;:-0.12217304763960307},&quot;scale&quot;:{&quot;x&quot;:29.07,&quot;y&quot;:38.940000000000005,&quot;z&quot;:23.18},&quot;shape&quot;:&quot;ellipse&quot;},{&quot;id&quot;:&quot;primary&quot;,&quot;materialId&quot;:&quot;primary&quot;,&quot;position&quot;:{&quot;x&quot;:0,&quot;y&quot;:20,&quot;z&quot;:0},&quot;productionShape&quot;:&quot;trapezoid&quot;,&quot;roundness&quot;:78,&quot;rotation&quot;:{&quot;x&quot;:0,&quot;y&quot;:0,&quot;z&quot;:0},&quot;scale&quot;:{&quot;x&quot;:105.08,&quot;y&quot;:95.03999999999999,&quot;z&quot;:83.52},&quot;shape&quot;:&quot;trapezoid&quot;}],&quot;resolution&quot;:28,&quot;smoothUnionPairs&quot;:[],&quot;smoothUnionRadius&quot;:0}:420:0.050087:0.059536" data-avatar-fragment-path-characters="7964" data-avatar-fragment-candidate-tests="176302" data-avatar-fragment-curve-segments="238" data-avatar-fragment-contour-segments="238" data-avatar-fragment-line-segments="0" data-avatar-fragment-max-curve-error="0.122" data-avatar-fragment-shared-curve-reuse="71" data-avatar-fragment-null-owner-pixels="0"><defs><filter id="R0-entity-face-shadow" x="-50%" y="-50%" width="200%" height="200%"><feGaussianBlur stdDeviation="0"></feGaussianBlur></filter><filter id="R0-entity-outline" x="-30%" y="-30%" width="160%" height="160%"><feMorphology in="SourceAlpha" operator="dilate" radius="2" result="expanded"></feMorphology><feFlood flood-color="#2b1d18" flood-opacity="0.84"></feFlood><feComposite in2="expanded" operator="in"></feComposite><feMerge><feMergeNode></feMergeNode><feMergeNode in="SourceGraphic"></feMergeNode></feMerge></filter><clipPath id="R0-compiled-owner-0" clipPathUnits="userSpaceOnUse"><path d="M182.34 128.83Q182.15 129.26 181.76 129.53Q181.38 129.57 181.00 129.67Q180.51 129.79 180.00 129.83Q178.00 130.04 176.00 130.22Q172.50 130.68 169.00 131.11Q168.59 131.15 168.23 131.36Q167.95 131.47 167.73 131.69Q166.38 132.81 164.97 133.84Q164.54 134.19 164.00 134.24Q162.66 134.31 161.32 134.44Q159.67 135.19 158.00 135.91Q156.13 136.67 154.25 137.40Q152.62 138.09 151.00 138.79Q150.56 138.98 150.17 139.27Q147.06 141.57 143.90 143.79Q142.69 144.65 141.45 145.47Q140.89 145.90 140.32 146.34Q138.23 148.24 136.29 150.29Q135.02 151.51 133.72 152.70Q133.11 153.13 132.73 153.77Q132.07 154.07 131.59 154.63Q130.80 155.35 130.26 156.26Q129.79 156.86 129.61 157.60Q129.12 157.79 128.83 158.23C127.46 156.90 126.45 155.12 125.56 153.46C123.45 149.54 121.98 145.24 121.22 140.86C118.87 127.35 121.93 112.42 130.65 101.62C133.12 98.57 135.90 95.96 139.21 93.85C139.92 93.40 141.30 92.52 142.24 92.09C143.31 91.60 145.37 91.11 146.10 90.93C147.03 90.71 147.05 90.93 148.04 90.87C148.69 90.84 149.34 90.66 149.99 90.66C150.99 90.67 151.99 90.83 152.98 90.89C153.65 90.93 154.32 91.02 154.98 90.97C155.95 90.90 155.93 89.85 156.95 89.93C158.01 90.02 158.89 91.05 159.95 91.25C160.59 91.36 161.25 91.27 161.89 91.37C162.24 91.43 162.58 91.58 162.91 91.71C165.24 92.58 167.57 94.28 169.35 95.65C170.47 96.51 171.44 97.56 172.37 98.63C175.85 102.58 178.19 107.23 179.80 112.20C181.03 116.01 181.71 120.05 181.86 124.05C182.02 128.54 181.26 126.75 182.34 128.83Z" transform="scale(1)"></path></clipPath><clipPath id="R0-compiled-owner-1" clipPathUnits="userSpaceOnUse"><path d="M290.17 157.00Q289.77 157.03 289.49 156.75Q289.37 156.29 288.99 156.01Q288.85 155.65 288.49 155.51Q288.46 155.26 288.47 155.00Q288.37 154.44 287.98 154.02Q283.08 148.92 277.96 144.04Q277.45 143.55 276.93 143.07Q276.53 142.73 276.00 142.68Q275.67 142.78 275.37 142.61Q275.03 141.97 274.45 141.53Q273.78 140.70 272.89 140.11Q272.50 139.78 272.00 139.76Q271.64 139.86 271.32 139.65Q271.00 139.00 270.43 138.54Q270.29 138.19 269.93 138.07Q269.51 137.77 269.00 137.78Q268.54 137.90 268.10 137.71Q267.74 137.54 267.60 137.15Q267.40 136.80 267.00 136.70Q266.21 136.57 265.41 136.55Q265.27 136.19 264.91 136.06Q264.51 135.74 264.00 135.72Q263.59 135.85 263.20 135.66Q262.83 135.49 262.70 135.10Q262.40 134.84 262.00 134.88Q261.48 134.99 261.00 134.78Q260.71 134.71 260.49 134.51Q260.35 134.16 259.99 134.05Q259.55 133.72 259.00 133.68Q258.63 133.82 258.28 133.63Q258.05 133.33 257.78 133.07Q257.44 132.78 257.00 132.80Q256.56 132.92 256.14 132.72Q255.76 132.51 255.64 132.10Q255.41 131.74 255.00 131.65Q254.65 131.59 254.30 131.54Q253.73 131.01 253.00 130.75Q252.00 130.62 251.00 130.60Q250.73 130.56 250.46 130.50Q250.30 130.21 249.96 130.18Q249.54 129.84 249.00 129.79Q248.03 130.14 247.00 130.18Q245.49 130.02 244.00 129.78Q243.23 129.67 242.48 129.50Q242.30 129.24 241.98 129.22Q241.55 128.89 241.00 128.86Q239.42 128.63 237.83 128.54C237.87 128.36 237.93 128.19 237.94 128.01C237.98 127.35 237.95 126.69 237.98 126.04C238.10 123.85 238.26 122.20 238.63 120.03C239.74 113.45 242.28 106.76 246.60 101.60C247.92 100.03 249.00 98.76 250.62 97.71C251.00 97.47 251.45 97.33 251.81 97.04C252.31 96.64 252.71 96.12 253.19 95.68C253.28 95.60 253.38 95.53 253.50 95.50C254.06 95.35 254.64 95.29 255.21 95.16C256.48 94.86 255.69 94.87 257.01 94.79C257.51 94.76 258.03 94.87 258.51 94.74C259.06 94.59 259.50 94.18 260.03 93.97C260.18 93.91 260.37 93.99 260.53 93.94C260.87 93.82 261.23 93.70 261.51 93.47C261.90 93.14 262.12 92.64 262.51 92.31C262.66 92.18 262.87 92.17 263.06 92.15C263.72 92.06 264.38 91.96 265.04 91.96C265.36 91.96 265.65 92.11 265.96 92.14C266.93 92.25 267.92 92.15 268.87 92.36C269.89 92.59 270.84 93.10 271.83 93.44C273.60 94.06 275.78 94.63 277.41 95.63C289.53 103.11 295.78 118.15 295.90 132.03C295.93 135.01 295.79 138.03 295.29 140.97C294.72 144.34 293.88 147.64 292.58 150.80C292.16 151.83 291.69 152.83 291.19 153.82C290.86 154.49 290.32 155.06 290.09 155.77C289.96 156.16 290.14 156.59 290.17 157.00Z" transform="scale(1)"></path></clipPath><clipPath id="R0-compiled-owner-2" clipPathUnits="userSpaceOnUse"><path d="M237.83 128.54Q239.42 128.63 241.00 128.86Q241.55 128.89 241.98 129.22Q242.30 129.24 242.48 129.50Q243.23 129.67 244.00 129.78Q245.49 130.02 247.00 130.18Q248.03 130.14 249.00 129.79Q249.54 129.84 249.96 130.18Q250.30 130.21 250.46 130.50Q250.73 130.56 251.00 130.60Q252.00 130.62 253.00 130.75Q253.73 131.01 254.30 131.54Q254.65 131.59 255.00 131.65Q255.41 131.74 255.64 132.10Q255.76 132.51 256.14 132.72Q256.56 132.92 257.00 132.80Q257.44 132.78 257.78 133.07Q258.05 133.33 258.28 133.63Q258.63 133.82 259.00 133.68Q259.55 133.72 259.99 134.05Q260.35 134.16 260.49 134.51Q260.71 134.71 261.00 134.78Q261.48 134.99 262.00 134.88Q262.40 134.84 262.70 135.10Q262.83 135.49 263.20 135.66Q263.59 135.85 264.00 135.72Q264.51 135.74 264.91 136.06Q265.27 136.19 265.41 136.55Q266.21 136.57 267.00 136.70Q267.40 136.80 267.60 137.15Q267.74 137.54 268.10 137.71Q268.54 137.90 269.00 137.78Q269.51 137.77 269.93 138.07Q270.29 138.19 270.43 138.54Q271.00 139.00 271.32 139.65Q271.64 139.86 272.00 139.76Q272.50 139.78 272.89 140.11Q273.78 140.70 274.45 141.53Q275.03 141.97 275.37 142.61Q275.67 142.78 276.00 142.68Q276.53 142.73 276.93 143.07Q277.45 143.55 277.96 144.04Q283.08 148.92 287.98 154.02Q288.37 154.44 288.47 155.00Q288.46 155.26 288.49 155.51Q288.85 155.65 288.99 156.01Q289.37 156.29 289.49 156.75Q289.77 157.03 290.17 157.00C290.31 159.66 289.97 157.23 292.41 161.32C293.83 163.69 295.19 166.08 296.42 168.55C298.82 173.40 300.73 178.39 302.37 183.55C305.52 193.48 307.42 203.79 308.97 214.08C309.73 219.06 310.44 224.05 311.15 229.05C313.22 243.77 315.08 259.25 311.62 273.93C311.15 275.91 310.42 277.83 309.81 279.78C309.64 280.33 309.47 280.88 309.28 281.43C307.52 286.43 305.27 289.28 302.18 293.25C297.62 299.13 299.57 296.66 290.74 303.68C290.47 303.89 290.19 304.10 289.87 304.25C288.91 304.69 277.75 310.61 271.92 311.98C271.60 312.06 271.27 312.09 270.94 312.13C269.95 312.25 268.95 312.37 267.95 312.47C255.37 313.66 264.51 312.89 254.99 313.30C241.97 313.86 250.16 313.79 238.00 313.87C231.00 313.91 224.00 313.89 217.00 313.96C215.72 313.97 215.27 314.83 213.93 315.38C213.64 315.50 213.31 315.41 213.00 315.41C210.00 315.42 207.00 315.47 204.00 315.43C202.24 315.41 200.75 314.03 199.00 314.01C192.34 313.94 185.68 314.09 179.02 314.01C176.01 313.97 173.02 313.74 170.02 313.64C159.84 313.30 166.75 313.85 155.07 312.80C153.41 312.66 149.99 312.35 148.17 311.90C147.63 311.77 147.11 311.53 146.59 311.30C141.55 309.06 136.51 306.80 131.50 304.49C131.05 304.29 130.60 304.06 130.20 303.75C127.21 301.41 124.30 298.97 121.36 296.56C121.19 296.42 121.01 296.28 120.87 296.10C118.82 293.52 116.80 290.90 114.79 288.28C114.67 288.11 114.57 287.93 114.48 287.74C113.31 285.42 112.14 283.09 110.99 280.76C110.86 280.50 110.73 280.23 110.64 279.96C108.45 273.15 107.99 272.24 107.09 264.96C105.53 252.38 107.23 239.53 108.93 227.06C110.65 214.49 112.37 201.82 115.54 189.51C117.17 183.20 117.87 181.43 120.10 175.21C122.03 169.87 124.73 165.20 127.50 160.27C127.90 159.56 128.46 158.96 128.83 158.23Q129.12 157.79 129.61 157.60Q129.79 156.86 130.26 156.26Q130.80 155.35 131.59 154.63Q132.07 154.07 132.73 153.77Q133.11 153.13 133.72 152.70Q135.02 151.51 136.29 150.29Q138.23 148.24 140.32 146.34Q140.89 145.90 141.45 145.47Q142.69 144.65 143.90 143.79Q147.06 141.57 150.17 139.27Q150.56 138.98 151.00 138.79Q152.62 138.09 154.25 137.40Q156.13 136.67 158.00 135.91Q159.67 135.19 161.32 134.44Q162.66 134.31 164.00 134.24Q164.54 134.19 164.97 133.84Q166.38 132.81 167.73 131.69Q167.95 131.47 168.23 131.36Q168.59 131.15 169.00 131.11Q172.50 130.68 176.00 130.22Q178.00 130.04 180.00 129.83Q180.51 129.79 181.00 129.67Q181.38 129.57 181.76 129.53Q182.15 129.26 182.34 128.83C184.66 128.19 182.40 128.75 188.00 128.64C191.01 128.57 194.01 128.42 197.02 128.35C199.68 128.30 202.35 128.43 205.00 128.28C205.37 128.25 205.66 127.91 206.02 127.82C206.33 127.73 206.67 127.74 207.00 127.74C210.67 127.70 214.33 127.62 218.00 127.70C218.69 127.72 219.29 128.26 219.98 128.30C227.61 128.68 227.12 128.33 234.00 128.44C235.00 128.46 236.00 128.58 236.99 128.60C237.28 128.61 237.55 128.56 237.83 128.54Z" transform="scale(1)"></path></clipPath><clipPath id="R0-entity-eye-0-highlight-clip"><path d="M 190.983 202.482 L 191.973 202.666 L 192.908 203.032 L 193.751 203.567 L 194.471 204.251 L 195.040 205.057 L 195.435 205.954 L 195.643 206.908 L 195.653 207.881 L 195.653 207.881 L 195.653 207.881 L 195.653 207.881 L 195.653 207.881 L 195.653 207.881 L 195.653 207.881 L 195.653 207.881 L 195.653 207.881 L 195.468 208.838 L 195.092 209.740 L 194.542 210.553 L 193.837 211.246 L 193.006 211.793 L 192.079 212.172 L 191.094 212.368 L 190.087 212.375 L 188.774 212.259 L 187.462 212.142 L 186.148 212.025 L 184.835 211.907 L 183.521 211.789 L 182.206 211.670 L 180.891 211.551 L 179.576 211.431 L 178.583 211.244 L 177.646 210.875 L 176.800 210.336 L 176.078 209.650 L 175.508 208.842 L 175.111 207.944 L 174.903 206.989 L 174.892 206.015 L 174.892 206.015 L 174.892 206.015 L 174.892 206.015 L 174.892 206.015 L 174.892 206.015 L 174.892 206.015 L 174.892 206.015 L 174.892 206.015 L 175.078 205.059 L 175.454 204.158 L 176.006 203.346 L 176.712 202.655 L 177.545 202.111 L 178.474 201.735 L 179.462 201.541 L 180.472 201.538 L 181.788 201.658 L 183.103 201.777 L 184.417 201.896 L 185.732 202.014 L 187.045 202.132 L 188.358 202.249 L 189.671 202.366 Z"></path></clipPath><clipPath id="R0-entity-eye-1-highlight-clip"><path d="M 247.667 201.337 L 248.660 201.335 L 249.631 201.522 L 250.545 201.893 L 251.364 202.432 L 252.059 203.119 L 252.601 203.928 L 252.972 204.827 L 253.155 205.782 L 253.155 205.782 L 253.155 205.782 L 253.155 205.782 L 253.155 205.782 L 253.155 205.782 L 253.155 205.782 L 253.155 205.782 L 253.155 205.782 L 253.144 206.756 L 252.940 207.712 L 252.550 208.613 L 251.989 209.424 L 251.280 210.114 L 250.448 210.658 L 249.527 211.033 L 248.551 211.225 L 247.257 211.353 L 245.963 211.480 L 244.668 211.607 L 243.373 211.733 L 242.077 211.858 L 240.781 211.983 L 239.485 212.108 L 238.187 212.232 L 237.192 212.231 L 236.217 212.040 L 235.302 211.667 L 234.480 211.125 L 233.784 210.436 L 233.240 209.626 L 232.869 208.726 L 232.686 207.771 L 232.686 207.771 L 232.686 207.771 L 232.686 207.771 L 232.686 207.771 L 232.686 207.771 L 232.686 207.771 L 232.686 207.771 L 232.686 207.771 L 232.697 206.797 L 232.902 205.842 L 233.293 204.943 L 233.855 204.134 L 234.567 203.445 L 235.401 202.905 L 236.325 202.533 L 237.303 202.344 L 238.600 202.220 L 239.897 202.096 L 241.193 201.970 L 242.489 201.845 L 243.784 201.719 L 245.079 201.592 L 246.373 201.465 Z"></path></clipPath></defs><g filter="url(#R0-entity-outline)"><g data-avatar-entity-part="ear-left" data-avatar-fragment-interaction-area="2595" data-avatar-fragment-interaction-ratio="1" data-avatar-fragment-raw-visible-area="2595" data-avatar-fragment-visible-area="2595" data-avatar-part-geometry="compiled-owner"><g data-avatar-compiled-base-layer="ear-left"><path data-avatar-compiled-base="ear-left" d="M182.34 128.83Q182.15 129.26 181.76 129.53Q181.38 129.57 181.00 129.67Q180.51 129.79 180.00 129.83Q178.00 130.04 176.00 130.22Q172.50 130.68 169.00 131.11Q168.59 131.15 168.23 131.36Q167.95 131.47 167.73 131.69Q166.38 132.81 164.97 133.84Q164.54 134.19 164.00 134.24Q162.66 134.31 161.32 134.44Q159.67 135.19 158.00 135.91Q156.13 136.67 154.25 137.40Q152.62 138.09 151.00 138.79Q150.56 138.98 150.17 139.27Q147.06 141.57 143.90 143.79Q142.69 144.65 141.45 145.47Q140.89 145.90 140.32 146.34Q138.23 148.24 136.29 150.29Q135.02 151.51 133.72 152.70Q133.11 153.13 132.73 153.77Q132.07 154.07 131.59 154.63Q130.80 155.35 130.26 156.26Q129.79 156.86 129.61 157.60Q129.12 157.79 128.83 158.23C127.46 156.90 126.45 155.12 125.56 153.46C123.45 149.54 121.98 145.24 121.22 140.86C118.87 127.35 121.93 112.42 130.65 101.62C133.12 98.57 135.90 95.96 139.21 93.85C139.92 93.40 141.30 92.52 142.24 92.09C143.31 91.60 145.37 91.11 146.10 90.93C147.03 90.71 147.05 90.93 148.04 90.87C148.69 90.84 149.34 90.66 149.99 90.66C150.99 90.67 151.99 90.83 152.98 90.89C153.65 90.93 154.32 91.02 154.98 90.97C155.95 90.90 155.93 89.85 156.95 89.93C158.01 90.02 158.89 91.05 159.95 91.25C160.59 91.36 161.25 91.27 161.89 91.37C162.24 91.43 162.58 91.58 162.91 91.71C165.24 92.58 167.57 94.28 169.35 95.65C170.47 96.51 171.44 97.56 172.37 98.63C175.85 102.58 178.19 107.23 179.80 112.20C181.03 116.01 181.71 120.05 181.86 124.05C182.02 128.54 181.26 126.75 182.34 128.83Z" fill="#a95f47" transform="scale(1)"></path></g><g data-avatar-compiled-surface-layer="ear-left" clip-path="url(#R0-compiled-owner-0)"><g transform="translate(-58.82845290312284 -72.7693213387318)"><g></g></g></g></g><g data-avatar-entity-part="ear-right" data-avatar-fragment-interaction-area="2233" data-avatar-fragment-interaction-ratio="1" data-avatar-fragment-raw-visible-area="2233" data-avatar-fragment-visible-area="2233" data-avatar-part-geometry="compiled-owner"><g data-avatar-compiled-base-layer="ear-right"><path data-avatar-compiled-base="ear-right" d="M290.17 157.00Q289.77 157.03 289.49 156.75Q289.37 156.29 288.99 156.01Q288.85 155.65 288.49 155.51Q288.46 155.26 288.47 155.00Q288.37 154.44 287.98 154.02Q283.08 148.92 277.96 144.04Q277.45 143.55 276.93 143.07Q276.53 142.73 276.00 142.68Q275.67 142.78 275.37 142.61Q275.03 141.97 274.45 141.53Q273.78 140.70 272.89 140.11Q272.50 139.78 272.00 139.76Q271.64 139.86 271.32 139.65Q271.00 139.00 270.43 138.54Q270.29 138.19 269.93 138.07Q269.51 137.77 269.00 137.78Q268.54 137.90 268.10 137.71Q267.74 137.54 267.60 137.15Q267.40 136.80 267.00 136.70Q266.21 136.57 265.41 136.55Q265.27 136.19 264.91 136.06Q264.51 135.74 264.00 135.72Q263.59 135.85 263.20 135.66Q262.83 135.49 262.70 135.10Q262.40 134.84 262.00 134.88Q261.48 134.99 261.00 134.78Q260.71 134.71 260.49 134.51Q260.35 134.16 259.99 134.05Q259.55 133.72 259.00 133.68Q258.63 133.82 258.28 133.63Q258.05 133.33 257.78 133.07Q257.44 132.78 257.00 132.80Q256.56 132.92 256.14 132.72Q255.76 132.51 255.64 132.10Q255.41 131.74 255.00 131.65Q254.65 131.59 254.30 131.54Q253.73 131.01 253.00 130.75Q252.00 130.62 251.00 130.60Q250.73 130.56 250.46 130.50Q250.30 130.21 249.96 130.18Q249.54 129.84 249.00 129.79Q248.03 130.14 247.00 130.18Q245.49 130.02 244.00 129.78Q243.23 129.67 242.48 129.50Q242.30 129.24 241.98 129.22Q241.55 128.89 241.00 128.86Q239.42 128.63 237.83 128.54C237.87 128.36 237.93 128.19 237.94 128.01C237.98 127.35 237.95 126.69 237.98 126.04C238.10 123.85 238.26 122.20 238.63 120.03C239.74 113.45 242.28 106.76 246.60 101.60C247.92 100.03 249.00 98.76 250.62 97.71C251.00 97.47 251.45 97.33 251.81 97.04C252.31 96.64 252.71 96.12 253.19 95.68C253.28 95.60 253.38 95.53 253.50 95.50C254.06 95.35 254.64 95.29 255.21 95.16C256.48 94.86 255.69 94.87 257.01 94.79C257.51 94.76 258.03 94.87 258.51 94.74C259.06 94.59 259.50 94.18 260.03 93.97C260.18 93.91 260.37 93.99 260.53 93.94C260.87 93.82 261.23 93.70 261.51 93.47C261.90 93.14 262.12 92.64 262.51 92.31C262.66 92.18 262.87 92.17 263.06 92.15C263.72 92.06 264.38 91.96 265.04 91.96C265.36 91.96 265.65 92.11 265.96 92.14C266.93 92.25 267.92 92.15 268.87 92.36C269.89 92.59 270.84 93.10 271.83 93.44C273.60 94.06 275.78 94.63 277.41 95.63C289.53 103.11 295.78 118.15 295.90 132.03C295.93 135.01 295.79 138.03 295.29 140.97C294.72 144.34 293.88 147.64 292.58 150.80C292.16 151.83 291.69 152.83 291.19 153.82C290.86 154.49 290.32 155.06 290.09 155.77C289.96 156.16 290.14 156.59 290.17 157.00Z" fill="#a95f47" transform="scale(1)"></path></g><g data-avatar-compiled-surface-layer="ear-right" clip-path="url(#R0-compiled-owner-1)"><g transform="translate(56.92593976969656 -71.23727541450137)"><g></g></g></g></g><g data-avatar-entity-part="primary" data-avatar-fragment-interaction-area="33229" data-avatar-fragment-interaction-ratio="1" data-avatar-fragment-raw-visible-area="33229" data-avatar-fragment-visible-area="33229" data-avatar-part-geometry="compiled-owner"><g data-avatar-compiled-base-layer="primary"><path data-avatar-compiled-base="primary" d="M237.83 128.54Q239.42 128.63 241.00 128.86Q241.55 128.89 241.98 129.22Q242.30 129.24 242.48 129.50Q243.23 129.67 244.00 129.78Q245.49 130.02 247.00 130.18Q248.03 130.14 249.00 129.79Q249.54 129.84 249.96 130.18Q250.30 130.21 250.46 130.50Q250.73 130.56 251.00 130.60Q252.00 130.62 253.00 130.75Q253.73 131.01 254.30 131.54Q254.65 131.59 255.00 131.65Q255.41 131.74 255.64 132.10Q255.76 132.51 256.14 132.72Q256.56 132.92 257.00 132.80Q257.44 132.78 257.78 133.07Q258.05 133.33 258.28 133.63Q258.63 133.82 259.00 133.68Q259.55 133.72 259.99 134.05Q260.35 134.16 260.49 134.51Q260.71 134.71 261.00 134.78Q261.48 134.99 262.00 134.88Q262.40 134.84 262.70 135.10Q262.83 135.49 263.20 135.66Q263.59 135.85 264.00 135.72Q264.51 135.74 264.91 136.06Q265.27 136.19 265.41 136.55Q266.21 136.57 267.00 136.70Q267.40 136.80 267.60 137.15Q267.74 137.54 268.10 137.71Q268.54 137.90 269.00 137.78Q269.51 137.77 269.93 138.07Q270.29 138.19 270.43 138.54Q271.00 139.00 271.32 139.65Q271.64 139.86 272.00 139.76Q272.50 139.78 272.89 140.11Q273.78 140.70 274.45 141.53Q275.03 141.97 275.37 142.61Q275.67 142.78 276.00 142.68Q276.53 142.73 276.93 143.07Q277.45 143.55 277.96 144.04Q283.08 148.92 287.98 154.02Q288.37 154.44 288.47 155.00Q288.46 155.26 288.49 155.51Q288.85 155.65 288.99 156.01Q289.37 156.29 289.49 156.75Q289.77 157.03 290.17 157.00C290.31 159.66 289.97 157.23 292.41 161.32C293.83 163.69 295.19 166.08 296.42 168.55C298.82 173.40 300.73 178.39 302.37 183.55C305.52 193.48 307.42 203.79 308.97 214.08C309.73 219.06 310.44 224.05 311.15 229.05C313.22 243.77 315.08 259.25 311.62 273.93C311.15 275.91 310.42 277.83 309.81 279.78C309.64 280.33 309.47 280.88 309.28 281.43C307.52 286.43 305.27 289.28 302.18 293.25C297.62 299.13 299.57 296.66 290.74 303.68C290.47 303.89 290.19 304.10 289.87 304.25C288.91 304.69 277.75 310.61 271.92 311.98C271.60 312.06 271.27 312.09 270.94 312.13C269.95 312.25 268.95 312.37 267.95 312.47C255.37 313.66 264.51 312.89 254.99 313.30C241.97 313.86 250.16 313.79 238.00 313.87C231.00 313.91 224.00 313.89 217.00 313.96C215.72 313.97 215.27 314.83 213.93 315.38C213.64 315.50 213.31 315.41 213.00 315.41C210.00 315.42 207.00 315.47 204.00 315.43C202.24 315.41 200.75 314.03 199.00 314.01C192.34 313.94 185.68 314.09 179.02 314.01C176.01 313.97 173.02 313.74 170.02 313.64C159.84 313.30 166.75 313.85 155.07 312.80C153.41 312.66 149.99 312.35 148.17 311.90C147.63 311.77 147.11 311.53 146.59 311.30C141.55 309.06 136.51 306.80 131.50 304.49C131.05 304.29 130.60 304.06 130.20 303.75C127.21 301.41 124.30 298.97 121.36 296.56C121.19 296.42 121.01 296.28 120.87 296.10C118.82 293.52 116.80 290.90 114.79 288.28C114.67 288.11 114.57 287.93 114.48 287.74C113.31 285.42 112.14 283.09 110.99 280.76C110.86 280.50 110.73 280.23 110.64 279.96C108.45 273.15 107.99 272.24 107.09 264.96C105.53 252.38 107.23 239.53 108.93 227.06C110.65 214.49 112.37 201.82 115.54 189.51C117.17 183.20 117.87 181.43 120.10 175.21C122.03 169.87 124.73 165.20 127.50 160.27C127.90 159.56 128.46 158.96 128.83 158.23Q129.12 157.79 129.61 157.60Q129.79 156.86 130.26 156.26Q130.80 155.35 131.59 154.63Q132.07 154.07 132.73 153.77Q133.11 153.13 133.72 152.70Q135.02 151.51 136.29 150.29Q138.23 148.24 140.32 146.34Q140.89 145.90 141.45 145.47Q142.69 144.65 143.90 143.79Q147.06 141.57 150.17 139.27Q150.56 138.98 151.00 138.79Q152.62 138.09 154.25 137.40Q156.13 136.67 158.00 135.91Q159.67 135.19 161.32 134.44Q162.66 134.31 164.00 134.24Q164.54 134.19 164.97 133.84Q166.38 132.81 167.73 131.69Q167.95 131.47 168.23 131.36Q168.59 131.15 169.00 131.11Q172.50 130.68 176.00 130.22Q178.00 130.04 180.00 129.83Q180.51 129.79 181.00 129.67Q181.38 129.57 181.76 129.53Q182.15 129.26 182.34 128.83C184.66 128.19 182.40 128.75 188.00 128.64C191.01 128.57 194.01 128.42 197.02 128.35C199.68 128.30 202.35 128.43 205.00 128.28C205.37 128.25 205.66 127.91 206.02 127.82C206.33 127.73 206.67 127.74 207.00 127.74C210.67 127.70 214.33 127.62 218.00 127.70C218.69 127.72 219.29 128.26 219.98 128.30C227.61 128.68 227.12 128.33 234.00 128.44C235.00 128.46 236.00 128.58 236.99 128.60C237.28 128.61 237.55 128.56 237.83 128.54Z" fill="#e3b17f" transform="scale(1)"></path></g><g data-avatar-compiled-surface-layer="primary" clip-path="url(#R0-compiled-owner-2)"><g transform="translate(0 19.964565590504158)"><g><g data-avatar-face-surface-layer="primary"><path data-avatar-face-feature="eye-0" d="M 190.983 202.482 L 191.973 202.666 L 192.908 203.032 L 193.751 203.567 L 194.471 204.251 L 195.040 205.057 L 195.435 205.954 L 195.643 206.908 L 195.653 207.881 L 195.653 207.881 L 195.653 207.881 L 195.653 207.881 L 195.653 207.881 L 195.653 207.881 L 195.653 207.881 L 195.653 207.881 L 195.653 207.881 L 195.468 208.838 L 195.092 209.740 L 194.542 210.553 L 193.837 211.246 L 193.006 211.793 L 192.079 212.172 L 191.094 212.368 L 190.087 212.375 L 188.774 212.259 L 187.462 212.142 L 186.148 212.025 L 184.835 211.907 L 183.521 211.789 L 182.206 211.670 L 180.891 211.551 L 179.576 211.431 L 178.583 211.244 L 177.646 210.875 L 176.800 210.336 L 176.078 209.650 L 175.508 208.842 L 175.111 207.944 L 174.903 206.989 L 174.892 206.015 L 174.892 206.015 L 174.892 206.015 L 174.892 206.015 L 174.892 206.015 L 174.892 206.015 L 174.892 206.015 L 174.892 206.015 L 174.892 206.015 L 175.078 205.059 L 175.454 204.158 L 176.006 203.346 L 176.712 202.655 L 177.545 202.111 L 178.474 201.735 L 179.462 201.541 L 180.472 201.538 L 181.788 201.658 L 183.103 201.777 L 184.417 201.896 L 185.732 202.014 L 187.045 202.132 L 188.358 202.249 L 189.671 202.366 Z" fill="#2b1d18"></path><path data-avatar-face-feature="eye-1" d="M 247.667 201.337 L 248.660 201.335 L 249.631 201.522 L 250.545 201.893 L 251.364 202.432 L 252.059 203.119 L 252.601 203.928 L 252.972 204.827 L 253.155 205.782 L 253.155 205.782 L 253.155 205.782 L 253.155 205.782 L 253.155 205.782 L 253.155 205.782 L 253.155 205.782 L 253.155 205.782 L 253.155 205.782 L 253.144 206.756 L 252.940 207.712 L 252.550 208.613 L 251.989 209.424 L 251.280 210.114 L 250.448 210.658 L 249.527 211.033 L 248.551 211.225 L 247.257 211.353 L 245.963 211.480 L 244.668 211.607 L 243.373 211.733 L 242.077 211.858 L 240.781 211.983 L 239.485 212.108 L 238.187 212.232 L 237.192 212.231 L 236.217 212.040 L 235.302 211.667 L 234.480 211.125 L 233.784 210.436 L 233.240 209.626 L 232.869 208.726 L 232.686 207.771 L 232.686 207.771 L 232.686 207.771 L 232.686 207.771 L 232.686 207.771 L 232.686 207.771 L 232.686 207.771 L 232.686 207.771 L 232.686 207.771 L 232.697 206.797 L 232.902 205.842 L 233.293 204.943 L 233.855 204.134 L 234.567 203.445 L 235.401 202.905 L 236.325 202.533 L 237.303 202.344 L 238.600 202.220 L 239.897 202.096 L 241.193 201.970 L 242.489 201.845 L 243.784 201.719 L 245.079 201.592 L 246.373 201.465 Z" fill="#2b1d18"></path><path data-avatar-face-feature="nose" d="M 224.854 227.003 L 224.717 227.897 L 224.320 228.770 L 223.672 229.601 L 222.790 230.369 L 221.695 231.055 L 220.415 231.642 L 218.979 232.116 L 217.425 232.465 L 215.789 232.679 L 214.112 232.755 L 212.436 232.689 L 210.801 232.484 L 209.249 232.145 L 207.817 231.680 L 206.540 231.100 L 205.451 230.420 L 204.575 229.658 L 203.936 228.831 L 203.548 227.960 L 203.421 227.067 L 203.558 226.174 L 203.957 225.302 L 204.606 224.474 L 205.491 223.709 L 206.588 223.026 L 207.872 222.442 L 209.310 221.971 L 210.866 221.625 L 212.503 221.411 L 214.180 221.336 L 215.856 221.401 L 217.490 221.605 L 219.040 221.942 L 220.470 222.404 L 221.744 222.981 L 222.831 223.657 L 223.703 224.417 L 224.341 225.242 L 224.728 226.111 Z" fill="#2b1d18"></path><path data-avatar-face-feature="mouth" d="M 191.320 240.096 L 193.106 241.965 L 194.870 243.674 L 196.613 245.224 L 198.330 246.618 L 200.020 247.858 L 201.680 248.946 L 203.308 249.886 L 204.902 250.683 L 206.464 251.342 L 207.994 251.869 L 209.494 252.269 L 210.971 252.549 L 212.431 252.714 L 213.883 252.765 L 215.336 252.705 L 216.799 252.532 L 218.282 252.243 L 219.790 251.834 L 221.330 251.298 L 222.905 250.629 L 224.514 249.823 L 226.159 248.873 L 227.837 247.775 L 229.546 246.525 L 231.284 245.121 L 233.048 243.560 L 234.834 241.840 L 236.640 239.961 L 238.600 238.525 L 240.964 237.909 L 243.370 238.209 L 245.452 239.378 L 246.893 241.238 L 247.473 243.505 L 247.105 245.834 L 245.843 247.871 L 243.718 250.078 L 241.573 252.139 L 239.404 254.055 L 237.210 255.823 L 234.989 257.443 L 232.737 258.913 L 230.454 260.228 L 228.137 261.386 L 225.788 262.380 L 223.407 263.206 L 220.997 263.858 L 218.565 264.331 L 216.117 264.619 L 213.661 264.721 L 211.208 264.634 L 208.767 264.360 L 206.346 263.902 L 203.951 263.264 L 201.589 262.452 L 199.261 261.472 L 196.969 260.328 L 194.712 259.026 L 192.489 257.570 L 190.296 255.963 L 188.132 254.207 L 185.993 252.305 L 183.877 250.256 L 181.780 248.062 L 180.552 246.032 L 180.238 243.705 L 180.884 241.435 L 182.393 239.566 L 184.534 238.385 L 186.982 238.070 L 189.365 238.671 L 191.320 240.096 Z" fill="#2b1d18"></path></g></g></g></g></g></g></g></g></svg>
