<svg xmlns="http://www.w3.org/2000/svg" class="interactive-avatar__canvas" viewBox="0 0 420 420" aria-hidden="true" focusable="false"><defs><clipPath id="R0-clip"><path d=""></path></clipPath><filter id="R0-face-shadow-blur" x="-50%" y="-50%" width="200%" height="200%"><feGaussianBlur stdDeviation="0"></feGaussianBlur></filter><filter id="R0-avatar-shadow" x="-100%" y="-100%" width="300%" height="300%"><feDropShadow dx="0" dy="0" stdDeviation="0" flood-color="#a86a1a" flood-opacity="0"></feDropShadow></filter></defs><g transform="translate(0 20) translate(210 210) rotate(0) scale(1.46) translate(-210 -210)"><g data-avatar-entity-fragment-root="true" data-avatar-entity-preset="bear" data-avatar-fragment-composition="compiled-owner-partition" data-avatar-fragment-build-count="1" data-avatar-fragment-compile-count="1" data-avatar-fragment-drag-build-samples="0" data-avatar-fragment-quality="full" data-avatar-fragment-raster-size="420" data-avatar-fragment-revision="{&quot;groups&quot;:[{&quot;id&quot;:&quot;anatomy-ear-left&quot;,&quot;primitiveIds&quot;:[&quot;ear-left&quot;],&quot;resolution&quot;:28},{&quot;id&quot;:&quot;anatomy-ear-right&quot;,&quot;primitiveIds&quot;:[&quot;ear-right&quot;],&quot;resolution&quot;:28},{&quot;id&quot;:&quot;anatomy-primary&quot;,&quot;primitiveIds&quot;:[&quot;primary&quot;],&quot;resolution&quot;:28}],&quot;id&quot;:&quot;production-bear&quot;,&quot;primitives&quot;:[{&quot;id&quot;:&quot;ear-left&quot;,&quot;materialId&quot;:&quot;ear-left&quot;,&quot;position&quot;:{&quot;x&quot;:-58,&quot;y&quot;:-72,&quot;z&quot;:-18},&quot;productionShape&quot;:&quot;ellipse&quot;,&quot;rotation&quot;:{&quot;x&quot;:-0.06981317007977318,&quot;y&quot;:-0.12217304763960307,&quot;z&quot;:0.13962634015954636},&quot;scale&quot;:{&quot;x&quot;:30.6,&quot;y&quot;:40.120000000000005,&quot;z&quot;:24.400000000000002},&quot;shape&quot;:&quot;ellipse&quot;},{&quot;id&quot;:&quot;ear-right&quot;,&quot;materialId&quot;:&quot;ear-right&quot;,&quot;position&quot;:{&quot;x&quot;:58,&quot;y&quot;:-70,&quot;z&quot;:-20},&quot;productionShape&quot;:&quot;ellipse&quot;,&quot;rotation&quot;:{&quot;x&quot;:-0.05235987755982988,&quot;y&quot;:0.13962634015954636,&quot;z&quot;:-0.12217304763960307},&quot;scale&quot;:{&quot;x&quot;:29.07,&quot;y&quot;:38.940000000000005,&quot;z&quot;:23.18},&quot;shape&quot;:&quot;ellipse&quot;},{&quot;id&quot;:&quot;primary&quot;,&quot;materialId&quot;:&quot;primary&quot;,&quot;position&quot;:{&quot;x&quot;:0,&quot;y&quot;:20,&quot;z&quot;:0},&quot;productionShape&quot;:&quot;trapezoid&quot;,&quot;roundness&quot;:78,&quot;rotation&quot;:{&quot;x&quot;:0,&quot;y&quot;:0,&quot;z&quot;:0},&quot;scale&quot;:{&quot;x&quot;:105.08,&quot;y&quot;:95.03999999999999,&quot;z&quot;:83.52},&quot;shape&quot;:&quot;trapezoid&quot;}],&quot;resolution&quot;:28,&quot;smoothUnionPairs&quot;:[],&quot;smoothUnionRadius&quot;:0}:420:-0.040000:-0.120000" data-avatar-fragment-path-characters="8032" data-avatar-fragment-candidate-tests="170087" data-avatar-fragment-curve-segments="251" data-avatar-fragment-contour-segments="251" data-avatar-fragment-line-segments="0" data-avatar-fragment-max-curve-error="0.120" data-avatar-fragment-shared-curve-reuse="89" data-avatar-fragment-null-owner-pixels="0"><defs><filter id="R0-entity-face-shadow" x="-50%" y="-50%" width="200%" height="200%"><feGaussianBlur stdDeviation="0"></feGaussianBlur></filter><filter id="R0-entity-outline" x="-30%" y="-30%" width="160%" height="160%"><feMorphology in="SourceAlpha" operator="dilate" radius="2" result="expanded"></feMorphology><feFlood flood-color="#2b1d18" flood-opacity="0.84"></feFlood><feComposite in2="expanded" operator="in"></feComposite><feMerge><feMergeNode></feMergeNode><feMergeNode in="SourceGraphic"></feMergeNode></feMerge></filter><clipPath id="R0-compiled-owner-0" clipPathUnits="userSpaceOnUse"><path d="M183.17 126.51Q182.08 126.53 181.00 126.52Q180.44 126.62 180.01 127.01Q179.65 127.15 179.51 127.51Q176.26 127.53 173.00 127.54Q172.44 127.63 172.02 128.02Q171.66 128.16 171.52 128.52Q170.76 128.54 170.00 128.55Q169.44 128.64 169.03 129.03Q168.66 129.16 168.53 129.52Q168.26 129.54 168.00 129.53Q167.44 129.63 167.02 130.02Q166.65 130.15 166.52 130.52Q165.76 130.54 165.00 130.54Q164.44 130.63 164.02 131.02Q163.66 131.15 163.52 131.52Q162.76 131.54 162.00 131.54Q161.44 131.63 161.02 132.02Q160.66 132.15 160.52 132.52Q159.76 132.54 159.00 132.54Q158.44 132.63 158.02 133.02Q157.66 133.15 157.52 133.52Q156.76 133.54 156.00 133.54Q155.44 133.64 155.02 134.02Q154.66 134.16 154.52 134.52Q154.26 134.54 154.00 134.54Q153.44 134.63 153.02 135.02Q152.66 135.15 152.52 135.52Q152.26 135.54 152.00 135.54Q151.44 135.64 151.02 136.02Q150.66 136.16 150.52 136.52Q150.26 136.55 150.00 136.54Q149.44 136.64 149.02 137.02Q147.66 138.16 146.52 139.52Q146.26 139.54 146.00 139.54Q145.44 139.63 145.02 140.02Q144.16 140.65 143.52 141.52Q143.26 141.54 143.00 141.54Q142.44 141.63 142.02 142.02Q141.52 142.52 141.02 143.02Q136.90 146.90 133.02 151.02Q132.63 151.44 132.53 152.00Q132.53 152.26 132.51 152.51Q131.15 153.65 130.01 155.01Q129.63 155.44 129.52 156.00Q129.53 156.26 129.51 156.51Q128.56 157.23 127.83 158.17C126.73 156.84 127.11 157.37 125.82 154.35C123.62 149.22 122.47 143.51 122.22 137.94C121.48 121.68 128.77 103.66 143.66 95.78C144.14 95.52 144.68 95.40 145.21 95.24C147.72 94.52 148.44 94.32 151.09 94.26C152.71 94.23 154.34 94.44 155.96 94.35C156.32 94.33 156.66 94.13 156.97 93.94C157.31 93.72 157.42 93.21 157.92 93.20C158.83 93.17 160.43 94.20 160.91 94.39C161.25 94.52 161.63 94.57 161.99 94.63C162.32 94.67 162.66 94.63 162.99 94.69C163.56 94.80 165.16 95.54 165.39 95.68C167.08 96.64 168.72 97.68 170.36 98.72C170.55 98.84 170.71 98.99 170.86 99.14C173.52 101.69 174.20 102.20 176.26 105.19C180.51 111.35 182.78 119.07 183.17 126.51Z" transform="scale(1)"></path></clipPath><clipPath id="R0-compiled-owner-1" clipPathUnits="userSpaceOnUse"><path d="M292.17 159.84Q291.90 159.53 291.49 159.51Q291.47 159.26 291.48 159.00Q291.37 158.44 290.99 158.01Q290.35 157.15 289.49 156.51Q289.47 156.26 289.47 156.00Q289.37 155.44 288.98 155.02Q288.35 154.15 287.49 153.51Q287.46 153.26 287.46 153.00Q287.36 152.44 286.97 152.03Q282.09 146.91 276.98 142.02Q276.56 141.63 276.00 141.54Q275.74 141.54 275.48 141.52Q274.34 140.16 272.97 139.03Q272.56 138.64 272.00 138.54Q271.74 138.55 271.48 138.52Q270.84 137.66 269.98 137.02Q269.56 136.64 269.00 136.54Q268.74 136.55 268.48 136.52Q267.84 135.66 266.98 135.02Q266.56 134.64 266.00 134.54Q265.24 134.54 264.48 134.52Q264.35 134.15 263.98 134.02Q263.56 133.63 263.00 133.53Q262.24 133.53 261.48 133.51Q261.35 133.15 260.98 133.02Q260.56 132.63 260.00 132.53Q259.74 132.54 259.48 132.52Q259.34 132.15 258.98 132.02Q258.56 131.63 258.00 131.54Q257.24 131.54 256.48 131.52Q256.34 131.15 255.98 131.02Q255.56 130.63 255.00 130.53Q254.74 130.54 254.48 130.52Q254.34 130.16 253.98 130.02Q253.56 129.64 253.00 129.54Q252.24 129.54 251.48 129.52Q251.34 129.16 250.98 129.02Q250.56 128.64 250.00 128.54Q248.74 128.54 247.48 128.51Q247.35 128.15 246.98 128.02Q246.56 127.63 246.00 127.53Q243.12 127.53 240.25 127.51Q239.87 127.25 239.67 126.83C240.23 125.26 239.76 126.75 240.21 124.09C240.61 121.75 241.01 119.88 241.72 117.58C243.52 111.70 246.71 106.47 251.14 102.21C252.35 101.05 252.19 101.70 253.58 100.63C254.13 100.21 254.47 99.52 255.09 99.21C258.16 97.65 257.50 98.54 260.02 98.20C260.42 98.15 260.78 97.94 261.18 97.87C261.62 97.79 262.08 97.86 262.51 97.74C263.12 97.57 263.44 97.22 263.79 96.74C263.96 96.50 263.98 96.08 264.27 95.98C265.13 95.68 266.07 95.64 266.99 95.63C267.32 95.62 267.61 95.86 267.93 95.92C268.90 96.11 269.91 96.13 270.86 96.40C273.77 97.23 276.20 98.07 278.79 99.36C282.91 101.42 286.34 105.17 289.06 108.80C292.22 113.03 294.52 118.10 295.87 123.19C296.70 126.33 296.98 127.42 297.43 130.51C298.46 137.60 297.90 145.06 295.70 151.89C294.80 154.70 293.56 157.25 292.17 159.84Z" transform="scale(1)"></path></clipPath><clipPath id="R0-compiled-owner-2" clipPathUnits="userSpaceOnUse"><path d="M183.17 126.51C185.72 128.35 183.33 126.90 190.00 126.74C194.48 126.63 226.19 126.53 227.00 126.54C229.66 126.57 232.31 126.82 234.96 126.99C235.62 127.03 236.28 127.08 236.94 127.16C237.63 127.24 238.30 127.56 238.98 127.48C239.29 127.44 239.44 127.05 239.67 126.83Q239.87 127.25 240.25 127.51Q243.12 127.53 246.00 127.53Q246.56 127.63 246.98 128.02Q247.35 128.15 247.48 128.51Q248.74 128.54 250.00 128.54Q250.56 128.64 250.98 129.02Q251.34 129.16 251.48 129.52Q252.24 129.54 253.00 129.54Q253.56 129.64 253.98 130.02Q254.34 130.16 254.48 130.52Q254.74 130.54 255.00 130.53Q255.56 130.63 255.98 131.02Q256.34 131.15 256.48 131.52Q257.24 131.54 258.00 131.54Q258.56 131.63 258.98 132.02Q259.34 132.15 259.48 132.52Q259.74 132.54 260.00 132.53Q260.56 132.63 260.98 133.02Q261.35 133.15 261.48 133.51Q262.24 133.53 263.00 133.53Q263.56 133.63 263.98 134.02Q264.35 134.15 264.48 134.52Q265.24 134.54 266.00 134.54Q266.56 134.64 266.98 135.02Q267.84 135.66 268.48 136.52Q268.74 136.55 269.00 136.54Q269.56 136.64 269.98 137.02Q270.84 137.66 271.48 138.52Q271.74 138.55 272.00 138.54Q272.56 138.64 272.97 139.03Q274.34 140.16 275.48 141.52Q275.74 141.54 276.00 141.54Q276.56 141.63 276.98 142.02Q282.09 146.91 286.97 152.03Q287.36 152.44 287.46 153.00Q287.46 153.26 287.49 153.51Q288.35 154.15 288.98 155.02Q289.37 155.44 289.47 156.00Q289.47 156.26 289.49 156.51Q290.35 157.15 290.99 158.01Q291.37 158.44 291.48 159.00Q291.47 159.26 291.49 159.51Q291.90 159.53 292.17 159.84C292.16 160.12 292.03 160.44 292.16 160.69C293.23 162.89 294.63 164.93 295.71 167.13C299.45 174.75 302.22 182.83 304.31 191.04C307.49 203.52 309.26 216.34 311.01 229.07C312.06 236.68 313.02 244.31 313.29 252.00C313.47 257.22 313.47 262.68 312.63 267.85C311.62 274.08 311.42 275.73 309.15 281.89C308.69 283.13 308.01 284.28 307.42 285.46C306.69 286.90 306.09 288.42 305.18 289.76C304.18 291.21 300.94 295.47 298.75 297.76C298.60 297.92 298.45 298.08 298.27 298.22C296.79 299.41 295.29 300.57 293.79 301.73C292.14 303.01 290.64 304.54 288.80 305.54C285.58 307.27 282.09 308.42 278.73 309.85C277.44 310.41 276.15 310.97 274.84 311.48C274.50 311.61 274.13 311.66 273.79 311.79C272.13 312.42 273.46 312.35 270.90 313.05C267.54 313.98 263.23 314.37 259.93 314.67C245.01 316.03 229.96 315.94 215.00 316.02C200.32 316.10 185.69 316.30 171.04 315.58C164.77 315.27 158.33 315.05 152.15 313.81C150.71 313.52 149.51 313.18 148.16 312.61C143.14 310.50 138.13 308.35 133.14 306.18C129.41 304.55 124.52 299.84 122.64 298.32C117.43 294.12 114.70 288.12 111.86 282.32C109.33 277.16 107.95 270.58 107.26 264.87C105.71 251.96 107.24 238.87 109.05 226.08C109.71 221.41 110.39 216.74 111.09 212.08C112.26 204.39 113.60 196.70 115.54 189.16C117.53 181.42 120.11 173.77 123.70 166.61C124.97 164.09 126.60 161.75 127.84 159.22C127.99 158.90 127.84 158.52 127.83 158.17Q128.56 157.23 129.51 156.51Q129.53 156.26 129.52 156.00Q129.63 155.44 130.01 155.01Q131.15 153.65 132.51 152.51Q132.53 152.26 132.53 152.00Q132.63 151.44 133.02 151.02Q136.90 146.90 141.02 143.02Q141.52 142.52 142.02 142.02Q142.44 141.63 143.00 141.54Q143.26 141.54 143.52 141.52Q144.16 140.65 145.02 140.02Q145.44 139.63 146.00 139.54Q146.26 139.54 146.52 139.52Q147.66 138.16 149.02 137.02Q149.44 136.64 150.00 136.54Q150.26 136.55 150.52 136.52Q150.66 136.16 151.02 136.02Q151.44 135.64 152.00 135.54Q152.26 135.54 152.52 135.52Q152.66 135.15 153.02 135.02Q153.44 134.63 154.00 134.54Q154.26 134.54 154.52 134.52Q154.66 134.16 155.02 134.02Q155.44 133.64 156.00 133.54Q156.76 133.54 157.52 133.52Q157.66 133.15 158.02 133.02Q158.44 132.63 159.00 132.54Q159.76 132.54 160.52 132.52Q160.66 132.15 161.02 132.02Q161.44 131.63 162.00 131.54Q162.76 131.54 163.52 131.52Q163.66 131.15 164.02 131.02Q164.44 130.63 165.00 130.54Q165.76 130.54 166.52 130.52Q166.65 130.15 167.02 130.02Q167.44 129.63 168.00 129.53Q168.26 129.54 168.53 129.52Q168.66 129.16 169.03 129.03Q169.44 128.64 170.00 128.55Q170.76 128.54 171.52 128.52Q171.66 128.16 172.02 128.02Q172.44 127.63 173.00 127.54Q176.26 127.53 179.51 127.51Q179.65 127.15 180.01 127.01Q180.44 126.62 181.00 126.52Q182.08 126.53 183.17 126.51Z" transform="scale(1)"></path></clipPath><clipPath id="R0-entity-eye-0-highlight-clip"><path d="M 173.334 162.855 L 176.019 163.268 L 178.552 164.179 L 180.835 165.554 L 182.782 167.341 L 184.316 169.470 L 185.380 171.861 L 185.933 174.420 L 185.952 177.050 L 185.570 181.112 L 185.192 185.187 L 184.818 189.273 L 184.448 193.372 L 184.083 197.483 L 183.721 201.605 L 183.363 205.740 L 183.010 209.888 L 182.517 212.550 L 181.508 215.080 L 180.025 217.380 L 178.122 219.362 L 175.873 220.949 L 173.365 222.081 L 170.694 222.714 L 167.963 222.823 L 167.963 222.823 L 167.963 222.823 L 167.963 222.823 L 167.963 222.823 L 167.963 222.823 L 167.963 222.823 L 167.963 222.823 L 167.963 222.823 L 165.275 222.404 L 162.736 221.472 L 160.442 220.065 L 158.480 218.234 L 156.928 216.052 L 155.844 213.601 L 155.270 210.976 L 155.228 208.279 L 155.580 204.127 L 155.937 199.989 L 156.298 195.864 L 156.663 191.753 L 157.033 187.655 L 157.408 183.571 L 157.787 179.500 L 158.171 175.443 L 158.686 172.847 L 159.716 170.382 L 161.220 168.142 L 163.141 166.214 L 165.404 164.670 L 167.923 163.570 L 170.600 162.958 L 173.334 162.855 L 173.334 162.855 L 173.334 162.855 L 173.334 162.855 L 173.334 162.855 L 173.334 162.855 L 173.334 162.855 L 173.334 162.855 Z"></path></clipPath><clipPath id="R0-entity-eye-1-highlight-clip"><path d="M 240.383 162.534 L 243.157 162.610 L 245.869 163.197 L 248.416 164.272 L 250.699 165.794 L 252.630 167.705 L 254.136 169.930 L 255.159 172.385 L 255.659 174.976 L 256.016 179.029 L 256.378 183.097 L 256.745 187.177 L 257.116 191.272 L 257.491 195.379 L 257.871 199.500 L 258.256 203.635 L 258.645 207.784 L 258.627 210.481 L 258.067 213.111 L 256.988 215.572 L 255.431 217.770 L 253.455 219.619 L 251.136 221.049 L 248.564 222.005 L 245.838 222.450 L 245.838 222.450 L 245.838 222.450 L 245.838 222.450 L 245.838 222.450 L 245.838 222.450 L 245.838 222.450 L 245.838 222.450 L 245.838 222.450 L 243.062 222.367 L 240.342 221.760 L 237.785 220.652 L 235.487 219.087 L 233.538 217.123 L 232.012 214.838 L 230.968 212.318 L 230.446 209.660 L 230.058 205.516 L 229.675 201.385 L 229.295 197.266 L 228.920 193.159 L 228.549 189.064 L 228.181 184.981 L 227.818 180.910 L 227.459 176.851 L 227.500 174.221 L 228.081 171.656 L 229.180 169.255 L 230.755 167.111 L 232.746 165.305 L 235.075 163.908 L 237.654 162.972 L 240.383 162.534 L 240.383 162.534 L 240.383 162.534 L 240.383 162.534 L 240.383 162.534 L 240.383 162.534 L 240.383 162.534 L 240.383 162.534 Z"></path></clipPath></defs><g filter="url(#R0-entity-outline)"><g data-avatar-entity-part="ear-left" data-avatar-fragment-interaction-area="2235" data-avatar-fragment-interaction-ratio="1" data-avatar-fragment-raw-visible-area="2235" data-avatar-fragment-visible-area="2235" data-avatar-part-geometry="compiled-owner"><g data-avatar-compiled-base-layer="ear-left"><path data-avatar-compiled-base="ear-left" d="M183.17 126.51Q182.08 126.53 181.00 126.52Q180.44 126.62 180.01 127.01Q179.65 127.15 179.51 127.51Q176.26 127.53 173.00 127.54Q172.44 127.63 172.02 128.02Q171.66 128.16 171.52 128.52Q170.76 128.54 170.00 128.55Q169.44 128.64 169.03 129.03Q168.66 129.16 168.53 129.52Q168.26 129.54 168.00 129.53Q167.44 129.63 167.02 130.02Q166.65 130.15 166.52 130.52Q165.76 130.54 165.00 130.54Q164.44 130.63 164.02 131.02Q163.66 131.15 163.52 131.52Q162.76 131.54 162.00 131.54Q161.44 131.63 161.02 132.02Q160.66 132.15 160.52 132.52Q159.76 132.54 159.00 132.54Q158.44 132.63 158.02 133.02Q157.66 133.15 157.52 133.52Q156.76 133.54 156.00 133.54Q155.44 133.64 155.02 134.02Q154.66 134.16 154.52 134.52Q154.26 134.54 154.00 134.54Q153.44 134.63 153.02 135.02Q152.66 135.15 152.52 135.52Q152.26 135.54 152.00 135.54Q151.44 135.64 151.02 136.02Q150.66 136.16 150.52 136.52Q150.26 136.55 150.00 136.54Q149.44 136.64 149.02 137.02Q147.66 138.16 146.52 139.52Q146.26 139.54 146.00 139.54Q145.44 139.63 145.02 140.02Q144.16 140.65 143.52 141.52Q143.26 141.54 143.00 141.54Q142.44 141.63 142.02 142.02Q141.52 142.52 141.02 143.02Q136.90 146.90 133.02 151.02Q132.63 151.44 132.53 152.00Q132.53 152.26 132.51 152.51Q131.15 153.65 130.01 155.01Q129.63 155.44 129.52 156.00Q129.53 156.26 129.51 156.51Q128.56 157.23 127.83 158.17C126.73 156.84 127.11 157.37 125.82 154.35C123.62 149.22 122.47 143.51 122.22 137.94C121.48 121.68 128.77 103.66 143.66 95.78C144.14 95.52 144.68 95.40 145.21 95.24C147.72 94.52 148.44 94.32 151.09 94.26C152.71 94.23 154.34 94.44 155.96 94.35C156.32 94.33 156.66 94.13 156.97 93.94C157.31 93.72 157.42 93.21 157.92 93.20C158.83 93.17 160.43 94.20 160.91 94.39C161.25 94.52 161.63 94.57 161.99 94.63C162.32 94.67 162.66 94.63 162.99 94.69C163.56 94.80 165.16 95.54 165.39 95.68C167.08 96.64 168.72 97.68 170.36 98.72C170.55 98.84 170.71 98.99 170.86 99.14C173.52 101.69 174.20 102.20 176.26 105.19C180.51 111.35 182.78 119.07 183.17 126.51Z" fill="#a95f47" transform="scale(1)"></path></g><g data-avatar-compiled-surface-layer="ear-left" clip-path="url(#R0-compiled-owner-0)"><g transform="translate(-57.23379817097731 -69.05146741134483)"><g></g></g></g></g><g data-avatar-entity-part="ear-right" data-avatar-fragment-interaction-area="2043" data-avatar-fragment-interaction-ratio="1" data-avatar-fragment-raw-visible-area="2043" data-avatar-fragment-visible-area="2043" data-avatar-part-geometry="compiled-owner"><g data-avatar-compiled-base-layer="ear-right"><path data-avatar-compiled-base="ear-right" d="M292.17 159.84Q291.90 159.53 291.49 159.51Q291.47 159.26 291.48 159.00Q291.37 158.44 290.99 158.01Q290.35 157.15 289.49 156.51Q289.47 156.26 289.47 156.00Q289.37 155.44 288.98 155.02Q288.35 154.15 287.49 153.51Q287.46 153.26 287.46 153.00Q287.36 152.44 286.97 152.03Q282.09 146.91 276.98 142.02Q276.56 141.63 276.00 141.54Q275.74 141.54 275.48 141.52Q274.34 140.16 272.97 139.03Q272.56 138.64 272.00 138.54Q271.74 138.55 271.48 138.52Q270.84 137.66 269.98 137.02Q269.56 136.64 269.00 136.54Q268.74 136.55 268.48 136.52Q267.84 135.66 266.98 135.02Q266.56 134.64 266.00 134.54Q265.24 134.54 264.48 134.52Q264.35 134.15 263.98 134.02Q263.56 133.63 263.00 133.53Q262.24 133.53 261.48 133.51Q261.35 133.15 260.98 133.02Q260.56 132.63 260.00 132.53Q259.74 132.54 259.48 132.52Q259.34 132.15 258.98 132.02Q258.56 131.63 258.00 131.54Q257.24 131.54 256.48 131.52Q256.34 131.15 255.98 131.02Q255.56 130.63 255.00 130.53Q254.74 130.54 254.48 130.52Q254.34 130.16 253.98 130.02Q253.56 129.64 253.00 129.54Q252.24 129.54 251.48 129.52Q251.34 129.16 250.98 129.02Q250.56 128.64 250.00 128.54Q248.74 128.54 247.48 128.51Q247.35 128.15 246.98 128.02Q246.56 127.63 246.00 127.53Q243.12 127.53 240.25 127.51Q239.87 127.25 239.67 126.83C240.23 125.26 239.76 126.75 240.21 124.09C240.61 121.75 241.01 119.88 241.72 117.58C243.52 111.70 246.71 106.47 251.14 102.21C252.35 101.05 252.19 101.70 253.58 100.63C254.13 100.21 254.47 99.52 255.09 99.21C258.16 97.65 257.50 98.54 260.02 98.20C260.42 98.15 260.78 97.94 261.18 97.87C261.62 97.79 262.08 97.86 262.51 97.74C263.12 97.57 263.44 97.22 263.79 96.74C263.96 96.50 263.98 96.08 264.27 95.98C265.13 95.68 266.07 95.64 266.99 95.63C267.32 95.62 267.61 95.86 267.93 95.92C268.90 96.11 269.91 96.13 270.86 96.40C273.77 97.23 276.20 98.07 278.79 99.36C282.91 101.42 286.34 105.17 289.06 108.80C292.22 113.03 294.52 118.10 295.87 123.19C296.70 126.33 296.98 127.42 297.43 130.51C298.46 137.60 297.90 145.06 295.70 151.89C294.80 154.70 293.56 157.25 292.17 159.84Z" fill="#a95f47" transform="scale(1)"></path></g><g data-avatar-compiled-surface-layer="ear-right" clip-path="url(#R0-compiled-owner-1)"><g transform="translate(58.753392870069405 -67.38193376881922)"><g></g></g></g></g><g data-avatar-entity-part="primary" data-avatar-fragment-interaction-area="33716" data-avatar-fragment-interaction-ratio="1" data-avatar-fragment-raw-visible-area="33716" data-avatar-fragment-visible-area="33716" data-avatar-part-geometry="compiled-owner"><g data-avatar-compiled-base-layer="primary"><path data-avatar-compiled-base="primary" d="M183.17 126.51C185.72 128.35 183.33 126.90 190.00 126.74C194.48 126.63 226.19 126.53 227.00 126.54C229.66 126.57 232.31 126.82 234.96 126.99C235.62 127.03 236.28 127.08 236.94 127.16C237.63 127.24 238.30 127.56 238.98 127.48C239.29 127.44 239.44 127.05 239.67 126.83Q239.87 127.25 240.25 127.51Q243.12 127.53 246.00 127.53Q246.56 127.63 246.98 128.02Q247.35 128.15 247.48 128.51Q248.74 128.54 250.00 128.54Q250.56 128.64 250.98 129.02Q251.34 129.16 251.48 129.52Q252.24 129.54 253.00 129.54Q253.56 129.64 253.98 130.02Q254.34 130.16 254.48 130.52Q254.74 130.54 255.00 130.53Q255.56 130.63 255.98 131.02Q256.34 131.15 256.48 131.52Q257.24 131.54 258.00 131.54Q258.56 131.63 258.98 132.02Q259.34 132.15 259.48 132.52Q259.74 132.54 260.00 132.53Q260.56 132.63 260.98 133.02Q261.35 133.15 261.48 133.51Q262.24 133.53 263.00 133.53Q263.56 133.63 263.98 134.02Q264.35 134.15 264.48 134.52Q265.24 134.54 266.00 134.54Q266.56 134.64 266.98 135.02Q267.84 135.66 268.48 136.52Q268.74 136.55 269.00 136.54Q269.56 136.64 269.98 137.02Q270.84 137.66 271.48 138.52Q271.74 138.55 272.00 138.54Q272.56 138.64 272.97 139.03Q274.34 140.16 275.48 141.52Q275.74 141.54 276.00 141.54Q276.56 141.63 276.98 142.02Q282.09 146.91 286.97 152.03Q287.36 152.44 287.46 153.00Q287.46 153.26 287.49 153.51Q288.35 154.15 288.98 155.02Q289.37 155.44 289.47 156.00Q289.47 156.26 289.49 156.51Q290.35 157.15 290.99 158.01Q291.37 158.44 291.48 159.00Q291.47 159.26 291.49 159.51Q291.90 159.53 292.17 159.84C292.16 160.12 292.03 160.44 292.16 160.69C293.23 162.89 294.63 164.93 295.71 167.13C299.45 174.75 302.22 182.83 304.31 191.04C307.49 203.52 309.26 216.34 311.01 229.07C312.06 236.68 313.02 244.31 313.29 252.00C313.47 257.22 313.47 262.68 312.63 267.85C311.62 274.08 311.42 275.73 309.15 281.89C308.69 283.13 308.01 284.28 307.42 285.46C306.69 286.90 306.09 288.42 305.18 289.76C304.18 291.21 300.94 295.47 298.75 297.76C298.60 297.92 298.45 298.08 298.27 298.22C296.79 299.41 295.29 300.57 293.79 301.73C292.14 303.01 290.64 304.54 288.80 305.54C285.58 307.27 282.09 308.42 278.73 309.85C277.44 310.41 276.15 310.97 274.84 311.48C274.50 311.61 274.13 311.66 273.79 311.79C272.13 312.42 273.46 312.35 270.90 313.05C267.54 313.98 263.23 314.37 259.93 314.67C245.01 316.03 229.96 315.94 215.00 316.02C200.32 316.10 185.69 316.30 171.04 315.58C164.77 315.27 158.33 315.05 152.15 313.81C150.71 313.52 149.51 313.18 148.16 312.61C143.14 310.50 138.13 308.35 133.14 306.18C129.41 304.55 124.52 299.84 122.64 298.32C117.43 294.12 114.70 288.12 111.86 282.32C109.33 277.16 107.95 270.58 107.26 264.87C105.71 251.96 107.24 238.87 109.05 226.08C109.71 221.41 110.39 216.74 111.09 212.08C112.26 204.39 113.60 196.70 115.54 189.16C117.53 181.42 120.11 173.77 123.70 166.61C124.97 164.09 126.60 161.75 127.84 159.22C127.99 158.90 127.84 158.52 127.83 158.17Q128.56 157.23 129.51 156.51Q129.53 156.26 129.52 156.00Q129.63 155.44 130.01 155.01Q131.15 153.65 132.51 152.51Q132.53 152.26 132.53 152.00Q132.63 151.44 133.02 151.02Q136.90 146.90 141.02 143.02Q141.52 142.52 142.02 142.02Q142.44 141.63 143.00 141.54Q143.26 141.54 143.52 141.52Q144.16 140.65 145.02 140.02Q145.44 139.63 146.00 139.54Q146.26 139.54 146.52 139.52Q147.66 138.16 149.02 137.02Q149.44 136.64 150.00 136.54Q150.26 136.55 150.52 136.52Q150.66 136.16 151.02 136.02Q151.44 135.64 152.00 135.54Q152.26 135.54 152.52 135.52Q152.66 135.15 153.02 135.02Q153.44 134.63 154.00 134.54Q154.26 134.54 154.52 134.52Q154.66 134.16 155.02 134.02Q155.44 133.64 156.00 133.54Q156.76 133.54 157.52 133.52Q157.66 133.15 158.02 133.02Q158.44 132.63 159.00 132.54Q159.76 132.54 160.52 132.52Q160.66 132.15 161.02 132.02Q161.44 131.63 162.00 131.54Q162.76 131.54 163.52 131.52Q163.66 131.15 164.02 131.02Q164.44 130.63 165.00 130.54Q165.76 130.54 166.52 130.52Q166.65 130.15 167.02 130.02Q167.44 129.63 168.00 129.53Q168.26 129.54 168.53 129.52Q168.66 129.16 169.03 129.03Q169.44 128.64 170.00 128.55Q170.76 128.54 171.52 128.52Q171.66 128.16 172.02 128.02Q172.44 127.63 173.00 127.54Q176.26 127.53 179.51 127.51Q179.65 127.15 180.01 127.01Q180.44 126.62 181.00 126.52Q182.08 126.53 183.17 126.51Z" fill="#e3b17f" transform="scale(1)"></path></g><g data-avatar-compiled-surface-layer="primary" clip-path="url(#R0-compiled-owner-2)"><g transform="translate(0 19.856172717077325)"><g><g data-avatar-face-surface-layer="primary"><path data-avatar-face-feature="eye-0" d="M 173.334 162.855 L 176.019 163.268 L 178.552 164.179 L 180.835 165.554 L 182.782 167.341 L 184.316 169.470 L 185.380 171.861 L 185.933 174.420 L 185.952 177.050 L 185.570 181.112 L 185.192 185.187 L 184.818 189.273 L 184.448 193.372 L 184.083 197.483 L 183.721 201.605 L 183.363 205.740 L 183.010 209.888 L 182.517 212.550 L 181.508 215.080 L 180.025 217.380 L 178.122 219.362 L 175.873 220.949 L 173.365 222.081 L 170.694 222.714 L 167.963 222.823 L 167.963 222.823 L 167.963 222.823 L 167.963 222.823 L 167.963 222.823 L 167.963 222.823 L 167.963 222.823 L 167.963 222.823 L 167.963 222.823 L 165.275 222.404 L 162.736 221.472 L 160.442 220.065 L 158.480 218.234 L 156.928 216.052 L 155.844 213.601 L 155.270 210.976 L 155.228 208.279 L 155.580 204.127 L 155.937 199.989 L 156.298 195.864 L 156.663 191.753 L 157.033 187.655 L 157.408 183.571 L 157.787 179.500 L 158.171 175.443 L 158.686 172.847 L 159.716 170.382 L 161.220 168.142 L 163.141 166.214 L 165.404 164.670 L 167.923 163.570 L 170.600 162.958 L 173.334 162.855 L 173.334 162.855 L 173.334 162.855 L 173.334 162.855 L 173.334 162.855 L 173.334 162.855 L 173.334 162.855 L 173.334 162.855 Z" fill="#2b1d18"></path><path data-avatar-face-feature="eye-1" d="M 240.383 162.534 L 243.157 162.610 L 245.869 163.197 L 248.416 164.272 L 250.699 165.794 L 252.630 167.705 L 254.136 169.930 L 255.159 172.385 L 255.659 174.976 L 256.016 179.029 L 256.378 183.097 L 256.745 187.177 L 257.116 191.272 L 257.491 195.379 L 257.871 199.500 L 258.256 203.635 L 258.645 207.784 L 258.627 210.481 L 258.067 213.111 L 256.988 215.572 L 255.431 217.770 L 253.455 219.619 L 251.136 221.049 L 248.564 222.005 L 245.838 222.450 L 245.838 222.450 L 245.838 222.450 L 245.838 222.450 L 245.838 222.450 L 245.838 222.450 L 245.838 222.450 L 245.838 222.450 L 245.838 222.450 L 243.062 222.367 L 240.342 221.760 L 237.785 220.652 L 235.487 219.087 L 233.538 217.123 L 232.012 214.838 L 230.968 212.318 L 230.446 209.660 L 230.058 205.516 L 229.675 201.385 L 229.295 197.266 L 228.920 193.159 L 228.549 189.064 L 228.181 184.981 L 227.818 180.910 L 227.459 176.851 L 227.500 174.221 L 228.081 171.656 L 229.180 169.255 L 230.755 167.111 L 232.746 165.305 L 235.075 163.908 L 237.654 162.972 L 240.383 162.534 L 240.383 162.534 L 240.383 162.534 L 240.383 162.534 L 240.383 162.534 L 240.383 162.534 L 240.383 162.534 L 240.383 162.534 Z" fill="#2b1d18"></path><path data-avatar-face-feature="nose" d="M 217.417 212.078 L 217.289 212.986 L 216.900 213.871 L 216.259 214.713 L 215.383 215.490 L 214.292 216.185 L 213.015 216.779 L 211.581 217.258 L 210.028 217.611 L 208.393 217.830 L 206.716 217.909 L 205.038 217.846 L 203.402 217.643 L 201.847 217.305 L 200.411 216.839 L 199.130 216.257 L 198.035 215.574 L 197.153 214.805 L 196.506 213.969 L 196.110 213.087 L 195.974 212.181 L 196.101 211.273 L 196.489 210.384 L 197.129 209.538 L 198.003 208.755 L 199.091 208.054 L 200.367 207.454 L 201.798 206.968 L 203.350 206.610 L 204.984 206.389 L 206.661 206.309 L 208.339 206.373 L 209.976 206.579 L 211.533 206.922 L 212.970 207.393 L 214.254 207.982 L 215.351 208.672 L 216.234 209.446 L 216.883 210.287 L 217.280 211.171 Z" fill="#2b1d18"></path></g></g></g></g></g></g></g></g></svg>
