<svg xmlns="http://www.w3.org/2000/svg" class="interactive-avatar__canvas" viewBox="0 0 420 420" aria-hidden="true" focusable="false"><defs><clipPath id="R0-clip"><path d=""></path></clipPath><filter id="R0-face-shadow-blur" x="-50%" y="-50%" width="200%" height="200%"><feGaussianBlur stdDeviation="0"></feGaussianBlur></filter><filter id="R0-avatar-shadow" x="-100%" y="-100%" width="300%" height="300%"><feDropShadow dx="0" dy="0" stdDeviation="0" flood-color="#a86a1a" flood-opacity="0"></feDropShadow></filter></defs><g transform="translate(5 29) translate(210 210) rotate(0) scale(1.46) translate(-210 -210)"><g data-avatar-entity-fragment-root="true" data-avatar-entity-preset="bear" data-avatar-fragment-composition="compiled-owner-partition" data-avatar-fragment-build-count="1" data-avatar-fragment-compile-count="1" data-avatar-fragment-drag-build-samples="0" data-avatar-fragment-quality="full" data-avatar-fragment-raster-size="420" data-avatar-fragment-revision="{&quot;groups&quot;:[{&quot;id&quot;:&quot;anatomy-ear-left&quot;,&quot;primitiveIds&quot;:[&quot;ear-left&quot;],&quot;resolution&quot;:28},{&quot;id&quot;:&quot;anatomy-ear-right&quot;,&quot;primitiveIds&quot;:[&quot;ear-right&quot;],&quot;resolution&quot;:28},{&quot;id&quot;:&quot;anatomy-primary&quot;,&quot;primitiveIds&quot;:[&quot;primary&quot;],&quot;resolution&quot;:28}],&quot;id&quot;:&quot;production-bear&quot;,&quot;primitives&quot;:[{&quot;id&quot;:&quot;ear-left&quot;,&quot;materialId&quot;:&quot;ear-left&quot;,&quot;position&quot;:{&quot;x&quot;:-58,&quot;y&quot;:-72,&quot;z&quot;:-18},&quot;productionShape&quot;:&quot;ellipse&quot;,&quot;rotation&quot;:{&quot;x&quot;:-0.06981317007977318,&quot;y&quot;:-0.12217304763960307,&quot;z&quot;:0.13962634015954636},&quot;scale&quot;:{&quot;x&quot;:30.6,&quot;y&quot;:40.120000000000005,&quot;z&quot;:24.400000000000002},&quot;shape&quot;:&quot;ellipse&quot;},{&quot;id&quot;:&quot;ear-right&quot;,&quot;materialId&quot;:&quot;ear-right&quot;,&quot;position&quot;:{&quot;x&quot;:58,&quot;y&quot;:-70,&quot;z&quot;:-20},&quot;productionShape&quot;:&quot;ellipse&quot;,&quot;rotation&quot;:{&quot;x&quot;:-0.05235987755982988,&quot;y&quot;:0.13962634015954636,&quot;z&quot;:-0.12217304763960307},&quot;scale&quot;:{&quot;x&quot;:29.07,&quot;y&quot;:38.940000000000005,&quot;z&quot;:23.18},&quot;shape&quot;:&quot;ellipse&quot;},{&quot;id&quot;:&quot;primary&quot;,&quot;materialId&quot;:&quot;primary&quot;,&quot;position&quot;:{&quot;x&quot;:0,&quot;y&quot;:20,&quot;z&quot;:0},&quot;productionShape&quot;:&quot;trapezoid&quot;,&quot;roundness&quot;:78,&quot;rotation&quot;:{&quot;x&quot;:0,&quot;y&quot;:0,&quot;z&quot;:0},&quot;scale&quot;:{&quot;x&quot;:105.08,&quot;y&quot;:95.03999999999999,&quot;z&quot;:83.52},&quot;shape&quot;:&quot;trapezoid&quot;}],&quot;resolution&quot;:28,&quot;smoothUnionPairs&quot;:[],&quot;smoothUnionRadius&quot;:0}:420:0.220000:-0.150000" data-avatar-fragment-path-characters="7770" data-avatar-fragment-candidate-tests="176801" data-avatar-fragment-curve-segments="241" data-avatar-fragment-contour-segments="241" data-avatar-fragment-line-segments="0" data-avatar-fragment-max-curve-error="0.125" data-avatar-fragment-shared-curve-reuse="84" data-avatar-fragment-null-owner-pixels="0"><defs><filter id="R0-entity-face-shadow" x="-50%" y="-50%" width="200%" height="200%"><feGaussianBlur stdDeviation="0"></feGaussianBlur></filter><filter id="R0-entity-outline" x="-30%" y="-30%" width="160%" height="160%"><feMorphology in="SourceAlpha" operator="dilate" radius="2" result="expanded"></feMorphology><feFlood flood-color="#2b1d18" flood-opacity="0.84"></feFlood><feComposite in2="expanded" operator="in"></feComposite><feMerge><feMergeNode></feMergeNode><feMergeNode in="SourceGraphic"></feMergeNode></feMerge></filter><clipPath id="R0-compiled-owner-0" clipPathUnits="userSpaceOnUse"><path d="M180.17 126.51Q178.08 126.54 176.00 126.54Q175.44 126.64 175.02 127.02Q174.66 127.16 174.52 127.52Q173.76 127.55 173.00 127.56Q172.45 127.65 172.04 128.04Q171.67 128.17 171.54 128.53Q171.27 128.56 171.00 128.58Q170.45 128.67 170.05 129.05Q169.69 129.17 169.55 129.52Q168.78 129.54 168.00 129.54Q167.44 129.64 167.02 130.02Q166.66 130.16 166.52 130.52Q165.76 130.55 165.00 130.55Q164.44 130.65 164.03 131.03Q163.67 131.16 163.53 131.52Q162.77 131.55 162.00 131.56Q161.45 131.65 161.04 132.04Q160.68 132.16 160.54 132.52Q160.27 132.55 160.00 132.54Q159.44 132.64 159.02 133.02Q158.66 133.16 158.52 133.52Q157.76 133.56 157.00 133.56Q156.45 133.66 156.04 134.04Q155.67 134.17 155.54 134.53Q155.27 134.58 155.00 134.59Q154.46 134.68 154.06 135.06Q153.19 135.68 152.54 136.53Q152.27 136.58 152.00 136.60Q151.46 136.69 151.07 137.07Q150.20 137.69 149.54 138.53Q149.23 138.53 149.00 138.73Q148.27 139.01 147.70 139.55Q147.28 139.67 147.05 140.05Q146.18 140.68 145.53 141.53Q145.27 141.58 145.00 141.59Q144.46 141.68 144.05 142.05Q143.19 142.69 142.55 143.55Q141.72 144.23 141.12 145.11Q137.23 148.73 133.56 152.58Q132.66 153.69 131.77 154.81Q131.11 155.12 130.61 155.66Q129.80 156.34 129.24 157.24Q128.89 157.54 128.82 158.00Q128.66 158.28 128.58 158.58Q127.60 159.27 126.83 160.20C125.39 159.12 124.31 156.90 123.57 155.47C121.53 151.54 120.16 147.27 119.41 142.92C117.55 132.09 119.37 120.25 124.61 110.56C125.85 108.27 127.25 106.33 128.81 104.23C131.12 101.13 134.00 98.45 137.25 96.39C139.49 94.97 141.61 93.87 144.20 93.31C145.94 92.94 147.15 92.83 149.03 92.83C150.34 92.84 151.65 93.09 152.96 93.00C153.25 92.98 153.38 92.52 153.66 92.50C153.95 92.47 154.16 92.96 154.44 92.88C154.77 92.79 154.81 92.26 155.11 92.10C155.35 91.97 155.65 92.05 155.91 92.10C156.56 92.22 158.42 93.17 158.66 93.25C159.69 93.59 160.78 93.72 161.81 94.04C162.12 94.14 162.39 94.33 162.66 94.50C163.68 95.15 164.66 95.86 165.68 96.52C166.25 96.90 166.91 97.16 167.43 97.61C168.68 98.67 169.85 99.82 170.94 101.05C177.13 108.00 179.66 117.42 180.17 126.51Z" transform="scale(1)"></path></clipPath><clipPath id="R0-compiled-owner-1" clipPathUnits="userSpaceOnUse"><path d="M289.17 151.17Q284.69 146.48 279.99 142.01Q279.57 141.62 279.00 141.52Q278.74 141.53 278.49 141.51Q277.85 140.65 276.99 140.01Q276.56 139.62 276.00 139.52Q275.74 139.53 275.49 139.51Q274.35 138.15 272.98 137.02Q272.56 136.63 272.00 136.53Q271.74 136.53 271.49 136.51Q271.35 136.15 270.99 136.01Q270.56 135.63 270.00 135.53Q269.74 135.53 269.49 135.51Q269.35 135.15 268.99 135.01Q268.56 134.63 268.00 134.53Q267.74 134.53 267.49 134.51Q267.35 134.15 266.99 134.01Q266.56 133.63 266.00 133.53Q265.24 133.53 264.49 133.51Q264.35 133.15 263.99 133.01Q263.56 132.63 263.00 132.53Q262.24 132.53 261.49 132.51Q261.35 132.15 260.99 132.01Q260.56 131.63 260.00 131.53Q259.24 131.53 258.49 131.51Q258.35 131.15 257.99 131.01Q257.56 130.63 257.00 130.53Q256.24 130.53 255.49 130.51Q255.35 130.15 254.99 130.01Q254.56 129.63 254.00 129.53Q253.74 129.53 253.48 129.51Q253.35 129.15 252.98 129.02Q252.56 128.63 252.00 128.53Q251.24 128.53 250.48 128.51Q250.35 128.15 249.98 128.02Q249.56 127.63 249.00 127.53Q246.74 127.53 244.49 127.51Q244.35 127.15 243.99 127.01Q243.56 126.62 243.00 126.52Q238.42 126.53 233.83 126.51C235.44 125.61 234.36 126.45 235.15 123.18C235.90 120.08 236.93 117.02 238.38 114.17C240.11 110.73 242.31 107.79 245.08 105.12C246.02 104.21 246.48 104.32 247.52 103.53C248.42 102.85 248.93 101.97 250.03 101.65C251.05 101.35 252.10 101.15 253.14 100.94C253.42 100.88 253.71 100.87 254.00 100.85C254.33 100.84 254.67 100.90 255.00 100.86C255.51 100.79 256.01 100.66 256.50 100.51C257.64 100.17 256.95 100.08 258.10 99.22C258.81 98.68 260.32 98.55 261.01 98.64C264.79 99.13 267.31 100.30 270.88 101.76C271.43 101.99 271.99 102.20 272.48 102.54C273.86 103.47 275.15 104.52 276.47 105.54C276.65 105.68 276.83 105.84 276.99 106.01C279.34 108.38 280.23 109.19 282.08 111.82C286.71 118.40 289.34 126.08 290.35 134.01C290.83 137.81 290.83 141.69 290.44 145.50C290.40 145.96 289.90 149.95 289.56 150.91C289.50 151.06 289.30 151.09 289.17 151.17Z" transform="scale(1)"></path></clipPath><clipPath id="R0-compiled-owner-2" clipPathUnits="userSpaceOnUse"><path d="M233.83 126.51Q238.42 126.53 243.00 126.52Q243.56 126.62 243.99 127.01Q244.35 127.15 244.49 127.51Q246.74 127.53 249.00 127.53Q249.56 127.63 249.98 128.02Q250.35 128.15 250.48 128.51Q251.24 128.53 252.00 128.53Q252.56 128.63 252.98 129.02Q253.35 129.15 253.48 129.51Q253.74 129.53 254.00 129.53Q254.56 129.63 254.99 130.01Q255.35 130.15 255.49 130.51Q256.24 130.53 257.00 130.53Q257.56 130.63 257.99 131.01Q258.35 131.15 258.49 131.51Q259.24 131.53 260.00 131.53Q260.56 131.63 260.99 132.01Q261.35 132.15 261.49 132.51Q262.24 132.53 263.00 132.53Q263.56 132.63 263.99 133.01Q264.35 133.15 264.49 133.51Q265.24 133.53 266.00 133.53Q266.56 133.63 266.99 134.01Q267.35 134.15 267.49 134.51Q267.74 134.53 268.00 134.53Q268.56 134.63 268.99 135.01Q269.35 135.15 269.49 135.51Q269.74 135.53 270.00 135.53Q270.56 135.63 270.99 136.01Q271.35 136.15 271.49 136.51Q271.74 136.53 272.00 136.53Q272.56 136.63 272.98 137.02Q274.35 138.15 275.49 139.51Q275.74 139.53 276.00 139.52Q276.56 139.62 276.99 140.01Q277.85 140.65 278.49 141.51Q278.74 141.53 279.00 141.52Q279.57 141.62 279.99 142.01Q284.69 146.48 289.17 151.17C289.17 151.36 289.07 151.58 289.17 151.74C294.57 159.75 293.94 157.23 298.26 165.64C301.90 172.71 304.68 180.40 306.61 188.11C308.67 196.33 310.16 204.64 311.43 213.01C312.35 219.12 313.62 228.41 314.28 234.02C315.76 246.41 316.57 259.27 313.47 271.49C311.83 277.97 310.30 280.90 307.14 286.75C306.97 287.07 306.73 287.35 306.50 287.64C305.20 289.32 303.88 290.99 302.57 292.65C301.99 293.39 301.40 294.12 300.81 294.84C299.10 296.90 294.97 299.73 293.75 300.69C290.51 303.24 287.31 305.85 283.49 307.49C278.97 309.44 274.43 311.34 269.89 313.24C266.96 314.46 266.13 314.81 262.86 315.47C255.70 316.92 248.28 317.19 241.00 317.39C231.01 317.67 221.00 317.44 211.01 317.14C195.37 316.68 179.64 316.36 164.03 315.08C158.82 314.65 153.32 314.25 148.27 312.76C147.57 312.55 146.88 312.28 146.20 312.01C144.18 311.22 142.17 310.40 140.17 309.58C136.85 308.20 133.54 306.83 130.24 305.41C129.85 305.25 129.45 305.07 129.10 304.83C127.74 303.87 126.45 302.84 125.13 301.83C123.43 300.54 121.74 299.24 120.06 297.92C119.69 297.63 119.29 297.37 118.99 297.01C114.00 291.17 111.89 288.88 108.90 281.87C105.83 274.70 104.77 266.71 104.48 259.00C104.09 248.98 105.44 238.95 106.80 229.04C108.50 216.67 110.22 204.21 113.34 192.09C115.35 184.33 117.93 176.71 121.58 169.55C122.87 167.02 124.35 164.60 125.79 162.16C126.91 160.26 126.71 161.38 126.83 160.20Q127.60 159.27 128.58 158.58Q128.66 158.28 128.82 158.00Q128.89 157.54 129.24 157.24Q129.80 156.34 130.61 155.66Q131.11 155.12 131.77 154.81Q132.66 153.69 133.56 152.58Q137.23 148.73 141.12 145.11Q141.72 144.23 142.55 143.55Q143.19 142.69 144.05 142.05Q144.46 141.68 145.00 141.59Q145.27 141.58 145.53 141.53Q146.18 140.68 147.05 140.05Q147.28 139.67 147.70 139.55Q148.27 139.01 149.00 138.73Q149.23 138.53 149.54 138.53Q150.20 137.69 151.07 137.07Q151.46 136.69 152.00 136.60Q152.27 136.58 152.54 136.53Q153.19 135.68 154.06 135.06Q154.46 134.68 155.00 134.59Q155.27 134.58 155.54 134.53Q155.67 134.17 156.04 134.04Q156.45 133.66 157.00 133.56Q157.76 133.56 158.52 133.52Q158.66 133.16 159.02 133.02Q159.44 132.64 160.00 132.54Q160.27 132.55 160.54 132.52Q160.68 132.16 161.04 132.04Q161.45 131.65 162.00 131.56Q162.77 131.55 163.53 131.52Q163.67 131.16 164.03 131.03Q164.44 130.65 165.00 130.55Q165.76 130.55 166.52 130.52Q166.66 130.16 167.02 130.02Q167.44 129.64 168.00 129.54Q168.78 129.54 169.55 129.52Q169.69 129.17 170.05 129.05Q170.45 128.67 171.00 128.58Q171.27 128.56 171.54 128.53Q171.67 128.17 172.04 128.04Q172.45 127.65 173.00 127.56Q173.76 127.55 174.52 127.52Q174.66 127.16 175.02 127.02Q175.44 126.64 176.00 126.54Q178.08 126.54 180.17 126.51C186.40 125.94 192.72 125.37 198.98 125.50C210.60 125.74 221.65 127.83 233.83 126.51Z" transform="scale(1)"></path></clipPath><clipPath id="R0-entity-eye-0-highlight-clip"><path d="M 197.081 177.273 L 199.130 177.316 L 201.136 177.738 L 203.022 178.524 L 204.717 179.642 L 206.154 181.051 L 207.278 182.696 L 208.047 184.514 L 208.429 186.435 L 208.475 186.914 L 208.519 187.394 L 208.564 187.873 L 208.608 188.353 L 208.652 188.833 L 208.695 189.313 L 208.739 189.793 L 208.781 190.274 L 208.754 192.231 L 208.328 194.142 L 207.518 195.933 L 206.357 197.536 L 204.889 198.890 L 203.171 199.941 L 201.268 200.650 L 199.254 200.990 L 199.254 200.990 L 199.254 200.990 L 199.254 200.990 L 199.254 200.990 L 199.254 200.990 L 199.254 200.990 L 199.254 200.990 L 199.254 200.990 L 197.206 200.946 L 195.203 200.521 L 193.322 199.732 L 191.636 198.608 L 190.208 197.193 L 189.094 195.541 L 188.336 193.716 L 187.964 191.788 L 187.921 191.308 L 187.878 190.827 L 187.835 190.347 L 187.791 189.867 L 187.747 189.387 L 187.702 188.908 L 187.658 188.428 L 187.613 187.949 L 187.630 185.999 L 188.046 184.095 L 188.845 182.310 L 189.997 180.713 L 191.457 179.365 L 193.169 178.318 L 195.068 177.611 L 197.081 177.273 L 197.081 177.273 L 197.081 177.273 L 197.081 177.273 L 197.081 177.273 L 197.081 177.273 L 197.081 177.273 L 197.081 177.273 Z"></path></clipPath><clipPath id="R0-entity-eye-1-highlight-clip"><path d="M 257.385 179.218 L 259.292 179.520 L 261.127 180.191 L 262.819 181.208 L 264.304 182.530 L 265.524 184.108 L 266.432 185.879 L 266.994 187.778 L 267.187 189.729 L 267.188 190.210 L 267.189 190.690 L 267.189 191.171 L 267.189 191.653 L 267.189 192.134 L 267.189 192.615 L 267.188 193.097 L 267.187 193.579 L 266.994 195.516 L 266.432 197.358 L 265.524 199.032 L 264.304 200.475 L 262.819 201.632 L 261.127 202.458 L 259.292 202.920 L 257.385 203.002 L 257.385 203.002 L 257.385 203.002 L 257.385 203.002 L 257.385 203.002 L 257.385 203.002 L 257.385 203.002 L 257.385 203.002 L 257.385 203.002 L 255.479 202.700 L 253.648 202.026 L 251.962 201.005 L 250.485 199.678 L 249.274 198.094 L 248.376 196.316 L 247.825 194.410 L 247.642 192.452 L 247.643 191.970 L 247.644 191.488 L 247.644 191.006 L 247.645 190.525 L 247.644 190.044 L 247.644 189.563 L 247.643 189.082 L 247.642 188.602 L 247.825 186.671 L 248.376 184.837 L 249.274 183.170 L 250.485 181.732 L 251.962 180.581 L 253.648 179.759 L 255.479 179.299 L 257.385 179.218 L 257.385 179.218 L 257.385 179.218 L 257.385 179.218 L 257.385 179.218 L 257.385 179.218 L 257.385 179.218 L 257.385 179.218 Z"></path></clipPath></defs><g filter="url(#R0-entity-outline)"><g data-avatar-entity-part="ear-left" data-avatar-fragment-interaction-area="2456" data-avatar-fragment-interaction-ratio="1" data-avatar-fragment-raw-visible-area="2456" data-avatar-fragment-visible-area="2456" data-avatar-part-geometry="compiled-owner"><g data-avatar-compiled-base-layer="ear-left"><path data-avatar-compiled-base="ear-left" d="M180.17 126.51Q178.08 126.54 176.00 126.54Q175.44 126.64 175.02 127.02Q174.66 127.16 174.52 127.52Q173.76 127.55 173.00 127.56Q172.45 127.65 172.04 128.04Q171.67 128.17 171.54 128.53Q171.27 128.56 171.00 128.58Q170.45 128.67 170.05 129.05Q169.69 129.17 169.55 129.52Q168.78 129.54 168.00 129.54Q167.44 129.64 167.02 130.02Q166.66 130.16 166.52 130.52Q165.76 130.55 165.00 130.55Q164.44 130.65 164.03 131.03Q163.67 131.16 163.53 131.52Q162.77 131.55 162.00 131.56Q161.45 131.65 161.04 132.04Q160.68 132.16 160.54 132.52Q160.27 132.55 160.00 132.54Q159.44 132.64 159.02 133.02Q158.66 133.16 158.52 133.52Q157.76 133.56 157.00 133.56Q156.45 133.66 156.04 134.04Q155.67 134.17 155.54 134.53Q155.27 134.58 155.00 134.59Q154.46 134.68 154.06 135.06Q153.19 135.68 152.54 136.53Q152.27 136.58 152.00 136.60Q151.46 136.69 151.07 137.07Q150.20 137.69 149.54 138.53Q149.23 138.53 149.00 138.73Q148.27 139.01 147.70 139.55Q147.28 139.67 147.05 140.05Q146.18 140.68 145.53 141.53Q145.27 141.58 145.00 141.59Q144.46 141.68 144.05 142.05Q143.19 142.69 142.55 143.55Q141.72 144.23 141.12 145.11Q137.23 148.73 133.56 152.58Q132.66 153.69 131.77 154.81Q131.11 155.12 130.61 155.66Q129.80 156.34 129.24 157.24Q128.89 157.54 128.82 158.00Q128.66 158.28 128.58 158.58Q127.60 159.27 126.83 160.20C125.39 159.12 124.31 156.90 123.57 155.47C121.53 151.54 120.16 147.27 119.41 142.92C117.55 132.09 119.37 120.25 124.61 110.56C125.85 108.27 127.25 106.33 128.81 104.23C131.12 101.13 134.00 98.45 137.25 96.39C139.49 94.97 141.61 93.87 144.20 93.31C145.94 92.94 147.15 92.83 149.03 92.83C150.34 92.84 151.65 93.09 152.96 93.00C153.25 92.98 153.38 92.52 153.66 92.50C153.95 92.47 154.16 92.96 154.44 92.88C154.77 92.79 154.81 92.26 155.11 92.10C155.35 91.97 155.65 92.05 155.91 92.10C156.56 92.22 158.42 93.17 158.66 93.25C159.69 93.59 160.78 93.72 161.81 94.04C162.12 94.14 162.39 94.33 162.66 94.50C163.68 95.15 164.66 95.86 165.68 96.52C166.25 96.90 166.91 97.16 167.43 97.61C168.68 98.67 169.85 99.82 170.94 101.05C177.13 108.00 179.66 117.42 180.17 126.51Z" fill="#a95f47" transform="scale(1)"></path></g><g data-avatar-compiled-surface-layer="ear-left" clip-path="url(#R0-compiled-owner-0)"><g transform="translate(-60.53018527663077 -70.45795033451829)"><g></g></g></g></g><g data-avatar-entity-part="ear-right" data-avatar-fragment-interaction-area="1559" data-avatar-fragment-interaction-ratio="1" data-avatar-fragment-raw-visible-area="1559" data-avatar-fragment-visible-area="1559" data-avatar-part-geometry="compiled-owner"><g data-avatar-compiled-base-layer="ear-right"><path data-avatar-compiled-base="ear-right" d="M289.17 151.17Q284.69 146.48 279.99 142.01Q279.57 141.62 279.00 141.52Q278.74 141.53 278.49 141.51Q277.85 140.65 276.99 140.01Q276.56 139.62 276.00 139.52Q275.74 139.53 275.49 139.51Q274.35 138.15 272.98 137.02Q272.56 136.63 272.00 136.53Q271.74 136.53 271.49 136.51Q271.35 136.15 270.99 136.01Q270.56 135.63 270.00 135.53Q269.74 135.53 269.49 135.51Q269.35 135.15 268.99 135.01Q268.56 134.63 268.00 134.53Q267.74 134.53 267.49 134.51Q267.35 134.15 266.99 134.01Q266.56 133.63 266.00 133.53Q265.24 133.53 264.49 133.51Q264.35 133.15 263.99 133.01Q263.56 132.63 263.00 132.53Q262.24 132.53 261.49 132.51Q261.35 132.15 260.99 132.01Q260.56 131.63 260.00 131.53Q259.24 131.53 258.49 131.51Q258.35 131.15 257.99 131.01Q257.56 130.63 257.00 130.53Q256.24 130.53 255.49 130.51Q255.35 130.15 254.99 130.01Q254.56 129.63 254.00 129.53Q253.74 129.53 253.48 129.51Q253.35 129.15 252.98 129.02Q252.56 128.63 252.00 128.53Q251.24 128.53 250.48 128.51Q250.35 128.15 249.98 128.02Q249.56 127.63 249.00 127.53Q246.74 127.53 244.49 127.51Q244.35 127.15 243.99 127.01Q243.56 126.62 243.00 126.52Q238.42 126.53 233.83 126.51C235.44 125.61 234.36 126.45 235.15 123.18C235.90 120.08 236.93 117.02 238.38 114.17C240.11 110.73 242.31 107.79 245.08 105.12C246.02 104.21 246.48 104.32 247.52 103.53C248.42 102.85 248.93 101.97 250.03 101.65C251.05 101.35 252.10 101.15 253.14 100.94C253.42 100.88 253.71 100.87 254.00 100.85C254.33 100.84 254.67 100.90 255.00 100.86C255.51 100.79 256.01 100.66 256.50 100.51C257.64 100.17 256.95 100.08 258.10 99.22C258.81 98.68 260.32 98.55 261.01 98.64C264.79 99.13 267.31 100.30 270.88 101.76C271.43 101.99 271.99 102.20 272.48 102.54C273.86 103.47 275.15 104.52 276.47 105.54C276.65 105.68 276.83 105.84 276.99 106.01C279.34 108.38 280.23 109.19 282.08 111.82C286.71 118.40 289.34 126.08 290.35 134.01C290.83 137.81 290.83 141.69 290.44 145.50C290.40 145.96 289.90 149.95 289.56 150.91C289.50 151.06 289.30 151.09 289.17 151.17Z" fill="#a95f47" transform="scale(1)"></path></g><g data-avatar-compiled-surface-layer="ear-right" clip-path="url(#R0-compiled-owner-1)"><g transform="translate(52.23745959955774 -64.40576362447855)"><g></g></g></g></g><g data-avatar-entity-part="primary" data-avatar-fragment-interaction-area="34485" data-avatar-fragment-interaction-ratio="1" data-avatar-fragment-raw-visible-area="34485" data-avatar-fragment-visible-area="34485" data-avatar-part-geometry="compiled-owner"><g data-avatar-compiled-base-layer="primary"><path data-avatar-compiled-base="primary" d="M233.83 126.51Q238.42 126.53 243.00 126.52Q243.56 126.62 243.99 127.01Q244.35 127.15 244.49 127.51Q246.74 127.53 249.00 127.53Q249.56 127.63 249.98 128.02Q250.35 128.15 250.48 128.51Q251.24 128.53 252.00 128.53Q252.56 128.63 252.98 129.02Q253.35 129.15 253.48 129.51Q253.74 129.53 254.00 129.53Q254.56 129.63 254.99 130.01Q255.35 130.15 255.49 130.51Q256.24 130.53 257.00 130.53Q257.56 130.63 257.99 131.01Q258.35 131.15 258.49 131.51Q259.24 131.53 260.00 131.53Q260.56 131.63 260.99 132.01Q261.35 132.15 261.49 132.51Q262.24 132.53 263.00 132.53Q263.56 132.63 263.99 133.01Q264.35 133.15 264.49 133.51Q265.24 133.53 266.00 133.53Q266.56 133.63 266.99 134.01Q267.35 134.15 267.49 134.51Q267.74 134.53 268.00 134.53Q268.56 134.63 268.99 135.01Q269.35 135.15 269.49 135.51Q269.74 135.53 270.00 135.53Q270.56 135.63 270.99 136.01Q271.35 136.15 271.49 136.51Q271.74 136.53 272.00 136.53Q272.56 136.63 272.98 137.02Q274.35 138.15 275.49 139.51Q275.74 139.53 276.00 139.52Q276.56 139.62 276.99 140.01Q277.85 140.65 278.49 141.51Q278.74 141.53 279.00 141.52Q279.57 141.62 279.99 142.01Q284.69 146.48 289.17 151.17C289.17 151.36 289.07 151.58 289.17 151.74C294.57 159.75 293.94 157.23 298.26 165.64C301.90 172.71 304.68 180.40 306.61 188.11C308.67 196.33 310.16 204.64 311.43 213.01C312.35 219.12 313.62 228.41 314.28 234.02C315.76 246.41 316.57 259.27 313.47 271.49C311.83 277.97 310.30 280.90 307.14 286.75C306.97 287.07 306.73 287.35 306.50 287.64C305.20 289.32 303.88 290.99 302.57 292.65C301.99 293.39 301.40 294.12 300.81 294.84C299.10 296.90 294.97 299.73 293.75 300.69C290.51 303.24 287.31 305.85 283.49 307.49C278.97 309.44 274.43 311.34 269.89 313.24C266.96 314.46 266.13 314.81 262.86 315.47C255.70 316.92 248.28 317.19 241.00 317.39C231.01 317.67 221.00 317.44 211.01 317.14C195.37 316.68 179.64 316.36 164.03 315.08C158.82 314.65 153.32 314.25 148.27 312.76C147.57 312.55 146.88 312.28 146.20 312.01C144.18 311.22 142.17 310.40 140.17 309.58C136.85 308.20 133.54 306.83 130.24 305.41C129.85 305.25 129.45 305.07 129.10 304.83C127.74 303.87 126.45 302.84 125.13 301.83C123.43 300.54 121.74 299.24 120.06 297.92C119.69 297.63 119.29 297.37 118.99 297.01C114.00 291.17 111.89 288.88 108.90 281.87C105.83 274.70 104.77 266.71 104.48 259.00C104.09 248.98 105.44 238.95 106.80 229.04C108.50 216.67 110.22 204.21 113.34 192.09C115.35 184.33 117.93 176.71 121.58 169.55C122.87 167.02 124.35 164.60 125.79 162.16C126.91 160.26 126.71 161.38 126.83 160.20Q127.60 159.27 128.58 158.58Q128.66 158.28 128.82 158.00Q128.89 157.54 129.24 157.24Q129.80 156.34 130.61 155.66Q131.11 155.12 131.77 154.81Q132.66 153.69 133.56 152.58Q137.23 148.73 141.12 145.11Q141.72 144.23 142.55 143.55Q143.19 142.69 144.05 142.05Q144.46 141.68 145.00 141.59Q145.27 141.58 145.53 141.53Q146.18 140.68 147.05 140.05Q147.28 139.67 147.70 139.55Q148.27 139.01 149.00 138.73Q149.23 138.53 149.54 138.53Q150.20 137.69 151.07 137.07Q151.46 136.69 152.00 136.60Q152.27 136.58 152.54 136.53Q153.19 135.68 154.06 135.06Q154.46 134.68 155.00 134.59Q155.27 134.58 155.54 134.53Q155.67 134.17 156.04 134.04Q156.45 133.66 157.00 133.56Q157.76 133.56 158.52 133.52Q158.66 133.16 159.02 133.02Q159.44 132.64 160.00 132.54Q160.27 132.55 160.54 132.52Q160.68 132.16 161.04 132.04Q161.45 131.65 162.00 131.56Q162.77 131.55 163.53 131.52Q163.67 131.16 164.03 131.03Q164.44 130.65 165.00 130.55Q165.76 130.55 166.52 130.52Q166.66 130.16 167.02 130.02Q167.44 129.64 168.00 129.54Q168.78 129.54 169.55 129.52Q169.69 129.17 170.05 129.05Q170.45 128.67 171.00 128.58Q171.27 128.56 171.54 128.53Q171.67 128.17 172.04 128.04Q172.45 127.65 173.00 127.56Q173.76 127.55 174.52 127.52Q174.66 127.16 175.02 127.02Q175.44 126.64 176.00 126.54Q178.08 126.54 180.17 126.51C186.40 125.94 192.72 125.37 198.98 125.50C210.60 125.74 221.65 127.83 233.83 126.51Z" fill="#e3b17f" transform="scale(1)"></path></g><g data-avatar-compiled-surface-layer="primary" clip-path="url(#R0-compiled-owner-2)"><g transform="translate(0 19.775421558720844)"><g><g data-avatar-face-surface-layer="primary"><path data-avatar-face-feature="eye-0" d="M 197.081 177.273 L 199.130 177.316 L 201.136 177.738 L 203.022 178.524 L 204.717 179.642 L 206.154 181.051 L 207.278 182.696 L 208.047 184.514 L 208.429 186.435 L 208.475 186.914 L 208.519 187.394 L 208.564 187.873 L 208.608 188.353 L 208.652 188.833 L 208.695 189.313 L 208.739 189.793 L 208.781 190.274 L 208.754 192.231 L 208.328 194.142 L 207.518 195.933 L 206.357 197.536 L 204.889 198.890 L 203.171 199.941 L 201.268 200.650 L 199.254 200.990 L 199.254 200.990 L 199.254 200.990 L 199.254 200.990 L 199.254 200.990 L 199.254 200.990 L 199.254 200.990 L 199.254 200.990 L 199.254 200.990 L 197.206 200.946 L 195.203 200.521 L 193.322 199.732 L 191.636 198.608 L 190.208 197.193 L 189.094 195.541 L 188.336 193.716 L 187.964 191.788 L 187.921 191.308 L 187.878 190.827 L 187.835 190.347 L 187.791 189.867 L 187.747 189.387 L 187.702 188.908 L 187.658 188.428 L 187.613 187.949 L 187.630 185.999 L 188.046 184.095 L 188.845 182.310 L 189.997 180.713 L 191.457 179.365 L 193.169 178.318 L 195.068 177.611 L 197.081 177.273 L 197.081 177.273 L 197.081 177.273 L 197.081 177.273 L 197.081 177.273 L 197.081 177.273 L 197.081 177.273 L 197.081 177.273 Z" fill="#2b1d18"></path><path data-avatar-face-feature="eye-1" d="M 257.385 179.218 L 259.292 179.520 L 261.127 180.191 L 262.819 181.208 L 264.304 182.530 L 265.524 184.108 L 266.432 185.879 L 266.994 187.778 L 267.187 189.729 L 267.188 190.210 L 267.189 190.690 L 267.189 191.171 L 267.189 191.653 L 267.189 192.134 L 267.189 192.615 L 267.188 193.097 L 267.187 193.579 L 266.994 195.516 L 266.432 197.358 L 265.524 199.032 L 264.304 200.475 L 262.819 201.632 L 261.127 202.458 L 259.292 202.920 L 257.385 203.002 L 257.385 203.002 L 257.385 203.002 L 257.385 203.002 L 257.385 203.002 L 257.385 203.002 L 257.385 203.002 L 257.385 203.002 L 257.385 203.002 L 255.479 202.700 L 253.648 202.026 L 251.962 201.005 L 250.485 199.678 L 249.274 198.094 L 248.376 196.316 L 247.825 194.410 L 247.642 192.452 L 247.643 191.970 L 247.644 191.488 L 247.644 191.006 L 247.645 190.525 L 247.644 190.044 L 247.644 189.563 L 247.643 189.082 L 247.642 188.602 L 247.825 186.671 L 248.376 184.837 L 249.274 183.170 L 250.485 181.732 L 251.962 180.581 L 253.648 179.759 L 255.479 179.299 L 257.385 179.218 L 257.385 179.218 L 257.385 179.218 L 257.385 179.218 L 257.385 179.218 L 257.385 179.218 L 257.385 179.218 L 257.385 179.218 Z" fill="#2b1d18"></path><path data-avatar-face-feature="nose" d="M 238.506 210.232 L 238.355 211.133 L 237.951 212.003 L 237.305 212.819 L 236.432 213.562 L 235.353 214.214 L 234.094 214.759 L 232.686 215.184 L 231.163 215.478 L 229.563 215.635 L 227.924 215.651 L 226.287 215.526 L 224.692 215.262 L 223.178 214.866 L 221.784 214.347 L 220.544 213.719 L 219.489 212.996 L 218.645 212.196 L 218.033 211.337 L 217.670 210.442 L 217.563 209.532 L 217.716 208.629 L 218.126 207.756 L 218.780 206.934 L 219.664 206.183 L 220.755 205.524 L 222.025 204.971 L 223.444 204.539 L 224.975 204.239 L 226.581 204.078 L 228.222 204.061 L 229.857 204.188 L 231.447 204.455 L 232.952 204.857 L 234.335 205.382 L 235.564 206.019 L 236.607 206.750 L 237.440 207.557 L 238.043 208.421 L 238.401 209.320 Z" fill="#2b1d18"></path><path data-avatar-face-feature="mouth" d="M 208.366 222.471 L 209.761 222.407 L 211.154 222.351 L 212.544 222.304 L 213.931 222.265 L 215.316 222.234 L 216.699 222.211 L 218.079 222.196 L 219.456 222.189 L 220.832 222.190 L 222.204 222.199 L 223.575 222.217 L 224.943 222.242 L 226.308 222.275 L 227.671 222.317 L 229.032 222.366 L 230.390 222.424 L 231.746 222.490 L 233.100 222.563 L 234.451 222.645 L 235.800 222.735 L 237.146 222.833 L 238.490 222.939 L 239.831 223.053 L 241.170 223.175 L 242.506 223.305 L 243.840 223.444 L 245.171 223.590 L 246.500 223.745 L 248.074 224.272 L 249.332 225.389 L 250.080 226.924 L 250.206 228.646 L 249.689 230.292 L 248.610 231.610 L 247.133 232.400 L 245.483 232.541 L 244.196 232.390 L 242.907 232.247 L 241.615 232.112 L 240.320 231.984 L 239.023 231.865 L 237.724 231.754 L 236.422 231.651 L 235.117 231.555 L 233.810 231.468 L 232.501 231.388 L 231.189 231.317 L 229.875 231.253 L 228.558 231.197 L 227.239 231.149 L 225.918 231.109 L 224.594 231.076 L 223.267 231.052 L 221.938 231.035 L 220.607 231.027 L 219.273 231.026 L 217.937 231.033 L 216.598 231.048 L 215.256 231.071 L 213.913 231.102 L 212.566 231.141 L 211.217 231.188 L 209.865 231.242 L 208.511 231.305 L 206.808 231.052 L 205.354 230.164 L 204.371 228.777 L 204.007 227.102 L 204.317 225.395 L 205.254 223.916 L 206.676 222.889 L 208.366 222.471 Z" fill="#2b1d18"></path></g></g></g></g></g></g></g></g></svg>
