<svg xmlns="http://www.w3.org/2000/svg" class="interactive-avatar__canvas" viewBox="0 0 420 420" aria-hidden="true" focusable="false"><defs><clipPath id="R0-clip"><path d=""></path></clipPath><filter id="R0-face-shadow-blur" x="-50%" y="-50%" width="200%" height="200%"><feGaussianBlur stdDeviation="0"></feGaussianBlur></filter><filter id="R0-avatar-shadow" x="-100%" y="-100%" width="300%" height="300%"><feDropShadow dx="0" dy="0" stdDeviation="0" flood-color="#a86a1a" flood-opacity="0"></feDropShadow></filter></defs><g transform="translate(3.017777777777778 29.99111111111111) translate(210 210) rotate(0) scale(1.46) translate(-210 -210)"><g data-avatar-entity-fragment-root="true" data-avatar-entity-preset="bear" data-avatar-fragment-composition="compiled-owner-partition" data-avatar-fragment-build-count="1" data-avatar-fragment-compile-count="1" data-avatar-fragment-drag-build-samples="0" data-avatar-fragment-quality="full" data-avatar-fragment-raster-size="420" data-avatar-fragment-revision="{&quot;groups&quot;:[{&quot;id&quot;:&quot;anatomy-ear-left&quot;,&quot;primitiveIds&quot;:[&quot;ear-left&quot;],&quot;resolution&quot;:28},{&quot;id&quot;:&quot;anatomy-ear-right&quot;,&quot;primitiveIds&quot;:[&quot;ear-right&quot;],&quot;resolution&quot;:28},{&quot;id&quot;:&quot;anatomy-primary&quot;,&quot;primitiveIds&quot;:[&quot;primary&quot;],&quot;resolution&quot;:28}],&quot;id&quot;:&quot;production-bear&quot;,&quot;primitives&quot;:[{&quot;id&quot;:&quot;ear-left&quot;,&quot;materialId&quot;:&quot;ear-left&quot;,&quot;position&quot;:{&quot;x&quot;:-58,&quot;y&quot;:-72,&quot;z&quot;:-18},&quot;productionShape&quot;:&quot;ellipse&quot;,&quot;rotation&quot;:{&quot;x&quot;:-0.06981317007977318,&quot;y&quot;:-0.12217304763960307,&quot;z&quot;:0.13962634015954636},&quot;scale&quot;:{&quot;x&quot;:30.6,&quot;y&quot;:40.120000000000005,&quot;z&quot;:24.400000000000002},&quot;shape&quot;:&quot;ellipse&quot;},{&quot;id&quot;:&quot;ear-right&quot;,&quot;materialId&quot;:&quot;ear-right&quot;,&quot;position&quot;:{&quot;x&quot;:58,&quot;y&quot;:-70,&quot;z&quot;:-20},&quot;productionShape&quot;:&quot;ellipse&quot;,&quot;rotation&quot;:{&quot;x&quot;:-0.05235987755982988,&quot;y&quot;:0.13962634015954636,&quot;z&quot;:-0.12217304763960307},&quot;scale&quot;:{&quot;x&quot;:29.07,&quot;y&quot;:38.940000000000005,&quot;z&quot;:23.18},&quot;shape&quot;:&quot;ellipse&quot;},{&quot;id&quot;:&quot;primary&quot;,&quot;materialId&quot;:&quot;primary&quot;,&quot;position&quot;:{&quot;x&quot;:0,&quot;y&quot;:20,&quot;z&quot;:0},&quot;productionShape&quot;:&quot;trapezoid&quot;,&quot;roundness&quot;:78,&quot;rotation&quot;:{&quot;x&quot;:0,&quot;y&quot;:0,&quot;z&quot;:0},&quot;scale&quot;:{&quot;x&quot;:105.08,&quot;y&quot;:95.03999999999999,&quot;z&quot;:83.52},&quot;shape&quot;:&quot;trapezoid&quot;}],&quot;resolution&quot;:28,&quot;smoothUnionPairs&quot;:[],&quot;smoothUnionRadius&quot;:0}:420:0.160533:-0.110356" data-avatar-fragment-path-characters="7598" data-avatar-fragment-candidate-tests="174215" data-avatar-fragment-curve-segments="237" data-avatar-fragment-contour-segments="237" data-avatar-fragment-line-segments="0" data-avatar-fragment-max-curve-error="0.124" data-avatar-fragment-shared-curve-reuse="84" data-avatar-fragment-null-owner-pixels="0"><defs><filter id="R0-entity-face-shadow" x="-50%" y="-50%" width="200%" height="200%"><feGaussianBlur stdDeviation="0"></feGaussianBlur></filter><filter id="R0-entity-outline" x="-30%" y="-30%" width="160%" height="160%"><feMorphology in="SourceAlpha" operator="dilate" radius="2" result="expanded"></feMorphology><feFlood flood-color="#2b1d18" flood-opacity="0.84"></feFlood><feComposite in2="expanded" operator="in"></feComposite><feMerge><feMergeNode></feMergeNode><feMergeNode in="SourceGraphic"></feMergeNode></feMerge></filter><clipPath id="R0-compiled-owner-0" clipPathUnits="userSpaceOnUse"><path d="M181.17 126.51Q180.53 126.61 180.01 127.01Q179.65 127.15 179.51 127.51Q177.26 127.54 175.00 127.54Q174.44 127.64 174.02 128.02Q173.66 128.16 173.52 128.52Q172.26 128.55 171.00 128.58Q170.45 128.67 170.05 129.05Q169.20 129.68 168.57 130.54Q168.29 130.58 168.00 130.56Q167.44 130.64 167.02 131.02Q166.66 131.15 166.52 131.52Q165.26 131.54 164.00 131.55Q163.44 131.64 163.03 132.03Q162.66 132.16 162.53 132.52Q161.76 132.55 161.00 132.56Q160.45 132.65 160.03 133.03Q159.67 133.16 159.53 133.52Q159.27 133.55 159.00 133.54Q158.44 133.64 158.02 134.02Q157.66 134.16 157.52 134.52Q156.76 134.55 156.00 134.56Q155.45 134.65 155.03 135.03Q154.67 135.17 154.53 135.53Q154.27 135.57 154.00 135.57Q153.45 135.66 153.04 136.04Q152.68 136.17 152.54 136.53Q152.27 136.58 152.00 136.61Q151.47 136.70 151.08 137.08Q150.20 137.69 149.55 138.53Q148.97 138.97 148.64 139.62Q148.33 139.81 148.00 139.68Q147.47 139.72 147.06 140.06Q146.19 140.68 145.54 141.53Q144.57 141.90 143.77 142.54Q143.32 142.66 143.04 143.04Q137.76 148.28 132.71 153.75Q132.04 154.06 131.58 154.62Q131.23 154.76 131.12 155.12Q130.73 155.41 130.62 155.88Q130.53 156.15 130.38 156.38Q129.83 156.87 129.54 157.55Q128.55 158.55 127.55 159.55Q127.13 159.56 126.83 159.87C123.44 155.60 121.32 150.16 120.23 144.85C117.60 132.08 119.68 118.22 126.88 107.23C130.46 101.76 135.20 96.82 141.24 94.10C143.69 93.00 146.37 92.68 149.02 92.70C150.67 92.70 152.32 92.88 153.98 92.86C154.94 92.84 154.94 91.83 155.96 91.77C156.24 91.75 156.51 91.89 156.77 91.99C158.63 92.76 158.31 92.90 159.83 93.22C160.17 93.29 160.53 93.30 160.87 93.38C163.10 93.91 166.59 96.42 167.72 97.29C171.91 100.53 175.06 105.36 177.10 110.19C178.71 113.99 179.66 117.96 180.21 122.04C180.26 122.37 180.31 122.69 180.34 123.02C180.43 124.03 180.33 125.07 180.56 126.06C180.62 126.30 180.97 126.36 181.17 126.51Z" transform="scale(1)"></path></clipPath><clipPath id="R0-compiled-owner-1" clipPathUnits="userSpaceOnUse"><path d="M290.17 153.84Q289.90 153.53 289.49 153.51Q289.47 153.25 289.48 153.00Q289.38 152.43 288.99 152.01Q284.10 146.90 278.99 142.01Q278.56 141.63 278.00 141.53Q277.74 141.53 277.49 141.51Q276.85 140.65 275.99 140.01Q275.56 139.63 275.00 139.53Q274.74 139.53 274.49 139.51Q273.35 138.15 271.98 137.02Q271.56 136.63 271.00 136.53Q270.74 136.54 270.48 136.51Q270.35 136.15 269.98 136.02Q269.56 135.63 269.00 135.53Q268.74 135.54 268.48 135.51Q268.35 135.15 267.98 135.02Q267.56 134.63 267.00 134.53Q266.24 134.53 265.48 134.51Q265.35 134.15 264.98 134.02Q264.56 133.63 264.00 133.53Q263.24 133.53 262.48 133.51Q262.35 133.15 261.98 133.02Q261.56 132.63 261.00 132.53Q260.74 132.53 260.48 132.51Q260.35 132.15 259.98 132.02Q259.56 131.63 259.00 131.53Q258.24 131.53 257.48 131.51Q257.35 131.15 256.98 131.02Q256.56 130.63 256.00 130.53Q255.24 130.53 254.48 130.51Q254.35 130.15 253.98 130.02Q253.56 129.63 253.00 129.53Q252.74 129.54 252.48 129.51Q252.34 129.15 251.98 129.02Q251.56 128.63 251.00 128.53Q249.24 128.53 247.48 128.51Q247.35 128.15 246.98 128.02Q246.56 127.63 246.00 127.53Q241.75 127.52 237.49 127.51Q237.35 127.15 236.99 127.01Q236.48 126.61 235.83 126.51C236.48 121.55 237.73 116.77 239.99 112.28C241.65 108.98 243.86 106.03 246.51 103.45C248.84 101.18 247.34 103.05 249.45 101.44C249.75 101.21 250.64 100.08 251.18 99.92C252.43 99.54 253.72 99.29 255.01 99.05C255.33 98.99 255.68 99.09 256.01 99.04C256.39 98.98 256.74 98.81 257.12 98.74C257.59 98.65 258.12 98.76 258.54 98.54C258.96 98.32 259.17 97.84 259.51 97.51C260.34 96.67 261.86 96.54 262.96 96.59C263.30 96.60 263.60 96.83 263.93 96.91C264.89 97.12 265.89 97.17 266.83 97.46C271.35 98.86 274.99 100.41 278.51 103.50C288.94 112.66 293.26 127.43 292.67 140.94C292.54 143.98 292.10 147.01 291.39 149.97C291.11 151.15 290.81 152.69 290.17 153.84Z" transform="scale(1)"></path></clipPath><clipPath id="R0-compiled-owner-2" clipPathUnits="userSpaceOnUse"><path d="M181.17 126.51C181.46 126.77 181.65 127.30 182.04 127.30C187.03 127.33 192.01 126.61 197.00 126.60C208.66 126.57 220.33 126.95 231.99 127.18C235.48 127.25 234.16 128.08 235.83 126.51Q236.48 126.61 236.99 127.01Q237.35 127.15 237.49 127.51Q241.75 127.52 246.00 127.53Q246.56 127.63 246.98 128.02Q247.35 128.15 247.48 128.51Q249.24 128.53 251.00 128.53Q251.56 128.63 251.98 129.02Q252.34 129.15 252.48 129.51Q252.74 129.54 253.00 129.53Q253.56 129.63 253.98 130.02Q254.35 130.15 254.48 130.51Q255.24 130.53 256.00 130.53Q256.56 130.63 256.98 131.02Q257.35 131.15 257.48 131.51Q258.24 131.53 259.00 131.53Q259.56 131.63 259.98 132.02Q260.35 132.15 260.48 132.51Q260.74 132.53 261.00 132.53Q261.56 132.63 261.98 133.02Q262.35 133.15 262.48 133.51Q263.24 133.53 264.00 133.53Q264.56 133.63 264.98 134.02Q265.35 134.15 265.48 134.51Q266.24 134.53 267.00 134.53Q267.56 134.63 267.98 135.02Q268.35 135.15 268.48 135.51Q268.74 135.54 269.00 135.53Q269.56 135.63 269.98 136.02Q270.35 136.15 270.48 136.51Q270.74 136.54 271.00 136.53Q271.56 136.63 271.98 137.02Q273.35 138.15 274.49 139.51Q274.74 139.53 275.00 139.53Q275.56 139.63 275.99 140.01Q276.85 140.65 277.49 141.51Q277.74 141.53 278.00 141.53Q278.56 141.63 278.99 142.01Q284.10 146.90 288.99 152.01Q289.38 152.43 289.48 153.00Q289.47 153.25 289.49 153.51Q289.90 153.53 290.17 153.84C290.22 154.10 290.18 154.40 290.33 154.63C291.23 156.03 292.40 157.25 293.29 158.66C294.84 161.11 296.30 163.63 297.62 166.21C300.24 171.34 301.90 175.71 303.69 181.11C308.18 194.65 310.10 208.99 312.05 223.06C313.60 234.29 315.14 245.59 314.77 256.95C314.52 264.58 313.40 272.40 310.45 279.48C307.26 287.13 305.84 288.36 300.69 294.75C300.41 295.10 300.12 295.44 299.77 295.72C296.85 298.15 293.88 300.51 290.89 302.87C289.78 303.75 288.14 304.93 286.80 305.56C284.85 306.49 282.85 307.33 280.87 308.20C275.55 310.54 270.66 313.27 264.93 314.17C258.01 315.26 250.97 315.49 243.98 315.74C233.97 316.11 224.04 316.06 214.01 315.90C199.73 315.67 185.32 315.66 171.03 314.83C163.78 314.42 161.54 314.26 155.09 313.66C152.16 313.38 148.97 313.13 146.22 311.98C140.86 309.72 135.51 307.44 130.17 305.13C129.85 304.99 129.53 304.84 129.25 304.63C126.22 302.35 123.24 300.00 120.25 297.67C120.08 297.54 119.93 297.39 119.77 297.24C117.17 294.80 114.73 291.90 113.06 288.71C108.65 280.23 110.05 283.71 107.25 274.76C107.16 274.48 107.09 274.19 107.04 273.90C106.61 271.59 106.09 269.28 105.80 266.95C104.54 256.81 105.32 246.60 106.52 236.50C106.81 234.02 107.15 231.55 107.49 229.07C108.85 219.42 110.12 209.67 112.14 200.12C113.79 192.30 115.82 184.54 118.81 177.11C119.90 174.42 121.04 171.74 122.33 169.14C123.52 166.75 124.93 164.46 126.25 162.14C126.43 161.83 126.74 161.58 126.83 161.24C126.94 160.80 126.83 160.33 126.83 159.87Q127.13 159.56 127.55 159.55Q128.55 158.55 129.54 157.55Q129.83 156.87 130.38 156.38Q130.53 156.15 130.62 155.88Q130.73 155.41 131.12 155.12Q131.23 154.76 131.58 154.62Q132.04 154.06 132.71 153.75Q137.76 148.28 143.04 143.04Q143.32 142.66 143.77 142.54Q144.57 141.90 145.54 141.53Q146.19 140.68 147.06 140.06Q147.47 139.72 148.00 139.68Q148.33 139.81 148.64 139.62Q148.97 138.97 149.55 138.53Q150.20 137.69 151.08 137.08Q151.47 136.70 152.00 136.61Q152.27 136.58 152.54 136.53Q152.68 136.17 153.04 136.04Q153.45 135.66 154.00 135.57Q154.27 135.57 154.53 135.53Q154.67 135.17 155.03 135.03Q155.45 134.65 156.00 134.56Q156.76 134.55 157.52 134.52Q157.66 134.16 158.02 134.02Q158.44 133.64 159.00 133.54Q159.27 133.55 159.53 133.52Q159.67 133.16 160.03 133.03Q160.45 132.65 161.00 132.56Q161.76 132.55 162.53 132.52Q162.66 132.16 163.03 132.03Q163.44 131.64 164.00 131.55Q165.26 131.54 166.52 131.52Q166.66 131.15 167.02 131.02Q167.44 130.64 168.00 130.56Q168.29 130.58 168.57 130.54Q169.20 129.68 170.05 129.05Q170.45 128.67 171.00 128.58Q172.26 128.55 173.52 128.52Q173.66 128.16 174.02 128.02Q174.44 127.64 175.00 127.54Q177.26 127.54 179.51 127.51Q179.65 127.15 180.01 127.01Q180.53 126.61 181.17 126.51Z" transform="scale(1)"></path></clipPath><clipPath id="R0-entity-eye-0-highlight-clip"><path d="M 188.834 179.685 L 190.873 179.436 L 192.926 179.571 L 194.912 180.085 L 196.757 180.958 L 198.389 182.156 L 199.744 183.634 L 200.772 185.335 L 201.432 187.193 L 201.625 187.984 L 201.817 188.775 L 202.008 189.567 L 202.199 190.359 L 202.389 191.152 L 202.579 191.945 L 202.767 192.738 L 202.956 193.532 L 203.211 195.484 L 203.064 197.447 L 202.519 199.346 L 201.599 201.107 L 200.338 202.664 L 198.784 203.955 L 196.998 204.931 L 195.049 205.556 L 195.049 205.556 L 195.049 205.556 L 195.049 205.556 L 195.049 205.556 L 195.049 205.556 L 195.049 205.556 L 195.049 205.556 L 195.049 205.556 L 193.010 205.804 L 190.962 205.666 L 188.981 205.148 L 187.145 204.269 L 185.524 203.064 L 184.180 201.578 L 183.165 199.868 L 182.518 198.001 L 182.330 197.207 L 182.141 196.414 L 181.952 195.621 L 181.762 194.828 L 181.572 194.036 L 181.380 193.244 L 181.189 192.453 L 180.996 191.662 L 180.728 189.718 L 180.864 187.763 L 181.396 185.872 L 182.306 184.118 L 183.559 182.568 L 185.105 181.281 L 186.886 180.308 L 188.834 179.685 L 188.834 179.685 L 188.834 179.685 L 188.834 179.685 L 188.834 179.685 L 188.834 179.685 L 188.834 179.685 L 188.834 179.685 Z"></path></clipPath><clipPath id="R0-entity-eye-1-highlight-clip"><path d="M 252.192 180.519 L 254.145 180.509 L 256.077 180.883 L 257.914 181.625 L 259.586 182.706 L 261.027 184.086 L 262.184 185.711 L 263.010 187.519 L 263.475 189.440 L 263.589 190.247 L 263.702 191.055 L 263.815 191.864 L 263.927 192.672 L 264.038 193.482 L 264.148 194.291 L 264.258 195.102 L 264.368 195.912 L 264.440 197.882 L 264.130 199.815 L 263.449 201.639 L 262.424 203.281 L 261.094 204.680 L 259.511 205.782 L 257.735 206.543 L 255.834 206.936 L 255.834 206.936 L 255.834 206.936 L 255.834 206.936 L 255.834 206.936 L 255.834 206.936 L 255.834 206.936 L 255.834 206.936 L 255.834 206.936 L 253.882 206.944 L 251.954 206.568 L 250.123 205.822 L 248.460 204.735 L 247.029 203.348 L 245.885 201.715 L 245.071 199.898 L 244.619 197.968 L 244.510 197.158 L 244.400 196.348 L 244.290 195.538 L 244.178 194.728 L 244.067 193.920 L 243.954 193.111 L 243.841 192.303 L 243.727 191.495 L 243.643 189.534 L 243.941 187.609 L 244.610 185.794 L 245.624 184.158 L 246.945 182.766 L 248.521 181.669 L 250.293 180.910 L 252.192 180.519 L 252.192 180.519 L 252.192 180.519 L 252.192 180.519 L 252.192 180.519 L 252.192 180.519 L 252.192 180.519 L 252.192 180.519 Z"></path></clipPath></defs><g filter="url(#R0-entity-outline)"><g data-avatar-entity-part="ear-left" data-avatar-fragment-interaction-area="2479" data-avatar-fragment-interaction-ratio="1" data-avatar-fragment-raw-visible-area="2479" data-avatar-fragment-visible-area="2479" data-avatar-part-geometry="compiled-owner"><g data-avatar-compiled-base-layer="ear-left"><path data-avatar-compiled-base="ear-left" d="M181.17 126.51Q180.53 126.61 180.01 127.01Q179.65 127.15 179.51 127.51Q177.26 127.54 175.00 127.54Q174.44 127.64 174.02 128.02Q173.66 128.16 173.52 128.52Q172.26 128.55 171.00 128.58Q170.45 128.67 170.05 129.05Q169.20 129.68 168.57 130.54Q168.29 130.58 168.00 130.56Q167.44 130.64 167.02 131.02Q166.66 131.15 166.52 131.52Q165.26 131.54 164.00 131.55Q163.44 131.64 163.03 132.03Q162.66 132.16 162.53 132.52Q161.76 132.55 161.00 132.56Q160.45 132.65 160.03 133.03Q159.67 133.16 159.53 133.52Q159.27 133.55 159.00 133.54Q158.44 133.64 158.02 134.02Q157.66 134.16 157.52 134.52Q156.76 134.55 156.00 134.56Q155.45 134.65 155.03 135.03Q154.67 135.17 154.53 135.53Q154.27 135.57 154.00 135.57Q153.45 135.66 153.04 136.04Q152.68 136.17 152.54 136.53Q152.27 136.58 152.00 136.61Q151.47 136.70 151.08 137.08Q150.20 137.69 149.55 138.53Q148.97 138.97 148.64 139.62Q148.33 139.81 148.00 139.68Q147.47 139.72 147.06 140.06Q146.19 140.68 145.54 141.53Q144.57 141.90 143.77 142.54Q143.32 142.66 143.04 143.04Q137.76 148.28 132.71 153.75Q132.04 154.06 131.58 154.62Q131.23 154.76 131.12 155.12Q130.73 155.41 130.62 155.88Q130.53 156.15 130.38 156.38Q129.83 156.87 129.54 157.55Q128.55 158.55 127.55 159.55Q127.13 159.56 126.83 159.87C123.44 155.60 121.32 150.16 120.23 144.85C117.60 132.08 119.68 118.22 126.88 107.23C130.46 101.76 135.20 96.82 141.24 94.10C143.69 93.00 146.37 92.68 149.02 92.70C150.67 92.70 152.32 92.88 153.98 92.86C154.94 92.84 154.94 91.83 155.96 91.77C156.24 91.75 156.51 91.89 156.77 91.99C158.63 92.76 158.31 92.90 159.83 93.22C160.17 93.29 160.53 93.30 160.87 93.38C163.10 93.91 166.59 96.42 167.72 97.29C171.91 100.53 175.06 105.36 177.10 110.19C178.71 113.99 179.66 117.96 180.21 122.04C180.26 122.37 180.31 122.69 180.34 123.02C180.43 124.03 180.33 125.07 180.56 126.06C180.62 126.30 180.97 126.36 181.17 126.51Z" fill="#a95f47" transform="scale(1)"></path></g><g data-avatar-compiled-surface-layer="ear-left" clip-path="url(#R0-compiled-owner-0)"><g transform="translate(-60.13145074197369 -70.62617278687273)"><g></g></g></g></g><g data-avatar-entity-part="ear-right" data-avatar-fragment-interaction-area="1773" data-avatar-fragment-interaction-ratio="1" data-avatar-fragment-raw-visible-area="1773" data-avatar-fragment-visible-area="1773" data-avatar-part-geometry="compiled-owner"><g data-avatar-compiled-base-layer="ear-right"><path data-avatar-compiled-base="ear-right" d="M290.17 153.84Q289.90 153.53 289.49 153.51Q289.47 153.25 289.48 153.00Q289.38 152.43 288.99 152.01Q284.10 146.90 278.99 142.01Q278.56 141.63 278.00 141.53Q277.74 141.53 277.49 141.51Q276.85 140.65 275.99 140.01Q275.56 139.63 275.00 139.53Q274.74 139.53 274.49 139.51Q273.35 138.15 271.98 137.02Q271.56 136.63 271.00 136.53Q270.74 136.54 270.48 136.51Q270.35 136.15 269.98 136.02Q269.56 135.63 269.00 135.53Q268.74 135.54 268.48 135.51Q268.35 135.15 267.98 135.02Q267.56 134.63 267.00 134.53Q266.24 134.53 265.48 134.51Q265.35 134.15 264.98 134.02Q264.56 133.63 264.00 133.53Q263.24 133.53 262.48 133.51Q262.35 133.15 261.98 133.02Q261.56 132.63 261.00 132.53Q260.74 132.53 260.48 132.51Q260.35 132.15 259.98 132.02Q259.56 131.63 259.00 131.53Q258.24 131.53 257.48 131.51Q257.35 131.15 256.98 131.02Q256.56 130.63 256.00 130.53Q255.24 130.53 254.48 130.51Q254.35 130.15 253.98 130.02Q253.56 129.63 253.00 129.53Q252.74 129.54 252.48 129.51Q252.34 129.15 251.98 129.02Q251.56 128.63 251.00 128.53Q249.24 128.53 247.48 128.51Q247.35 128.15 246.98 128.02Q246.56 127.63 246.00 127.53Q241.75 127.52 237.49 127.51Q237.35 127.15 236.99 127.01Q236.48 126.61 235.83 126.51C236.48 121.55 237.73 116.77 239.99 112.28C241.65 108.98 243.86 106.03 246.51 103.45C248.84 101.18 247.34 103.05 249.45 101.44C249.75 101.21 250.64 100.08 251.18 99.92C252.43 99.54 253.72 99.29 255.01 99.05C255.33 98.99 255.68 99.09 256.01 99.04C256.39 98.98 256.74 98.81 257.12 98.74C257.59 98.65 258.12 98.76 258.54 98.54C258.96 98.32 259.17 97.84 259.51 97.51C260.34 96.67 261.86 96.54 262.96 96.59C263.30 96.60 263.60 96.83 263.93 96.91C264.89 97.12 265.89 97.17 266.83 97.46C271.35 98.86 274.99 100.41 278.51 103.50C288.94 112.66 293.26 127.43 292.67 140.94C292.54 143.98 292.10 147.01 291.39 149.97C291.11 151.15 290.81 152.69 290.17 153.84Z" fill="#a95f47" transform="scale(1)"></path></g><g data-avatar-compiled-surface-layer="ear-right" clip-path="url(#R0-compiled-owner-1)"><g transform="translate(54.057351946330826 -66.37884706226701)"><g></g></g></g></g><g data-avatar-entity-part="primary" data-avatar-fragment-interaction-area="34057" data-avatar-fragment-interaction-ratio="1" data-avatar-fragment-raw-visible-area="34057" data-avatar-fragment-visible-area="34057" data-avatar-part-geometry="compiled-owner"><g data-avatar-compiled-base-layer="primary"><path data-avatar-compiled-base="primary" d="M181.17 126.51C181.46 126.77 181.65 127.30 182.04 127.30C187.03 127.33 192.01 126.61 197.00 126.60C208.66 126.57 220.33 126.95 231.99 127.18C235.48 127.25 234.16 128.08 235.83 126.51Q236.48 126.61 236.99 127.01Q237.35 127.15 237.49 127.51Q241.75 127.52 246.00 127.53Q246.56 127.63 246.98 128.02Q247.35 128.15 247.48 128.51Q249.24 128.53 251.00 128.53Q251.56 128.63 251.98 129.02Q252.34 129.15 252.48 129.51Q252.74 129.54 253.00 129.53Q253.56 129.63 253.98 130.02Q254.35 130.15 254.48 130.51Q255.24 130.53 256.00 130.53Q256.56 130.63 256.98 131.02Q257.35 131.15 257.48 131.51Q258.24 131.53 259.00 131.53Q259.56 131.63 259.98 132.02Q260.35 132.15 260.48 132.51Q260.74 132.53 261.00 132.53Q261.56 132.63 261.98 133.02Q262.35 133.15 262.48 133.51Q263.24 133.53 264.00 133.53Q264.56 133.63 264.98 134.02Q265.35 134.15 265.48 134.51Q266.24 134.53 267.00 134.53Q267.56 134.63 267.98 135.02Q268.35 135.15 268.48 135.51Q268.74 135.54 269.00 135.53Q269.56 135.63 269.98 136.02Q270.35 136.15 270.48 136.51Q270.74 136.54 271.00 136.53Q271.56 136.63 271.98 137.02Q273.35 138.15 274.49 139.51Q274.74 139.53 275.00 139.53Q275.56 139.63 275.99 140.01Q276.85 140.65 277.49 141.51Q277.74 141.53 278.00 141.53Q278.56 141.63 278.99 142.01Q284.10 146.90 288.99 152.01Q289.38 152.43 289.48 153.00Q289.47 153.25 289.49 153.51Q289.90 153.53 290.17 153.84C290.22 154.10 290.18 154.40 290.33 154.63C291.23 156.03 292.40 157.25 293.29 158.66C294.84 161.11 296.30 163.63 297.62 166.21C300.24 171.34 301.90 175.71 303.69 181.11C308.18 194.65 310.10 208.99 312.05 223.06C313.60 234.29 315.14 245.59 314.77 256.95C314.52 264.58 313.40 272.40 310.45 279.48C307.26 287.13 305.84 288.36 300.69 294.75C300.41 295.10 300.12 295.44 299.77 295.72C296.85 298.15 293.88 300.51 290.89 302.87C289.78 303.75 288.14 304.93 286.80 305.56C284.85 306.49 282.85 307.33 280.87 308.20C275.55 310.54 270.66 313.27 264.93 314.17C258.01 315.26 250.97 315.49 243.98 315.74C233.97 316.11 224.04 316.06 214.01 315.90C199.73 315.67 185.32 315.66 171.03 314.83C163.78 314.42 161.54 314.26 155.09 313.66C152.16 313.38 148.97 313.13 146.22 311.98C140.86 309.72 135.51 307.44 130.17 305.13C129.85 304.99 129.53 304.84 129.25 304.63C126.22 302.35 123.24 300.00 120.25 297.67C120.08 297.54 119.93 297.39 119.77 297.24C117.17 294.80 114.73 291.90 113.06 288.71C108.65 280.23 110.05 283.71 107.25 274.76C107.16 274.48 107.09 274.19 107.04 273.90C106.61 271.59 106.09 269.28 105.80 266.95C104.54 256.81 105.32 246.60 106.52 236.50C106.81 234.02 107.15 231.55 107.49 229.07C108.85 219.42 110.12 209.67 112.14 200.12C113.79 192.30 115.82 184.54 118.81 177.11C119.90 174.42 121.04 171.74 122.33 169.14C123.52 166.75 124.93 164.46 126.25 162.14C126.43 161.83 126.74 161.58 126.83 161.24C126.94 160.80 126.83 160.33 126.83 159.87Q127.13 159.56 127.55 159.55Q128.55 158.55 129.54 157.55Q129.83 156.87 130.38 156.38Q130.53 156.15 130.62 155.88Q130.73 155.41 131.12 155.12Q131.23 154.76 131.58 154.62Q132.04 154.06 132.71 153.75Q137.76 148.28 143.04 143.04Q143.32 142.66 143.77 142.54Q144.57 141.90 145.54 141.53Q146.19 140.68 147.06 140.06Q147.47 139.72 148.00 139.68Q148.33 139.81 148.64 139.62Q148.97 138.97 149.55 138.53Q150.20 137.69 151.08 137.08Q151.47 136.70 152.00 136.61Q152.27 136.58 152.54 136.53Q152.68 136.17 153.04 136.04Q153.45 135.66 154.00 135.57Q154.27 135.57 154.53 135.53Q154.67 135.17 155.03 135.03Q155.45 134.65 156.00 134.56Q156.76 134.55 157.52 134.52Q157.66 134.16 158.02 134.02Q158.44 133.64 159.00 133.54Q159.27 133.55 159.53 133.52Q159.67 133.16 160.03 133.03Q160.45 132.65 161.00 132.56Q161.76 132.55 162.53 132.52Q162.66 132.16 163.03 132.03Q163.44 131.64 164.00 131.55Q165.26 131.54 166.52 131.52Q166.66 131.15 167.02 131.02Q167.44 130.64 168.00 130.56Q168.29 130.58 168.57 130.54Q169.20 129.68 170.05 129.05Q170.45 128.67 171.00 128.58Q172.26 128.55 173.52 128.52Q173.66 128.16 174.02 128.02Q174.44 127.64 175.00 127.54Q177.26 127.54 179.51 127.51Q179.65 127.15 180.01 127.01Q180.53 126.61 181.17 126.51Z" fill="#e3b17f" transform="scale(1)"></path></g><g data-avatar-compiled-surface-layer="primary" clip-path="url(#R0-compiled-owner-2)"><g transform="translate(0 19.87834005689871)"><g><g data-avatar-face-surface-layer="primary"><path data-avatar-face-feature="eye-0" d="M 188.834 179.685 L 190.873 179.436 L 192.926 179.571 L 194.912 180.085 L 196.757 180.958 L 198.389 182.156 L 199.744 183.634 L 200.772 185.335 L 201.432 187.193 L 201.625 187.984 L 201.817 188.775 L 202.008 189.567 L 202.199 190.359 L 202.389 191.152 L 202.579 191.945 L 202.767 192.738 L 202.956 193.532 L 203.211 195.484 L 203.064 197.447 L 202.519 199.346 L 201.599 201.107 L 200.338 202.664 L 198.784 203.955 L 196.998 204.931 L 195.049 205.556 L 195.049 205.556 L 195.049 205.556 L 195.049 205.556 L 195.049 205.556 L 195.049 205.556 L 195.049 205.556 L 195.049 205.556 L 195.049 205.556 L 193.010 205.804 L 190.962 205.666 L 188.981 205.148 L 187.145 204.269 L 185.524 203.064 L 184.180 201.578 L 183.165 199.868 L 182.518 198.001 L 182.330 197.207 L 182.141 196.414 L 181.952 195.621 L 181.762 194.828 L 181.572 194.036 L 181.380 193.244 L 181.189 192.453 L 180.996 191.662 L 180.728 189.718 L 180.864 187.763 L 181.396 185.872 L 182.306 184.118 L 183.559 182.568 L 185.105 181.281 L 186.886 180.308 L 188.834 179.685 L 188.834 179.685 L 188.834 179.685 L 188.834 179.685 L 188.834 179.685 L 188.834 179.685 L 188.834 179.685 L 188.834 179.685 Z" fill="#2b1d18"></path><path data-avatar-face-feature="eye-1" d="M 252.192 180.519 L 254.145 180.509 L 256.077 180.883 L 257.914 181.625 L 259.586 182.706 L 261.027 184.086 L 262.184 185.711 L 263.010 187.519 L 263.475 189.440 L 263.589 190.247 L 263.702 191.055 L 263.815 191.864 L 263.927 192.672 L 264.038 193.482 L 264.148 194.291 L 264.258 195.102 L 264.368 195.912 L 264.440 197.882 L 264.130 199.815 L 263.449 201.639 L 262.424 203.281 L 261.094 204.680 L 259.511 205.782 L 257.735 206.543 L 255.834 206.936 L 255.834 206.936 L 255.834 206.936 L 255.834 206.936 L 255.834 206.936 L 255.834 206.936 L 255.834 206.936 L 255.834 206.936 L 255.834 206.936 L 253.882 206.944 L 251.954 206.568 L 250.123 205.822 L 248.460 204.735 L 247.029 203.348 L 245.885 201.715 L 245.071 199.898 L 244.619 197.968 L 244.510 197.158 L 244.400 196.348 L 244.290 195.538 L 244.178 194.728 L 244.067 193.920 L 243.954 193.111 L 243.841 192.303 L 243.727 191.495 L 243.643 189.534 L 243.941 187.609 L 244.610 185.794 L 245.624 184.158 L 246.945 182.766 L 248.521 181.669 L 250.293 180.910 L 252.192 180.519 L 252.192 180.519 L 252.192 180.519 L 252.192 180.519 L 252.192 180.519 L 252.192 180.519 L 252.192 180.519 L 252.192 180.519 Z" fill="#2b1d18"></path><path data-avatar-face-feature="nose" d="M 233.802 213.242 L 233.655 214.146 L 233.252 215.023 L 232.603 215.850 L 231.724 216.608 L 230.636 217.278 L 229.365 217.843 L 227.943 218.291 L 226.404 218.610 L 224.786 218.792 L 223.129 218.833 L 221.472 218.733 L 219.858 218.493 L 218.326 218.119 L 216.914 217.621 L 215.657 217.011 L 214.586 216.302 L 213.728 215.514 L 213.105 214.664 L 212.732 213.773 L 212.618 212.864 L 212.766 211.959 L 213.173 211.079 L 213.828 210.248 L 214.714 209.485 L 215.811 208.809 L 217.091 208.238 L 218.520 207.785 L 220.066 207.462 L 221.688 207.277 L 223.347 207.235 L 225.002 207.336 L 226.612 207.579 L 228.138 207.957 L 229.542 208.460 L 230.791 209.076 L 231.853 209.791 L 232.703 210.585 L 233.320 211.439 L 233.689 212.332 Z" fill="#2b1d18"></path><path data-avatar-face-feature="mouth" d="M 204.172 225.912 L 205.518 226.035 L 206.862 226.151 L 208.205 226.260 L 209.546 226.361 L 210.887 226.455 L 212.226 226.542 L 213.564 226.621 L 214.901 226.693 L 216.236 226.757 L 217.571 226.814 L 218.904 226.863 L 220.236 226.906 L 221.567 226.941 L 222.896 226.968 L 224.225 226.988 L 225.552 227.001 L 226.878 227.006 L 228.203 227.004 L 229.527 226.994 L 230.849 226.977 L 232.171 226.953 L 233.491 226.921 L 234.810 226.882 L 236.128 226.835 L 237.444 226.781 L 238.760 226.720 L 240.074 226.651 L 241.387 226.575 L 243.053 226.810 L 244.499 227.678 L 245.504 229.048 L 245.914 230.712 L 245.668 232.416 L 244.802 233.901 L 243.449 234.940 L 241.816 235.375 L 240.450 235.454 L 239.082 235.525 L 237.713 235.588 L 236.343 235.644 L 234.971 235.692 L 233.598 235.733 L 232.223 235.766 L 230.847 235.791 L 229.470 235.808 L 228.092 235.818 L 226.712 235.820 L 225.331 235.815 L 223.948 235.802 L 222.565 235.781 L 221.180 235.752 L 219.794 235.716 L 218.406 235.672 L 217.018 235.621 L 215.628 235.561 L 214.237 235.495 L 212.844 235.420 L 211.450 235.338 L 210.055 235.248 L 208.659 235.150 L 207.261 235.045 L 205.863 234.932 L 204.462 234.812 L 203.061 234.684 L 201.411 234.190 L 200.098 233.104 L 199.320 231.590 L 199.197 229.879 L 199.746 228.232 L 200.884 226.900 L 202.438 226.085 L 204.172 225.912 Z" fill="#2b1d18"></path></g></g></g></g></g></g></g></g></svg>
